<svg width="24" height="24" viewBox="0 0 24 24" fill="none" xmlns="http://www.w3.org/2000/svg">
<g opacity="0.2">
<path d="M20.4867 15.7194L16.5491 14.0319C16.3809 13.9602 16.1939 13.9451 16.0164 13.9889C15.8389 14.0326 15.6804 14.1329 15.5647 14.2745L13.8209 16.405C11.0842 15.1147 8.88181 12.9123 7.59149 10.1756L9.72199 8.43177C9.86391 8.31634 9.96436 8.15782 10.0081 7.9802C10.0519 7.80258 10.0366 7.61553 9.96457 7.44738L8.27705 3.50981C8.19798 3.32854 8.05815 3.18054 7.88165 3.09133C7.70516 3.00213 7.50307 2.9773 7.31023 3.02113L3.65392 3.86489C3.468 3.90782 3.30212 4.01251 3.18336 4.16186C3.06459 4.3112 2.99996 4.4964 3 4.68721C3 13.7049 10.3091 21 19.3128 21C19.5037 21.0001 19.6889 20.9355 19.8384 20.8168C19.9878 20.698 20.0925 20.5321 20.1355 20.3461L20.9792 16.6898C21.0228 16.496 20.9974 16.2931 20.9075 16.116C20.8176 15.9389 20.6688 15.7987 20.4867 15.7194Z" fill="white"/>
</g>
</svg>
