<svg width="150" height="310" viewBox="0 0 150 310" fill="none" xmlns="http://www.w3.org/2000/svg">
<g opacity="0.2">
<circle cx="3" cy="3" r="3" fill="#ABB2D0"/>
<circle cx="3" cy="163" r="3" fill="#ABB2D0"/>
<circle cx="147" cy="147" r="3" transform="rotate(180 147 147)" fill="#ABB2D0"/>
<circle cx="147" cy="307" r="3" transform="rotate(180 147 307)" fill="#ABB2D0"/>
<circle cx="83" cy="67" r="3" transform="rotate(-90 83 67)" fill="#ABB2D0"/>
<circle cx="83" cy="227" r="3" transform="rotate(-90 83 227)" fill="#ABB2D0"/>
<circle cx="67" cy="83" r="3" transform="rotate(90 67 83)" fill="#ABB2D0"/>
<circle cx="67" cy="243" r="3" transform="rotate(90 67 243)" fill="#ABB2D0"/>
<circle cx="3" cy="19" r="3" fill="#ABB2D0"/>
<circle cx="3" cy="179" r="3" fill="#ABB2D0"/>
<circle cx="147" cy="131" r="3" transform="rotate(180 147 131)" fill="#ABB2D0"/>
<circle cx="147" cy="291" r="3" transform="rotate(180 147 291)" fill="#ABB2D0"/>
<circle cx="99" cy="67" r="3" transform="rotate(-90 99 67)" fill="#ABB2D0"/>
<circle cx="99" cy="227" r="3" transform="rotate(-90 99 227)" fill="#ABB2D0"/>
<circle cx="51" cy="83" r="3" transform="rotate(90 51 83)" fill="#ABB2D0"/>
<circle cx="51" cy="243" r="3" transform="rotate(90 51 243)" fill="#ABB2D0"/>
<circle cx="3" cy="51" r="3" fill="#ABB2D0"/>
<circle cx="3" cy="211" r="3" fill="#ABB2D0"/>
<circle cx="147" cy="99" r="3" transform="rotate(180 147 99)" fill="#ABB2D0"/>
<circle cx="147" cy="259" r="3" transform="rotate(180 147 259)" fill="#ABB2D0"/>
<circle cx="131" cy="67" r="3" transform="rotate(-90 131 67)" fill="#ABB2D0"/>
<circle cx="131" cy="227" r="3" transform="rotate(-90 131 227)" fill="#ABB2D0"/>
<circle cx="19" cy="83" r="3" transform="rotate(90 19 83)" fill="#ABB2D0"/>
<circle cx="19" cy="243" r="3" transform="rotate(90 19 243)" fill="#ABB2D0"/>
<circle cx="3" cy="67" r="3" fill="#ABB2D0"/>
<circle cx="3" cy="227" r="3" fill="#ABB2D0"/>
<circle cx="147" cy="83" r="3" transform="rotate(180 147 83)" fill="#ABB2D0"/>
<circle cx="147" cy="243" r="3" transform="rotate(180 147 243)" fill="#ABB2D0"/>
<circle cx="147" cy="67" r="3" transform="rotate(-90 147 67)" fill="#ABB2D0"/>
<circle cx="147" cy="227" r="3" transform="rotate(-90 147 227)" fill="#ABB2D0"/>
<circle cx="3" cy="83" r="3" transform="rotate(90 3 83)" fill="#ABB2D0"/>
<circle cx="3" cy="243" r="3" transform="rotate(90 3 243)" fill="#ABB2D0"/>
<circle cx="19" cy="19" r="3" fill="#ABB2D0"/>
<circle cx="19" cy="179" r="3" fill="#ABB2D0"/>
<circle cx="131" cy="131" r="3" transform="rotate(180 131 131)" fill="#ABB2D0"/>
<circle cx="131" cy="291" r="3" transform="rotate(180 131 291)" fill="#ABB2D0"/>
<circle cx="99" cy="51" r="3" transform="rotate(-90 99 51)" fill="#ABB2D0"/>
<circle cx="99" cy="211" r="3" transform="rotate(-90 99 211)" fill="#ABB2D0"/>
<circle cx="51" cy="99" r="3" transform="rotate(90 51 99)" fill="#ABB2D0"/>
<circle cx="51" cy="259" r="3" transform="rotate(90 51 259)" fill="#ABB2D0"/>
<circle cx="35" cy="35" r="3" fill="#ABB2D0"/>
<circle cx="35" cy="195" r="3" fill="#ABB2D0"/>
<circle cx="115" cy="115" r="3" transform="rotate(180 115 115)" fill="#ABB2D0"/>
<circle cx="115" cy="275" r="3" transform="rotate(180 115 275)" fill="#ABB2D0"/>
<circle cx="115" cy="35" r="3" transform="rotate(-90 115 35)" fill="#ABB2D0"/>
<circle cx="115" cy="195" r="3" transform="rotate(-90 115 195)" fill="#ABB2D0"/>
<circle cx="35" cy="115" r="3" transform="rotate(90 35 115)" fill="#ABB2D0"/>
<circle cx="35" cy="275" r="3" transform="rotate(90 35 275)" fill="#ABB2D0"/>
<circle cx="35" cy="51" r="3" fill="#ABB2D0"/>
<circle cx="35" cy="211" r="3" fill="#ABB2D0"/>
<circle cx="115" cy="99" r="3" transform="rotate(180 115 99)" fill="#ABB2D0"/>
<circle cx="115" cy="259" r="3" transform="rotate(180 115 259)" fill="#ABB2D0"/>
<circle cx="131" cy="35" r="3" transform="rotate(-90 131 35)" fill="#ABB2D0"/>
<circle cx="131" cy="195" r="3" transform="rotate(-90 131 195)" fill="#ABB2D0"/>
<circle cx="19" cy="115" r="3" transform="rotate(90 19 115)" fill="#ABB2D0"/>
<circle cx="19" cy="275" r="3" transform="rotate(90 19 275)" fill="#ABB2D0"/>
<circle cx="51" cy="3" r="3" fill="#ABB2D0"/>
<circle cx="51" cy="163" r="3" fill="#ABB2D0"/>
<circle cx="99" cy="147" r="3" transform="rotate(180 99 147)" fill="#ABB2D0"/>
<circle cx="99" cy="307" r="3" transform="rotate(180 99 307)" fill="#ABB2D0"/>
<circle cx="83" cy="19" r="3" transform="rotate(-90 83 19)" fill="#ABB2D0"/>
<circle cx="83" cy="179" r="3" transform="rotate(-90 83 179)" fill="#ABB2D0"/>
<circle cx="67" cy="131" r="3" transform="rotate(90 67 131)" fill="#ABB2D0"/>
<circle cx="67" cy="291" r="3" transform="rotate(90 67 291)" fill="#ABB2D0"/>
<circle cx="51" cy="19" r="3" fill="#ABB2D0"/>
<circle cx="51" cy="179" r="3" fill="#ABB2D0"/>
<circle cx="99" cy="131" r="3" transform="rotate(180 99 131)" fill="#ABB2D0"/>
<circle cx="99" cy="291" r="3" transform="rotate(180 99 291)" fill="#ABB2D0"/>
<circle cx="99" cy="19" r="3" transform="rotate(-90 99 19)" fill="#ABB2D0"/>
<circle cx="99" cy="179" r="3" transform="rotate(-90 99 179)" fill="#ABB2D0"/>
<circle cx="51" cy="131" r="3" transform="rotate(90 51 131)" fill="#ABB2D0"/>
<circle cx="51" cy="291" r="3" transform="rotate(90 51 291)" fill="#ABB2D0"/>
<circle cx="51" cy="35" r="3" fill="#ABB2D0"/>
<circle cx="51" cy="195" r="3" fill="#ABB2D0"/>
<circle cx="99" cy="115" r="3" transform="rotate(180 99 115)" fill="#ABB2D0"/>
<circle cx="99" cy="275" r="3" transform="rotate(180 99 275)" fill="#ABB2D0"/>
<circle cx="115" cy="19" r="3" transform="rotate(-90 115 19)" fill="#ABB2D0"/>
<circle cx="115" cy="179" r="3" transform="rotate(-90 115 179)" fill="#ABB2D0"/>
<circle cx="35" cy="131" r="3" transform="rotate(90 35 131)" fill="#ABB2D0"/>
<circle cx="35" cy="291" r="3" transform="rotate(90 35 291)" fill="#ABB2D0"/>
<circle cx="51" cy="51" r="3" fill="#ABB2D0"/>
<circle cx="51" cy="211" r="3" fill="#ABB2D0"/>
<circle cx="99" cy="99" r="3" transform="rotate(180 99 99)" fill="#ABB2D0"/>
<circle cx="99" cy="259" r="3" transform="rotate(180 99 259)" fill="#ABB2D0"/>
<circle cx="131" cy="19" r="3" transform="rotate(-90 131 19)" fill="#ABB2D0"/>
<circle cx="131" cy="179" r="3" transform="rotate(-90 131 179)" fill="#ABB2D0"/>
<circle cx="19" cy="131" r="3" transform="rotate(90 19 131)" fill="#ABB2D0"/>
<circle cx="19" cy="291" r="3" transform="rotate(90 19 291)" fill="#ABB2D0"/>
<circle cx="51" cy="67" r="3" fill="#ABB2D0"/>
<circle cx="51" cy="227" r="3" fill="#ABB2D0"/>
<circle cx="99" cy="83" r="3" transform="rotate(180 99 83)" fill="#ABB2D0"/>
<circle cx="99" cy="243" r="3" transform="rotate(180 99 243)" fill="#ABB2D0"/>
<circle cx="147" cy="19" r="3" transform="rotate(-90 147 19)" fill="#ABB2D0"/>
<circle cx="147" cy="179" r="3" transform="rotate(-90 147 179)" fill="#ABB2D0"/>
<circle cx="3" cy="131" r="3" transform="rotate(90 3 131)" fill="#ABB2D0"/>
<circle cx="3" cy="291" r="3" transform="rotate(90 3 291)" fill="#ABB2D0"/>
<circle cx="67" cy="3" r="3" fill="#ABB2D0"/>
<circle cx="67" cy="163" r="3" fill="#ABB2D0"/>
<circle cx="83" cy="147" r="3" transform="rotate(180 83 147)" fill="#ABB2D0"/>
<circle cx="83" cy="307" r="3" transform="rotate(180 83 307)" fill="#ABB2D0"/>
<circle cx="83" cy="3" r="3" transform="rotate(-90 83 3)" fill="#ABB2D0"/>
<circle cx="83" cy="163" r="3" transform="rotate(-90 83 163)" fill="#ABB2D0"/>
<circle cx="67" cy="147" r="3" transform="rotate(90 67 147)" fill="#ABB2D0"/>
<circle cx="67" cy="307" r="3" transform="rotate(90 67 307)" fill="#ABB2D0"/>
<circle cx="67" cy="51" r="3" fill="#ABB2D0"/>
<circle cx="67" cy="211" r="3" fill="#ABB2D0"/>
<circle cx="83" cy="99" r="3" transform="rotate(180 83 99)" fill="#ABB2D0"/>
<circle cx="83" cy="259" r="3" transform="rotate(180 83 259)" fill="#ABB2D0"/>
<circle cx="131" cy="3" r="3" transform="rotate(-90 131 3)" fill="#ABB2D0"/>
<circle cx="131" cy="163" r="3" transform="rotate(-90 131 163)" fill="#ABB2D0"/>
<circle cx="19" cy="147" r="3" transform="rotate(90 19 147)" fill="#ABB2D0"/>
<circle cx="19" cy="307" r="3" transform="rotate(90 19 307)" fill="#ABB2D0"/>
<circle cx="67" cy="67" r="3" fill="#ABB2D0"/>
<circle cx="67" cy="227" r="3" fill="#ABB2D0"/>
<circle cx="83" cy="83" r="3" transform="rotate(180 83 83)" fill="#ABB2D0"/>
<circle cx="83" cy="243" r="3" transform="rotate(180 83 243)" fill="#ABB2D0"/>
<circle cx="147" cy="3" r="3" transform="rotate(-90 147 3)" fill="#ABB2D0"/>
<circle cx="147" cy="163" r="3" transform="rotate(-90 147 163)" fill="#ABB2D0"/>
<circle cx="3" cy="147" r="3" transform="rotate(90 3 147)" fill="#ABB2D0"/>
<circle cx="3" cy="307" r="3" transform="rotate(90 3 307)" fill="#ABB2D0"/>
<path fill-rule="evenodd" clip-rule="evenodd" d="M23.2436 4C22.396 4 21.6805 4.59143 21.066 5.17526C20.528 5.68637 19.8006 6 19 6C17.3431 6 16 4.65685 16 3C16 1.34315 17.3431 0 19 0C19.8006 0 20.528 0.313631 21.066 0.824737C21.6805 1.40857 22.396 2 23.2436 2L30.7564 2C31.604 2 32.3195 1.40856 32.934 0.824737C33.472 0.313631 34.1994 0 35 0C36.6569 0 38 1.34315 38 3C38 3.80063 37.6864 4.52801 37.1753 5.06598C36.5914 5.68049 36 6.39601 36 7.24365V14.7564C36 15.604 36.5914 16.3195 37.1753 16.934C37.6864 17.472 38 18.1994 38 19C38 20.6569 36.6569 22 35 22C33.3431 22 32 20.6569 32 19C32 18.1994 32.3136 17.472 32.8247 16.934C33.4086 16.3195 34 15.604 34 14.7564V7.1664C34 6.36506 33.4453 5.68795 32.8787 5.12132C32.312 4.55469 31.6349 4 30.8336 4L23.2436 4Z" fill="#ABB2D0"/>
<path fill-rule="evenodd" clip-rule="evenodd" d="M23.2436 164C22.396 164 21.6805 164.591 21.066 165.175C20.528 165.686 19.8006 166 19 166C17.3431 166 16 164.657 16 163C16 161.343 17.3431 160 19 160C19.8006 160 20.528 160.314 21.066 160.825C21.6805 161.409 22.396 162 23.2436 162H30.7564C31.604 162 32.3195 161.409 32.934 160.825C33.472 160.314 34.1994 160 35 160C36.6569 160 38 161.343 38 163C38 163.801 37.6864 164.528 37.1753 165.066C36.5914 165.68 36 166.396 36 167.244V174.756C36 175.604 36.5914 176.32 37.1753 176.934C37.6864 177.472 38 178.199 38 179C38 180.657 36.6569 182 35 182C33.3431 182 32 180.657 32 179C32 178.199 32.3136 177.472 32.8247 176.934C33.4086 176.32 34 175.604 34 174.756V167.166C34 166.365 33.4453 165.688 32.8787 165.121C32.312 164.555 31.6349 164 30.8336 164H23.2436Z" fill="#ABB2D0"/>
<path fill-rule="evenodd" clip-rule="evenodd" d="M126.756 146C127.604 146 128.32 145.409 128.934 144.825C129.472 144.314 130.199 144 131 144C132.657 144 134 145.343 134 147C134 148.657 132.657 150 131 150C130.199 150 129.472 149.686 128.934 149.175C128.32 148.591 127.604 148 126.756 148L119.244 148C118.396 148 117.68 148.591 117.066 149.175C116.528 149.686 115.801 150 115 150C113.343 150 112 148.657 112 147C112 146.199 112.314 145.472 112.825 144.934C113.409 144.32 114 143.604 114 142.756L114 135.244C114 134.396 113.409 133.68 112.825 133.066C112.314 132.528 112 131.801 112 131C112 129.343 113.343 128 115 128C116.657 128 118 129.343 118 131C118 131.801 117.686 132.528 117.175 133.066C116.591 133.68 116 134.396 116 135.244L116 142.834C116 143.635 116.555 144.312 117.121 144.879C117.688 145.445 118.365 146 119.166 146L126.756 146Z" fill="#ABB2D0"/>
<path fill-rule="evenodd" clip-rule="evenodd" d="M126.756 306C127.604 306 128.32 305.409 128.934 304.825C129.472 304.314 130.199 304 131 304C132.657 304 134 305.343 134 307C134 308.657 132.657 310 131 310C130.199 310 129.472 309.686 128.934 309.175C128.32 308.591 127.604 308 126.756 308L119.244 308C118.396 308 117.68 308.591 117.066 309.175C116.528 309.686 115.801 310 115 310C113.343 310 112 308.657 112 307C112 306.199 112.314 305.472 112.825 304.934C113.409 304.32 114 303.604 114 302.756L114 295.244C114 294.396 113.409 293.68 112.825 293.066C112.314 292.528 112 291.801 112 291C112 289.343 113.343 288 115 288C116.657 288 118 289.343 118 291C118 291.801 117.686 292.528 117.175 293.066C116.591 293.68 116 294.396 116 295.244L116 302.834C116 303.635 116.555 304.312 117.121 304.879C117.688 305.445 118.365 306 119.166 306L126.756 306Z" fill="#ABB2D0"/>
<path fill-rule="evenodd" clip-rule="evenodd" d="M84 46.7564C84 47.604 84.5914 48.3195 85.1753 48.934C85.6864 49.472 86 50.1994 86 51C86 52.6569 84.6569 54 83 54C81.3431 54 80 52.6569 80 51C80 50.1994 80.3136 49.472 80.8247 48.934C81.4086 48.3195 82 47.604 82 46.7564L82 39.2436C82 38.396 81.4086 37.6805 80.8247 37.066C80.3136 36.528 80 35.8006 80 35C80 33.3431 81.3431 32 83 32C83.8006 32 84.528 32.3136 85.066 32.8247C85.6805 33.4086 86.396 34 87.2436 34L94.7564 34C95.604 34 96.3195 33.4086 96.934 32.8247C97.472 32.3136 98.1994 32 99 32C100.657 32 102 33.3431 102 35C102 36.6569 100.657 38 99 38C98.1994 38 97.472 37.6864 96.934 37.1753C96.3195 36.5914 95.604 36 94.7564 36L87.1664 36C86.3651 36 85.688 36.5547 85.1213 37.1213C84.5547 37.688 84 38.3651 84 39.1664L84 46.7564Z" fill="#ABB2D0"/>
<path fill-rule="evenodd" clip-rule="evenodd" d="M84 206.756C84 207.604 84.5914 208.32 85.1753 208.934C85.6864 209.472 86 210.199 86 211C86 212.657 84.6569 214 83 214C81.3431 214 80 212.657 80 211C80 210.199 80.3136 209.472 80.8247 208.934C81.4086 208.32 82 207.604 82 206.756L82 199.244C82 198.396 81.4086 197.68 80.8247 197.066C80.3136 196.528 80 195.801 80 195C80 193.343 81.3431 192 83 192C83.8006 192 84.528 192.314 85.066 192.825C85.6805 193.409 86.396 194 87.2436 194L94.7564 194C95.604 194 96.3195 193.409 96.934 192.825C97.472 192.314 98.1994 192 99 192C100.657 192 102 193.343 102 195C102 196.657 100.657 198 99 198C98.1994 198 97.472 197.686 96.934 197.175C96.3195 196.591 95.604 196 94.7564 196L87.1664 196C86.3651 196 85.688 196.555 85.1213 197.121C84.5547 197.688 84 198.365 84 199.166L84 206.756Z" fill="#ABB2D0"/>
<path fill-rule="evenodd" clip-rule="evenodd" d="M66 103.244C66 102.396 65.4086 101.68 64.8247 101.066C64.3136 100.528 64 99.8006 64 99C64 97.3431 65.3431 96 67 96C68.6569 96 70 97.3431 70 99C70 99.8006 69.6864 100.528 69.1753 101.066C68.5914 101.68 68 102.396 68 103.244L68 110.756C68 111.604 68.5914 112.32 69.1753 112.934C69.6864 113.472 70 114.199 70 115C70 116.657 68.6569 118 67 118C66.1994 118 65.472 117.686 64.934 117.175C64.3195 116.591 63.604 116 62.7564 116L55.2437 116C54.396 116 53.6805 116.591 53.066 117.175C52.528 117.686 51.8006 118 51 118C49.3431 118 48 116.657 48 115C48 113.343 49.3431 112 51 112C51.8006 112 52.528 112.314 53.066 112.825C53.6805 113.409 54.396 114 55.2436 114L62.8336 114C63.6349 114 64.312 113.445 64.8787 112.879C65.4453 112.312 66 111.635 66 110.834L66 103.244Z" fill="#ABB2D0"/>
<path fill-rule="evenodd" clip-rule="evenodd" d="M66 263.244C66 262.396 65.4086 261.68 64.8247 261.066C64.3136 260.528 64 259.801 64 259C64 257.343 65.3431 256 67 256C68.6569 256 70 257.343 70 259C70 259.801 69.6864 260.528 69.1753 261.066C68.5914 261.68 68 262.396 68 263.244L68 270.756C68 271.604 68.5914 272.32 69.1753 272.934C69.6864 273.472 70 274.199 70 275C70 276.657 68.6569 278 67 278C66.1994 278 65.472 277.686 64.934 277.175C64.3195 276.591 63.604 276 62.7564 276L55.2437 276C54.396 276 53.6805 276.591 53.066 277.175C52.528 277.686 51.8006 278 51 278C49.3431 278 48 276.657 48 275C48 273.343 49.3431 272 51 272C51.8006 272 52.528 272.314 53.066 272.825C53.6805 273.409 54.396 274 55.2436 274L62.8336 274C63.6349 274 64.312 273.445 64.8787 272.879C65.4453 272.312 66 271.635 66 270.834L66 263.244Z" fill="#ABB2D0"/>
<path fill-rule="evenodd" clip-rule="evenodd" d="M68 23.2436C68 22.396 68.5914 21.6805 69.1753 21.066C69.6864 20.528 70 19.8006 70 19C70 17.3431 68.6569 16 67 16C65.3431 16 64 17.3431 64 19C64 19.8006 64.3136 20.528 64.8247 21.066C65.4086 21.6805 66 22.396 66 23.2436V30.7564C66 31.604 65.4086 32.3195 64.8247 32.934C64.3136 33.472 64 34.1994 64 35C64 36.6569 65.3431 38 67 38C68.6569 38 70 36.6569 70 35C70 34.1994 69.6864 33.472 69.1753 32.934C68.5914 32.3195 68 31.604 68 30.7564V23.2436Z" fill="#ABB2D0"/>
<path fill-rule="evenodd" clip-rule="evenodd" d="M68 183.244C68 182.396 68.5914 181.68 69.1753 181.066C69.6864 180.528 70 179.801 70 179C70 177.343 68.6569 176 67 176C65.3431 176 64 177.343 64 179C64 179.801 64.3136 180.528 64.8247 181.066C65.4086 181.68 66 182.396 66 183.244V190.756C66 191.604 65.4086 192.32 64.8247 192.934C64.3136 193.472 64 194.199 64 195C64 196.657 65.3431 198 67 198C68.6569 198 70 196.657 70 195C70 194.199 69.6864 193.472 69.1753 192.934C68.5914 192.32 68 191.604 68 190.756V183.244Z" fill="#ABB2D0"/>
<path fill-rule="evenodd" clip-rule="evenodd" d="M82 126.756C82 127.604 81.4086 128.32 80.8247 128.934C80.3136 129.472 80 130.199 80 131C80 132.657 81.3431 134 83 134C84.6569 134 86 132.657 86 131C86 130.199 85.6864 129.472 85.1753 128.934C84.5914 128.32 84 127.604 84 126.756L84 119.244C84 118.396 84.5914 117.68 85.1753 117.066C85.6864 116.528 86 115.801 86 115C86 113.343 84.6569 112 83 112C81.3431 112 80 113.343 80 115C80 115.801 80.3136 116.528 80.8247 117.066C81.4086 117.68 82 118.396 82 119.244L82 126.756Z" fill="#ABB2D0"/>
<path fill-rule="evenodd" clip-rule="evenodd" d="M82 286.756C82 287.604 81.4086 288.32 80.8247 288.934C80.3136 289.472 80 290.199 80 291C80 292.657 81.3431 294 83 294C84.6569 294 86 292.657 86 291C86 290.199 85.6864 289.472 85.1753 288.934C84.5914 288.32 84 287.604 84 286.756L84 279.244C84 278.396 84.5914 277.68 85.1753 277.066C85.6864 276.528 86 275.801 86 275C86 273.343 84.6569 272 83 272C81.3431 272 80 273.343 80 275C80 275.801 80.3136 276.528 80.8247 277.066C81.4086 277.68 82 278.396 82 279.244L82 286.756Z" fill="#ABB2D0"/>
<path fill-rule="evenodd" clip-rule="evenodd" d="M103.244 2C102.396 2 101.68 1.40857 101.066 0.824737C100.528 0.313631 99.8006 -1.66131e-07 99 -1.31134e-07C97.3431 -5.87108e-08 96 1.34315 96 3C96 4.65685 97.3431 6 99 6C99.8006 6 100.528 5.68637 101.066 5.17526C101.68 4.59143 102.396 4 103.244 4L110.756 4C111.604 4 112.32 4.59143 112.934 5.17526C113.472 5.68637 114.199 6 115 6C116.657 6 118 4.65685 118 3C118 1.34314 116.657 -9.0294e-07 115 -8.30516e-07C114.199 -7.9552e-07 113.472 0.31363 112.934 0.824736C112.32 1.40856 111.604 2 110.756 2L103.244 2Z" fill="#ABB2D0"/>
<path fill-rule="evenodd" clip-rule="evenodd" d="M103.244 162C102.396 162 101.68 161.409 101.066 160.825C100.528 160.314 99.8006 160 99 160C97.3431 160 96 161.343 96 163C96 164.657 97.3431 166 99 166C99.8006 166 100.528 165.686 101.066 165.175C101.68 164.591 102.396 164 103.244 164L110.756 164C111.604 164 112.32 164.591 112.934 165.175C113.472 165.686 114.199 166 115 166C116.657 166 118 164.657 118 163C118 161.343 116.657 160 115 160C114.199 160 113.472 160.314 112.934 160.825C112.32 161.409 111.604 162 110.756 162L103.244 162Z" fill="#ABB2D0"/>
<path fill-rule="evenodd" clip-rule="evenodd" d="M46.7564 148C47.604 148 48.3195 148.591 48.934 149.175C49.472 149.686 50.1994 150 51 150C52.6569 150 54 148.657 54 147C54 145.343 52.6569 144 51 144C50.1994 144 49.472 144.314 48.934 144.825C48.3195 145.409 47.604 146 46.7564 146L39.2436 146C38.396 146 37.6805 145.409 37.066 144.825C36.528 144.314 35.8006 144 35 144C33.3431 144 32 145.343 32 147C32 148.657 33.3431 150 35 150C35.8006 150 36.528 149.686 37.066 149.175C37.6805 148.591 38.396 148 39.2436 148L46.7564 148Z" fill="#ABB2D0"/>
<path fill-rule="evenodd" clip-rule="evenodd" d="M46.7564 308C47.604 308 48.3195 308.591 48.934 309.175C49.472 309.686 50.1994 310 51 310C52.6569 310 54 308.657 54 307C54 305.343 52.6569 304 51 304C50.1994 304 49.472 304.314 48.934 304.825C48.3195 305.409 47.604 306 46.7564 306L39.2436 306C38.396 306 37.6805 305.409 37.066 304.825C36.528 304.314 35.8006 304 35 304C33.3431 304 32 305.343 32 307C32 308.657 33.3431 310 35 310C35.8006 310 36.528 309.686 37.066 309.175C37.6805 308.591 38.396 308 39.2436 308L46.7564 308Z" fill="#ABB2D0"/>
<path fill-rule="evenodd" clip-rule="evenodd" d="M7.24365 36C6.39601 36 5.68049 36.5914 5.06598 37.1753C4.52801 37.6864 3.80063 38 3 38C1.34315 38 0 36.6569 0 35C0 33.3431 1.34315 32 3 32C3.80063 32 4.52801 32.3136 5.06598 32.8247C5.68049 33.4086 6.39601 34 7.24365 34H14.7564C15.604 34 16.3195 33.4086 16.934 32.8247C17.472 32.3136 18.1994 32 19 32C20.6569 32 22 33.3431 22 35C22 36.6569 20.6569 38 19 38C18.1994 38 17.472 37.6864 16.934 37.1753C16.3195 36.5914 15.604 36 14.7564 36H7.24365Z" fill="#ABB2D0"/>
<path fill-rule="evenodd" clip-rule="evenodd" d="M7.24365 196C6.39601 196 5.68049 196.591 5.06598 197.175C4.52801 197.686 3.80063 198 3 198C1.34315 198 0 196.657 0 195C0 193.343 1.34315 192 3 192C3.80063 192 4.52801 192.314 5.06598 192.825C5.68049 193.409 6.39601 194 7.24365 194H14.7564C15.604 194 16.3195 193.409 16.934 192.825C17.472 192.314 18.1994 192 19 192C20.6569 192 22 193.343 22 195C22 196.657 20.6569 198 19 198C18.1994 198 17.472 197.686 16.934 197.175C16.3195 196.591 15.604 196 14.7564 196H7.24365Z" fill="#ABB2D0"/>
<path fill-rule="evenodd" clip-rule="evenodd" d="M142.756 114C143.604 114 144.32 113.409 144.934 112.825C145.472 112.314 146.199 112 147 112C148.657 112 150 113.343 150 115C150 116.657 148.657 118 147 118C146.199 118 145.472 117.686 144.934 117.175C144.32 116.591 143.604 116 142.756 116L135.244 116C134.396 116 133.68 116.591 133.066 117.175C132.528 117.686 131.801 118 131 118C129.343 118 128 116.657 128 115C128 113.343 129.343 112 131 112C131.801 112 132.528 112.314 133.066 112.825C133.68 113.409 134.396 114 135.244 114L142.756 114Z" fill="#ABB2D0"/>
<path fill-rule="evenodd" clip-rule="evenodd" d="M142.756 274C143.604 274 144.32 273.409 144.934 272.825C145.472 272.314 146.199 272 147 272C148.657 272 150 273.343 150 275C150 276.657 148.657 278 147 278C146.199 278 145.472 277.686 144.934 277.175C144.32 276.591 143.604 276 142.756 276L135.244 276C134.396 276 133.68 276.591 133.066 277.175C132.528 277.686 131.801 278 131 278C129.343 278 128 276.657 128 275C128 273.343 129.343 272 131 272C131.801 272 132.528 272.314 133.066 272.825C133.68 273.409 134.396 274 135.244 274L142.756 274Z" fill="#ABB2D0"/>
<path fill-rule="evenodd" clip-rule="evenodd" d="M116 62.7564C116 63.604 116.591 64.3195 117.175 64.934C117.686 65.472 118 66.1994 118 67C118 68.6569 116.657 70 115 70C113.343 70 112 68.6569 112 67C112 66.1994 112.314 65.472 112.825 64.934C113.409 64.3195 114 63.604 114 62.7564L114 55.2436C114 54.396 113.409 53.6805 112.825 53.066C112.314 52.528 112 51.8006 112 51C112 49.3431 113.343 48 115 48C116.657 48 118 49.3431 118 51C118 51.8006 117.686 52.528 117.175 53.066C116.591 53.6805 116 54.396 116 55.2436L116 62.7564Z" fill="#ABB2D0"/>
<path fill-rule="evenodd" clip-rule="evenodd" d="M116 222.756C116 223.604 116.591 224.32 117.175 224.934C117.686 225.472 118 226.199 118 227C118 228.657 116.657 230 115 230C113.343 230 112 228.657 112 227C112 226.199 112.314 225.472 112.825 224.934C113.409 224.32 114 223.604 114 222.756L114 215.244C114 214.396 113.409 213.68 112.825 213.066C112.314 212.528 112 211.801 112 211C112 209.343 113.343 208 115 208C116.657 208 118 209.343 118 211C118 211.801 117.686 212.528 117.175 213.066C116.591 213.68 116 214.396 116 215.244L116 222.756Z" fill="#ABB2D0"/>
<path fill-rule="evenodd" clip-rule="evenodd" d="M34 87.2436C34 86.396 33.4086 85.6805 32.8247 85.066C32.3136 84.528 32 83.8006 32 83C32 81.3431 33.3431 80 35 80C36.6569 80 38 81.3431 38 83C38 83.8006 37.6864 84.528 37.1753 85.066C36.5914 85.6805 36 86.396 36 87.2436L36 94.7564C36 95.604 36.5914 96.3195 37.1753 96.934C37.6864 97.472 38 98.1994 38 99C38 100.657 36.6569 102 35 102C33.3431 102 32 100.657 32 99C32 98.1994 32.3136 97.472 32.8247 96.934C33.4086 96.3195 34 95.604 34 94.7564L34 87.2436Z" fill="#ABB2D0"/>
<path fill-rule="evenodd" clip-rule="evenodd" d="M34 247.244C34 246.396 33.4086 245.68 32.8247 245.066C32.3136 244.528 32 243.801 32 243C32 241.343 33.3431 240 35 240C36.6569 240 38 241.343 38 243C38 243.801 37.6864 244.528 37.1753 245.066C36.5914 245.68 36 246.396 36 247.244L36 254.756C36 255.604 36.5914 256.32 37.1753 256.934C37.6864 257.472 38 258.199 38 259C38 260.657 36.6569 262 35 262C33.3431 262 32 260.657 32 259C32 258.199 32.3136 257.472 32.8247 256.934C33.4086 256.32 34 255.604 34 254.756L34 247.244Z" fill="#ABB2D0"/>
<path fill-rule="evenodd" clip-rule="evenodd" d="M22 51C22 51.8006 21.6864 52.528 21.1753 53.066C20.5914 53.6805 20 54.396 20 55.2436L20 62.8336C20 63.6349 20.5547 64.312 21.1213 64.8787C21.688 65.4453 22.3651 66 23.1664 66H30.7564C31.604 66 32.3195 65.4086 32.934 64.8247C33.472 64.3136 34.1994 64 35 64C36.6569 64 38 65.3431 38 67C38 68.6569 36.6569 70 35 70C34.1994 70 33.472 69.6864 32.934 69.1753C32.3195 68.5914 31.604 68 30.7564 68H23.2436C22.396 68 21.6805 68.5914 21.066 69.1753C20.528 69.6864 19.8006 70 19 70C17.3431 70 16 68.6569 16 67C16 66.1994 16.3136 65.472 16.8247 64.934C17.4086 64.3195 18 63.604 18 62.7564L18 55.2436C18 54.396 17.4086 53.6805 16.8247 53.066C16.3136 52.528 16 51.8006 16 51C16 49.3431 17.3431 48 19 48C20.6569 48 22 49.3431 22 51Z" fill="#ABB2D0"/>
<path fill-rule="evenodd" clip-rule="evenodd" d="M22 211C22 211.801 21.6864 212.528 21.1753 213.066C20.5914 213.68 20 214.396 20 215.244L20 222.834C20 223.635 20.5547 224.312 21.1213 224.879C21.688 225.445 22.3651 226 23.1664 226H30.7564C31.604 226 32.3195 225.409 32.934 224.825C33.472 224.314 34.1994 224 35 224C36.6569 224 38 225.343 38 227C38 228.657 36.6569 230 35 230C34.1994 230 33.472 229.686 32.934 229.175C32.3195 228.591 31.604 228 30.7564 228H23.2436C22.396 228 21.6805 228.591 21.066 229.175C20.528 229.686 19.8006 230 19 230C17.3431 230 16 228.657 16 227C16 226.199 16.3136 225.472 16.8247 224.934C17.4086 224.32 18 223.604 18 222.756L18 215.244C18 214.396 17.4086 213.68 16.8247 213.066C16.3136 212.528 16 211.801 16 211C16 209.343 17.3431 208 19 208C20.6569 208 22 209.343 22 211Z" fill="#ABB2D0"/>
<path fill-rule="evenodd" clip-rule="evenodd" d="M128 99C128 98.1994 128.314 97.472 128.825 96.934C129.409 96.3195 130 95.604 130 94.7564L130 87.1664C130 86.3651 129.445 85.688 128.879 85.1213C128.312 84.5547 127.635 84 126.834 84L119.244 84C118.396 84 117.68 84.5914 117.066 85.1753C116.528 85.6864 115.801 86 115 86C113.343 86 112 84.6569 112 83C112 81.3431 113.343 80 115 80C115.801 80 116.528 80.3136 117.066 80.8247C117.68 81.4086 118.396 82 119.244 82L126.756 82C127.604 82 128.32 81.4086 128.934 80.8247C129.472 80.3136 130.199 80 131 80C132.657 80 134 81.3431 134 83C134 83.8006 133.686 84.528 133.175 85.066C132.591 85.6805 132 86.396 132 87.2436L132 94.7564C132 95.604 132.591 96.3195 133.175 96.934C133.686 97.472 134 98.1994 134 99C134 100.657 132.657 102 131 102C129.343 102 128 100.657 128 99Z" fill="#ABB2D0"/>
<path fill-rule="evenodd" clip-rule="evenodd" d="M128 259C128 258.199 128.314 257.472 128.825 256.934C129.409 256.32 130 255.604 130 254.756L130 247.166C130 246.365 129.445 245.688 128.879 245.121C128.312 244.555 127.635 244 126.834 244L119.244 244C118.396 244 117.68 244.591 117.066 245.175C116.528 245.686 115.801 246 115 246C113.343 246 112 244.657 112 243C112 241.343 113.343 240 115 240C115.801 240 116.528 240.314 117.066 240.825C117.68 241.409 118.396 242 119.244 242L126.756 242C127.604 242 128.32 241.409 128.934 240.825C129.472 240.314 130.199 240 131 240C132.657 240 134 241.343 134 243C134 243.801 133.686 244.528 133.175 245.066C132.591 245.68 132 246.396 132 247.244L132 254.756C132 255.604 132.591 256.32 133.175 256.934C133.686 257.472 134 258.199 134 259C134 260.657 132.657 262 131 262C129.343 262 128 260.657 128 259Z" fill="#ABB2D0"/>
<path fill-rule="evenodd" clip-rule="evenodd" d="M131 48C131.801 48 132.528 48.3136 133.066 48.8247C133.68 49.4086 134.396 50 135.244 50L142.834 50C143.635 50 144.312 49.4453 144.879 48.8787C145.445 48.312 146 47.6349 146 46.8336L146 39.2436C146 38.396 145.409 37.6805 144.825 37.066C144.314 36.528 144 35.8006 144 35C144 33.3431 145.343 32 147 32C148.657 32 150 33.3431 150 35C150 35.8006 149.686 36.528 149.175 37.066C148.591 37.6805 148 38.396 148 39.2436L148 46.7564C148 47.604 148.591 48.3195 149.175 48.934C149.686 49.472 150 50.1994 150 51C150 52.6569 148.657 54 147 54C146.199 54 145.472 53.6864 144.934 53.1753C144.32 52.5914 143.604 52 142.756 52L135.244 52C134.396 52 133.68 52.5914 133.066 53.1753C132.528 53.6864 131.801 54 131 54C129.343 54 128 52.6569 128 51C128 49.3431 129.343 48 131 48Z" fill="#ABB2D0"/>
<path fill-rule="evenodd" clip-rule="evenodd" d="M131 208C131.801 208 132.528 208.314 133.066 208.825C133.68 209.409 134.396 210 135.244 210L142.834 210C143.635 210 144.312 209.445 144.879 208.879C145.445 208.312 146 207.635 146 206.834L146 199.244C146 198.396 145.409 197.68 144.825 197.066C144.314 196.528 144 195.801 144 195C144 193.343 145.343 192 147 192C148.657 192 150 193.343 150 195C150 195.801 149.686 196.528 149.175 197.066C148.591 197.68 148 198.396 148 199.244L148 206.756C148 207.604 148.591 208.32 149.175 208.934C149.686 209.472 150 210.199 150 211C150 212.657 148.657 214 147 214C146.199 214 145.472 213.686 144.934 213.175C144.32 212.591 143.604 212 142.756 212L135.244 212C134.396 212 133.68 212.591 133.066 213.175C132.528 213.686 131.801 214 131 214C129.343 214 128 212.657 128 211C128 209.343 129.343 208 131 208Z" fill="#ABB2D0"/>
<path fill-rule="evenodd" clip-rule="evenodd" d="M19 102C18.1994 102 17.472 101.686 16.934 101.175C16.3195 100.591 15.604 100 14.7564 100L7.1664 100C6.36506 100 5.68795 100.555 5.12132 101.121C4.55469 101.688 4 102.365 4 103.166L4 110.756C4 111.604 4.59144 112.32 5.17526 112.934C5.68637 113.472 6 114.199 6 115C6 116.657 4.65686 118 3 118C1.34315 118 2.70882e-06 116.657 2.49155e-06 115C2.38656e-06 114.199 0.313633 113.472 0.82474 112.934C1.40857 112.32 2 111.604 2 110.756L2 103.244C2 102.396 1.40857 101.68 0.824738 101.066C0.313632 100.528 4.98393e-07 99.8006 3.93403e-07 99C1.76132e-07 97.3431 1.34315 96 3 96C3.80063 96 4.52801 96.3136 5.06598 96.8247C5.68049 97.4086 6.39601 98 7.24365 98L14.7564 98C15.604 98 16.3195 97.4086 16.934 96.8247C17.472 96.3136 18.1994 96 19 96C20.6569 96 22 97.3431 22 99C22 100.657 20.6569 102 19 102Z" fill="#ABB2D0"/>
<path fill-rule="evenodd" clip-rule="evenodd" d="M19 262C18.1994 262 17.472 261.686 16.934 261.175C16.3195 260.591 15.604 260 14.7564 260L7.1664 260C6.36506 260 5.68795 260.555 5.12132 261.121C4.55469 261.688 4 262.365 4 263.166L4 270.756C4 271.604 4.59144 272.32 5.17526 272.934C5.68637 273.472 6 274.199 6 275C6 276.657 4.65686 278 3 278C1.34315 278 2.70882e-06 276.657 2.49155e-06 275C2.38656e-06 274.199 0.313633 273.472 0.82474 272.934C1.40857 272.32 2 271.604 2 270.756L2 263.244C2 262.396 1.40857 261.68 0.824738 261.066C0.313632 260.528 4.98393e-07 259.801 3.93403e-07 259C1.76132e-07 257.343 1.34315 256 3 256C3.80063 256 4.52801 256.314 5.06598 256.825C5.68049 257.409 6.39601 258 7.24365 258L14.7564 258C15.604 258 16.3195 257.409 16.934 256.825C17.472 256.314 18.1994 256 19 256C20.6569 256 22 257.343 22 259C22 260.657 20.6569 262 19 262Z" fill="#ABB2D0"/>
</g>
</svg>
