<svg width="72" height="72" viewBox="0 0 72 72" fill="none" xmlns="http://www.w3.org/2000/svg">
<path fill-rule="evenodd" clip-rule="evenodd" d="M31.7275 2.75142C29.4154 3.70216 27.5234 4.5371 27.5234 4.60656C27.5234 4.77335 28.8912 8.15113 29.0064 8.26898C29.0555 8.31915 30.1348 7.93456 31.4047 7.41448C32.6746 6.89427 33.7667 6.46866 33.8315 6.46866C33.8964 6.46866 33.9492 12.0367 33.9492 18.8983V31.3278L34.9183 31.8866C35.4512 32.1938 35.9588 32.444 36.0462 32.4425C36.1336 32.4411 36.605 32.2071 37.0938 31.9224L37.9824 31.4051L38.0173 19.0052C38.0366 12.1853 38.0878 6.60538 38.1313 6.60538C38.1748 6.60538 43.7424 9.16681 50.5037 12.2974L62.7969 17.9894V30.1538C62.7969 41.2753 62.8157 42.311 63.0169 42.2339C63.1377 42.1874 64.0606 41.6844 65.0676 41.1161L66.8984 40.0826V27.6781V15.2738L55.9951 10.2293C49.9982 7.45468 43.0656 4.24316 40.5892 3.09226C38.1129 1.9415 36.0518 1.00497 36.0092 1.01126C35.9665 1.01755 34.0397 1.80054 31.7275 2.75142ZM20.4191 7.70241C18.8052 8.36072 17.3965 8.95503 17.2888 9.02298C17.1265 9.12525 17.2162 9.45132 17.8097 10.9179C18.204 11.8923 18.5725 12.738 18.6284 12.7976C18.7066 12.8808 24.7033 10.5559 24.9006 10.366C24.9356 10.3322 23.4437 6.57462 23.374 6.5213C23.3628 6.51255 22.0331 7.04411 20.4191 7.70241ZM9.81836 12.0767C8.38965 12.6674 6.99143 13.2413 6.71115 13.3522L6.20146 13.5536L6.97557 15.4458C7.40131 16.4863 7.76197 17.3564 7.77701 17.379C7.80449 17.4204 13.4493 15.1541 13.8723 14.9318C14.0722 14.827 14.0091 14.5925 13.3255 12.8996C12.9004 11.8472 12.522 10.9898 12.4844 10.9943C12.4468 10.999 11.2471 11.486 9.81836 12.0767ZM5.23828 24.5155V27.9335H7.28906H9.33984V24.5155V21.0976H7.28906H5.23828V24.5155ZM44.2362 29.1973L44.2715 37.297L48.6465 39.8498C51.0527 41.2539 53.0676 42.4078 53.124 42.4142C53.1805 42.4205 53.2266 38.6261 53.2266 33.9824V25.539L48.7827 23.3183C46.3385 22.0969 44.3077 21.0976 44.2698 21.0976C44.232 21.0976 44.2168 24.7425 44.2362 29.1973ZM5.10594 36.1708L5.11031 39.623L7.03449 40.7167C8.09283 41.3183 9.01377 41.831 9.0809 41.856C9.15117 41.8822 9.20312 39.9504 9.20312 37.3101V32.7187H7.15234H5.10156L5.10594 36.1708ZM27.4551 42.3039C22.793 45.0072 18.9063 47.2634 18.818 47.3175C18.6601 47.4143 35.748 57.3789 36.054 57.3685C36.3095 57.3598 53.3954 47.6876 53.4029 47.5475C53.4094 47.4286 36.1682 37.3525 36.0019 37.3779C35.9632 37.3838 32.1172 39.6004 27.4551 42.3039ZM5.10512 49.3495L5.10867 54.3886L18.7338 62.2499C26.2276 66.5737 32.7175 70.3152 33.1557 70.5645L33.9525 71.0177L33.9167 65.9374L33.8809 60.857L28.1387 57.5428C24.9805 55.7201 18.5912 52.0302 13.9403 49.343C9.28939 46.6559 5.39811 44.4243 5.29283 44.3839C5.13109 44.3219 5.10211 45.0868 5.10512 49.3495ZM52.4374 52.8416L38.0508 60.9335V65.9746V71.0158L38.848 70.5635C39.2866 70.3148 45.7762 66.5737 53.2694 62.2499L66.8935 54.3886L66.896 49.5693C66.8973 46.9187 66.8816 44.7499 66.8612 44.7499C66.8407 44.7499 60.35 48.3912 52.4374 52.8416Z" fill="#0074FF"/>
</svg>
