<svg width="72" height="72" viewBox="0 0 72 72" fill="none" xmlns="http://www.w3.org/2000/svg">
<path fill-rule="evenodd" clip-rule="evenodd" d="M66.1253 3.01148L63.9594 3.63806L66.3263 6.00795C67.8322 7.51568 68.7256 8.31644 68.782 8.20925C68.9595 7.87279 70.0001 3.98957 70.0001 3.66349C70.0001 3.16173 69.3396 2.5048 68.7696 2.43972C68.4669 2.40513 67.4951 2.61527 66.1253 3.01148ZM19.8926 3.04088C19.5279 3.21259 16.6287 6.00029 11.1871 11.4119C3.38534 19.1704 3.02194 19.554 2.87784 20.181C2.55751 21.5761 2.29022 21.2466 10.0496 29.0187L17.0705 36.0512L26.548 26.6384C31.7606 21.4614 36.0424 17.1582 36.0632 17.0759C36.084 16.9936 32.977 13.8102 29.1589 10.0016C23.2518 4.10947 22.1354 3.05482 21.67 2.92795C20.9057 2.71945 20.5233 2.74379 19.8926 3.04088ZM56.1231 5.8581C54.2432 6.39746 52.7151 6.8839 52.7273 6.93927C52.7582 7.07873 65.6251 19.7757 65.6251 19.6667C65.6251 19.6182 66.0587 18.0321 66.5889 16.142L67.5527 12.7055L64.8458 9.9881C63.3569 8.49349 61.5543 6.73215 60.8399 6.07412L59.5411 4.87756L56.1231 5.8581ZM29.608 29.181L9.68056 49.0463L16.5818 55.9215C20.3776 59.703 23.5593 62.7968 23.6524 62.7968C23.7862 62.7968 63.2735 23.5475 63.4035 23.2852C63.4224 23.2471 60.3098 20.0885 56.4866 16.2658L49.5356 9.31572L29.608 29.181ZM21.4998 16.4483C22.4289 16.796 23.3161 17.6475 23.7668 18.6245C24.7055 20.6587 23.7395 23.2248 21.701 24.1121C20.63 24.5782 19.1608 24.5545 18.1388 24.0546C16.169 23.0908 15.2614 20.659 16.1285 18.6681C16.5079 17.7972 17.6514 16.7002 18.4889 16.4038C19.3358 16.1041 20.6309 16.1234 21.4998 16.4483ZM46.1913 46.0913L36.687 55.6191L38.2415 57.1166L39.7959 58.6142L43.106 55.3195C44.9265 53.5075 46.5505 51.9569 46.7147 51.8738C47.1366 51.6603 48.0682 51.6862 48.5288 51.9244C49.3848 52.367 49.7295 53.574 49.2739 54.5339C49.1539 54.787 47.5919 56.4345 45.8027 58.195L42.5499 61.3961L44.0306 62.8722L45.5111 64.3482L47.9461 62.0108C49.2853 60.7253 50.7808 59.2641 51.2696 58.7639C52.2715 57.7386 52.7051 57.4648 53.3271 57.4648C54.6394 57.4648 55.6707 58.8313 55.237 59.9955C55.1514 60.2251 53.6053 61.887 51.7095 63.7869L48.3344 67.1696L49.4222 68.2639C50.6734 69.5224 51.1495 69.7506 52.0049 69.5014C52.4876 69.3607 53.7882 68.1191 61.0794 60.8387C67.1584 54.7687 69.6334 52.2104 69.7404 51.8858C70.0912 50.8227 70.0605 50.782 65.2379 45.9354C62.7813 43.4667 59.6294 40.3481 58.2335 39.0053L55.6954 36.5635L46.1913 46.0913ZM5.10978 53.5341C4.20019 54.4553 3.35513 55.3611 3.23194 55.547C2.95577 55.9636 2.9421 56.8073 3.20337 57.3007C3.52903 57.9151 15.0576 69.2983 15.5495 69.491C16.4781 69.8545 16.8517 69.6421 18.9356 67.5653L20.8497 65.6578L13.877 58.7648C10.042 54.9736 6.87263 51.869 6.83394 51.8656C6.79524 51.8622 6.01937 52.6129 5.10978 53.5341Z" fill="#0074FF"/>
</svg>
