<svg width="72" height="72" viewBox="0 0 72 72" fill="none" xmlns="http://www.w3.org/2000/svg">
<path fill-rule="evenodd" clip-rule="evenodd" d="M1 9.20312V17.4062H36H71V9.20312V1H36H1V9.20312ZM15.3555 9.20312V11.2539H13.3047H11.2539V9.20312V7.15234H13.3047H15.3555V9.20312ZM23.6953 9.20312V11.2539H21.6445H19.5938V9.20312V7.15234H21.6445H23.6953V9.20312ZM31.8984 9.20312V11.2539H29.8477H27.7969V9.20312V7.15234H29.8477H31.8984V9.20312ZM19.5938 23.2845V24.9246L22.4636 26.3606L25.3335 27.7969H36H46.6665L49.5364 26.3606L52.4062 24.9246V23.2845V21.6445H36H19.5938V23.2845ZM29.8477 37.5725V43.2468L32.8896 47.8226C34.5628 50.3395 35.9624 52.3986 36 52.3986C36.0376 52.3986 37.4372 50.3395 39.1104 47.8226L42.1523 43.2468V37.5725V31.8984H36H29.8477V37.5725ZM9.26766 46.2616C8.14738 48.5062 7.26746 50.3794 7.31244 50.4244C7.35729 50.4692 11.6914 52.3486 16.9439 54.6007L26.4937 58.6953L35.9978 58.6956L45.502 58.6957L55.1064 54.5788C60.3888 52.3145 64.7077 50.3918 64.7036 50.3061C64.6995 50.2205 63.7921 48.3584 62.687 46.168L60.6777 42.1858L51.7634 45.9028L42.8492 49.6199L39.4822 54.0551C37.6304 56.4944 36.0634 58.4902 36 58.4902C35.9366 58.4902 34.3672 56.4913 32.5124 54.048L29.1401 49.6058L20.3679 45.9493C15.5432 43.9382 11.5302 42.2675 11.4501 42.2366C11.3701 42.2057 10.3879 44.0169 9.26766 46.2616ZM5.10156 66.8984V71H36H66.8984V66.8984V62.7969H36H5.10156V66.8984Z" fill="#0074FF"/>
</svg>
