<svg width="72" height="72" viewBox="0 0 72 72" fill="none" xmlns="http://www.w3.org/2000/svg">
<path fill-rule="evenodd" clip-rule="evenodd" d="M31.1396 1.18967C30.6568 1.40309 30.0143 2.11772 29.9176 2.54865C29.881 2.71203 29.6778 3.55326 29.466 4.41801L29.081 5.99027L28.2681 6.23377C25.1226 7.17604 23.0197 8.03313 20.9229 9.22791L19.7229 9.91164L18.3095 9.07506C16.3149 7.89463 15.9082 7.75026 15.1831 7.966C14.703 8.10887 14.069 8.66928 11.4908 11.23C8.16893 14.5293 7.74742 15.0864 7.91121 15.9598C7.96125 16.2267 8.33969 17.0151 8.75217 17.7119C10.0462 19.8976 9.99672 19.5651 9.2311 20.9316C8.02756 23.0796 7.01092 25.523 6.40594 27.7221C6.22301 28.3867 6.02395 28.9763 5.96352 29.0322C5.90295 29.0881 5.05871 29.3209 4.08746 29.5495C2.29426 29.9716 1.85471 30.1816 1.35022 30.8574C1.07815 31.2219 1.0683 31.4005 1.0683 36C1.0683 40.6209 1.07692 40.7769 1.35432 41.1512C1.84733 41.8166 2.39174 42.0719 4.19752 42.4842C5.6399 42.8137 5.96858 42.9347 6.0558 43.1678C6.11404 43.3237 6.43985 44.3125 6.77959 45.3653C7.42449 47.3626 8.15731 49.1252 8.34283 49.1248C8.40244 49.1246 10.5755 46.956 13.1719 44.3054L17.8928 39.4864L17.7116 37.7774C16.9978 31.0392 20.1497 24.3881 25.8221 20.6627C31.0921 17.2016 37.4639 16.6202 43.336 19.0647C46.7455 20.4841 49.9716 23.3534 51.9241 26.7029C54.4936 31.1111 55.1035 36.6819 53.5579 41.6241C52.1461 46.1379 48.6786 50.228 44.4537 52.363C41.3544 53.9291 37.4069 54.6641 33.9872 54.3115L32.412 54.149L27.6142 58.9468L22.8164 63.7445L23.7683 64.1761C24.5417 64.5268 26.956 65.3678 28.7496 65.9111C29.0539 66.0034 29.1313 66.1952 29.5356 67.8573C29.9924 69.7359 30.1887 70.1506 30.8573 70.6498C31.2218 70.9218 31.4004 70.9317 35.9999 70.9317C40.5994 70.9317 40.7781 70.9218 41.1426 70.6498C41.8248 70.1405 42.0404 69.6863 42.4778 67.8369L42.91 66.0098L43.7274 65.7663C46.8402 64.8389 48.9777 63.9683 51.0741 62.7738L52.2712 62.0917L53.9452 63.052C54.8659 63.5802 55.7909 64.0538 56.0009 64.1045C56.8541 64.3105 57.3795 63.9162 60.7027 60.5756C64.8244 56.4327 64.7269 56.7351 62.9249 53.6905L62.0883 52.2771L62.7721 51.0771C63.9684 48.9775 64.8401 46.8376 65.7662 43.727L66.0097 42.909L67.8456 42.4709C69.7081 42.0263 70.1441 41.8199 70.6497 41.1427C70.9217 40.7782 70.9316 40.5995 70.9316 36C70.9316 31.4005 70.9217 31.2219 70.6497 30.8574C70.1441 30.1802 69.7081 29.9738 67.8456 29.5291L66.0097 29.0911L65.7662 28.2731C64.8401 25.1625 63.9684 23.0226 62.7721 20.923L62.0883 19.723L62.9249 18.3096C64.7269 15.265 64.8244 15.5674 60.7027 11.4244C57.3795 8.08385 56.8541 7.68955 56.0009 7.89559C55.7909 7.94631 54.8659 8.4199 53.9452 8.94805L52.2712 9.90836L51.0741 9.22627C48.9777 8.03176 46.8402 7.16113 43.7274 6.23377L42.91 5.99027L42.4778 4.16316C42.0404 2.31404 41.8248 1.85986 41.1429 1.35031C40.7813 1.08029 40.5722 1.06703 36.161 1.03682C32.5411 1.01207 31.4674 1.04475 31.1396 1.18967ZM34.291 21.7382C25.5277 22.8627 19.7945 31.4775 22.2165 39.8819L22.488 40.8244L12.2459 51.0928C2.68008 60.6832 1.97885 61.4182 1.62776 62.223C0.549866 64.6927 1.01047 67.3371 2.83676 69.1632C4.66291 70.9895 7.30733 71.4501 9.77701 70.3722C10.5817 70.0211 11.3169 69.3198 20.9115 59.7497L31.1844 49.5031L31.849 49.7129C33.3743 50.1943 34.0609 50.2869 36.0683 50.2821C37.8573 50.2777 38.311 50.2281 39.623 49.8933C42.8643 49.0661 45.3758 47.452 47.2557 44.9877C49.3971 42.1805 50.4875 38.7127 50.3043 35.2914C50.1487 32.3842 49.6255 31.1364 48.4353 30.8344C47.3629 30.5622 47.1189 30.7245 44.0663 33.7398C42.5248 35.2624 41.079 36.6023 40.8535 36.7171C39.7196 37.2942 38.1762 37.3023 37.0527 36.737C35.0015 35.7049 34.2159 32.9606 35.4155 31.0171C35.6036 30.7123 36.9444 29.2632 38.395 27.7969C41.2698 24.891 41.4374 24.6352 41.1656 23.5647C40.9714 22.7997 40.3163 22.2554 39.3474 22.0543C37.5317 21.6774 35.6713 21.561 34.291 21.7382Z" fill="#0074FF"/>
</svg>
