<svg width="72" height="72" viewBox="0 0 72 72" fill="none" xmlns="http://www.w3.org/2000/svg">
<path fill-rule="evenodd" clip-rule="evenodd" d="M32.4453 1.22345C28.9904 1.64304 26.7153 2.10433 24.3105 2.87255C14.3462 6.05578 6.60191 12.7709 2.05383 22.1708L1.10473 24.1327L1.67553 25.4696C4.65299 32.4426 10.6138 38.8073 17.7537 42.6371C27.466 47.8467 39.1116 48.774 49.125 45.1349C52.864 43.7761 56.3436 41.8013 59.5156 39.238C61.1243 37.938 63.8216 35.2625 65.1921 33.6075C67.0427 31.3727 69.2376 27.8511 70.3852 25.2754L70.9029 24.1136L69.7976 21.8814C66.1813 14.5794 60.5261 8.80027 53.5366 5.26459C49.7062 3.32701 46.3538 2.23886 42.0156 1.52505C40.6547 1.30097 39.555 1.23576 36.6152 1.20459C34.585 1.18298 32.7085 1.19146 32.4453 1.22345ZM38.0508 10.4336C38.0508 11.9798 38.0664 12.0743 38.3226 12.0743C38.472 12.0743 39.1642 12.2573 39.8607 12.4811C43.7982 13.7465 47.0106 17.2015 47.9677 21.2002L48.2049 22.1915H49.8271H51.4492V24.2422V26.293H49.8112H48.1732L48.0907 26.669C47.078 31.2846 43.5991 34.9532 39.1366 36.1115L38.1191 36.3755L38.0807 38.0335L38.0423 39.6915H36H33.9577L33.9193 38.0335L33.8809 36.3755L32.8555 36.1126C30.4994 35.5085 27.9307 33.8328 26.3827 31.8897C25.237 30.4516 24.3099 28.495 23.9093 26.669L23.8268 26.293H22.1888H20.5508V24.2422V22.1915H22.173H23.7951L24.0323 21.2002C24.9894 17.2015 28.2018 13.7465 32.1393 12.4811C32.8358 12.2573 33.528 12.0743 33.6774 12.0743C33.9336 12.0743 33.9492 11.9798 33.9492 10.4336V8.79302H36H38.0508V10.4336ZM33.9052 16.2546C31.8578 16.7505 29.7757 18.3442 28.834 20.1363C27.8714 21.9683 27.5471 24.2958 28.004 26.0934C29.0879 30.3573 33.3107 33.0908 37.5136 32.2493C40.6967 31.6119 43.1967 29.2378 43.996 26.0934C44.4402 24.3461 44.1596 22.1735 43.2524 20.3325C42.2761 18.3519 40.2625 16.774 38.0435 16.2509C36.958 15.9951 34.9698 15.9969 33.9052 16.2546ZM38.0508 24.2422V26.293H36H33.9492V24.2422V22.1915H36H38.0508V24.2422ZM17.4062 55.004V62.6602H15.3555H13.3047V60.6094V58.5586H7.15234H1V64.711V70.8633H7.14865H13.2974L13.3352 68.8467L13.373 66.8301L17.5088 66.7939L21.6445 66.7578V57.8884V49.0191L20.5166 48.5711C19.8963 48.3247 19.0366 47.9486 18.6065 47.7354C17.2844 47.0801 17.4062 46.342 17.4062 55.004ZM53.6367 47.6199C53.3735 47.7635 52.5275 48.1367 51.7568 48.4497L50.3555 49.0184V57.888V66.7578L54.4912 66.7939L58.627 66.8301L58.6648 68.8467L58.7026 70.8633H64.8513H71V64.711V58.5586H64.8477H58.6953V60.6094V62.6602H56.6445H54.5938V55.004C54.5938 46.4418 54.6732 47.055 53.6367 47.6199ZM33.9492 55.0381V58.5586H31.8984H29.8477V64.711V70.8633H36H42.1523V64.711V58.5586H40.1016H38.0508V55.0381V51.5176H36H33.9492V55.0381Z" fill="#0074FF"/>
</svg>
