<svg width="72" height="72" viewBox="0 0 72 72" fill="none" xmlns="http://www.w3.org/2000/svg">
<path fill-rule="evenodd" clip-rule="evenodd" d="M19.3257 1.24346C18.2816 1.57631 16.9268 2.47474 16.3724 3.2019C15.8144 3.93367 15.1351 5.39571 15.1331 5.86942C15.1315 6.22939 15.1771 6.23925 16.8433 6.23925H18.5554L18.9228 5.64457C19.5525 4.62549 20.9613 4.18498 22.0869 4.6554C22.6081 4.87319 23.5117 5.78149 23.5117 6.08754C23.5117 6.1735 22.4515 6.23925 21.0662 6.23925C18.6688 6.23925 18.6185 6.24648 18.5214 6.60907C18.467 6.8124 18.4213 8.3632 18.4201 10.0552L18.4178 13.1315L20.1843 13.1782L21.9507 13.2249V14.9507V16.6766L16.7336 16.72L11.5164 16.7634V14.953V13.1427H13.2418H14.9671V9.69096V6.23925H7.98357H1V30.73V55.2207H36H71V30.73V6.23925H68.3826H65.7651L65.5135 5.37632C65.0107 3.65145 63.746 2.22096 62.0315 1.43873C60.8784 0.912429 58.4633 0.919004 57.2848 1.45155C55.5735 2.22457 54.3144 3.64701 53.8104 5.37632L53.5588 6.23925H50.0325C47.3523 6.23925 46.492 6.18994 46.4473 6.03379C45.9305 4.23084 45.1361 2.99398 43.9494 2.14387C41.4155 0.328925 37.9897 0.707792 35.8602 3.03852C35.1087 3.86102 34.3568 5.34164 34.3568 5.99894C34.3568 6.20259 33.8044 6.23925 30.7418 6.23925C27.6792 6.23925 27.1268 6.20259 27.1268 5.99894C27.1268 5.34164 26.3748 3.86102 25.6234 3.03852C24.4577 1.7627 23.0732 1.10507 21.406 1.03554C20.5732 1.00086 19.8648 1.0717 19.3257 1.24346ZM41.4214 4.6965C42.0465 4.94666 42.7371 5.66182 42.7371 6.0591C42.7371 6.18139 41.972 6.23925 40.3545 6.23925C39.0075 6.23925 37.9718 6.17334 37.9718 6.08754C37.9718 5.79463 38.8644 4.87845 39.3603 4.66247C40.0345 4.36875 40.6269 4.37844 41.4214 4.6965ZM60.7463 4.74433C61.317 5.0037 62.1268 5.8206 62.1268 6.13701C62.1268 6.18862 60.999 6.25108 59.6209 6.27607L57.115 6.32143L57.0707 9.73205L57.0261 13.1427H58.7549H60.4836V14.953V16.7634L55.2664 16.72L50.0493 16.6766V14.9507V13.2249L51.8157 13.1782L53.5822 13.1315V9.68538V6.23925L55.3486 6.23728L57.115 6.23514L57.4943 5.64966C57.8949 5.03115 58.9557 4.43844 59.662 4.43844C59.8879 4.43844 60.3759 4.57618 60.7463 4.74433ZM37.8075 9.69096V13.1427H39.5329H41.2582V14.9507V16.7588H36H30.7418V14.9507V13.1427H32.4671H34.1925V9.95099C34.1925 8.19555 34.2373 6.64228 34.2922 6.49928C34.3744 6.28527 34.694 6.23925 36.0997 6.23925H37.8075V9.69096ZM38.8531 29.3329C42.792 31.9545 46.0167 34.1546 46.019 34.222C46.0215 34.2892 42.5851 36.638 38.3826 39.4415L30.7418 44.5387V34.2486V23.9587L31.2167 24.2625C31.4779 24.4295 34.9143 26.7112 38.8531 29.3329ZM34.1925 34.2736C34.1925 37.1954 34.236 37.9557 34.3979 37.8596C34.8406 37.5968 39.5412 34.461 39.6743 34.3398C39.7915 34.2332 34.5477 30.5656 34.2783 30.5656C34.2311 30.5656 34.1925 32.2343 34.1925 34.2736ZM16.7746 58.7546V60.4805H21.1291H25.4836V65.7402V71H36H46.5164V65.7402V60.4805H50.8709H55.2254V58.7546V57.0288H36H16.7746V58.7546Z" fill="#0074FF"/>
</svg>
