<svg width="72" height="72" viewBox="0 0 72 72" fill="none" xmlns="http://www.w3.org/2000/svg">
<path fill-rule="evenodd" clip-rule="evenodd" d="M12.0982 1.92933C9.82787 2.26142 7.26954 3.38536 5.5655 4.79937C3.71463 6.33503 2.14424 8.68471 1.44473 10.9651C0.501528 14.04 0.798868 17.8453 2.21545 20.8296C2.84649 22.1589 12.5648 38.6496 12.9843 39.1026C13.1797 39.3138 13.4265 39.4105 13.7703 39.4105C14.1152 39.4105 14.3588 39.3146 14.552 39.1026C14.9058 38.7143 24.7032 22.3854 25.3406 21.1215C26.4261 18.9688 26.8897 16.6634 26.7646 14.0404C26.671 12.082 26.3581 10.8529 25.5074 9.10232C23.069 4.08457 17.5494 1.13188 12.0982 1.92933ZM15.3988 8.54856C18.0271 9.24613 19.965 11.4071 20.3758 14.0984C20.6771 16.0724 19.9772 18.1487 18.5041 19.6505C17.1709 21.0098 15.6893 21.6325 13.779 21.6368C11.9732 21.6407 10.5411 21.0911 9.25706 19.9009C6.42596 17.2772 6.32895 13.0353 9.03821 10.3352C10.3873 8.99052 11.8417 8.37465 13.7017 8.36041C14.2299 8.35631 14.9936 8.44101 15.3988 8.54856ZM12.7412 12.7779C11.464 13.3697 10.9617 14.8175 11.5867 16.1049C11.9204 16.7925 12.3776 17.154 13.1883 17.3717C14.0286 17.5974 14.7885 17.359 15.5043 16.6453C16.2419 15.9097 16.4127 15.0724 16.0182 14.1279C15.6325 13.2047 14.9143 12.6878 13.9397 12.6322C13.463 12.6049 12.9905 12.6624 12.7412 12.7779ZM45.4642 24.0613C45.1672 24.2163 44.8692 24.5383 44.6774 24.9113L44.3687 25.5117V40.021V54.5304H46.4954H48.6222V50.8701C48.6222 48.827 48.6762 47.2099 48.7442 47.2099C48.8112 47.2099 53.7223 44.8003 59.6576 41.8551C70.2235 36.6123 70.4561 36.4883 70.787 35.9251C71.3685 34.9357 71.1217 33.7813 70.1969 33.1655C69.9506 33.0015 64.6388 30.8297 58.3932 28.3395C50.1239 25.0424 46.8884 23.8117 46.4898 23.8117C46.1886 23.8117 45.7272 23.924 45.4642 24.0613ZM18.7118 40.5394L17.4729 42.626L23.4771 42.6945L29.4811 42.7629L30.1141 43.134C31.4494 43.9168 32.0932 45.0879 31.994 46.5541C31.9254 47.568 31.6344 48.2326 30.9675 48.8974C29.9225 49.9396 30.7411 49.8696 18.6413 49.9516C8.63233 50.0195 7.74361 50.0442 7.04684 50.2748C4.19584 51.2184 2.16811 53.1641 1.34621 55.7449C0.393953 58.7352 1.06739 61.7119 3.20201 63.9477C4.26664 65.0629 5.20504 65.6757 6.65784 66.205L7.6643 66.5716L22.4661 66.6099L37.2678 66.6482L37.1677 66.3362C37.1127 66.1646 37.0362 65.2095 36.9976 64.2137L36.9275 62.4031L22.5704 62.3665L8.21315 62.3298L7.43351 61.948C5.96382 61.2283 5.20202 59.9831 5.19735 58.2933C5.19502 57.4803 5.26349 57.1272 5.52639 56.5945C5.93542 55.7657 6.70518 55.0041 7.56331 54.5788L8.21315 54.2567L19.1902 54.1883L30.1672 54.1199L31.0975 53.7481C34.265 52.4826 36.2639 49.6287 36.2711 46.3614C36.2739 45.0675 36.0573 44.1683 35.4239 42.8455C34.4087 40.7255 32.3798 39.1505 30.0299 38.6585C29.2976 38.5052 27.9863 38.4569 24.51 38.455L19.9506 38.4527L18.7118 40.5394ZM44.9567 58.8944C43.5306 59.3582 42.2904 60.4568 41.6464 61.8269C41.3238 62.5133 41.2814 62.7704 41.2814 64.0402C41.2814 65.3055 41.3242 65.5668 41.6395 66.2295C42.1941 67.3949 42.9987 68.2004 44.1989 68.7921C45.1847 69.2778 45.3194 69.3077 46.4883 69.2989C48.0615 69.2873 49.0143 68.9403 50.0395 68.0058C52.3513 65.8989 52.469 62.4729 50.305 60.2795C49.3285 59.2895 48.167 58.7949 46.7036 58.7456C45.979 58.7213 45.3153 58.7778 44.9567 58.8944Z" fill="#0074FF"/>
</svg>
