<svg width="72" height="72" viewBox="0 0 72 72" fill="none" xmlns="http://www.w3.org/2000/svg">
<path fill-rule="evenodd" clip-rule="evenodd" d="M5.41597 1.26802C4.29816 1.94943 4.29583 3.54412 5.41146 4.21896C5.82312 4.46793 6.17093 4.48925 10.4534 4.52726L15.053 4.56814L15.1024 6.09953C15.1453 7.43568 15.1997 7.72881 15.5285 8.39941C16.1164 9.59844 16.8697 10.3563 18.0575 10.9433L19.101 11.459L35.5145 11.5003C47.428 11.5303 52.1515 11.4987 52.7436 11.3851C54.4579 11.0561 55.7989 10.0093 56.5433 8.41855C56.9156 7.62299 56.9756 7.32781 57.0291 6.03267L57.0899 4.55474L61.4131 4.55392C63.9401 4.55351 65.9457 4.49513 66.2404 4.41324C66.8474 4.24466 67.4022 3.62505 67.523 2.98097C67.6428 2.34277 67.2314 1.55322 66.6157 1.23958C66.1732 1.01413 64.4312 1.00046 36.0001 1.00074C6.34142 1.00101 5.8465 1.00538 5.41597 1.26802ZM25.6095 18.2411C25.6095 21.9473 25.6978 22.5182 26.5371 24.2423C27.2635 25.7343 28.8286 27.2706 30.3946 28.0287C32.1647 28.8856 32.6313 28.9599 36.2052 28.9532C39.2601 28.9473 39.3817 28.9365 40.4728 28.5727C43.3454 27.615 45.5126 25.2957 46.2578 22.3816C46.4883 21.4803 46.5274 20.8647 46.5274 18.1364V14.9454H36.0684H25.6095V18.2411ZM30.8288 33.7189C30.8776 35.3139 30.9259 35.6122 31.2472 36.3081C31.7126 37.3161 32.7935 38.4579 33.6718 38.8692L34.3595 39.1914V40.4799C34.3595 41.4411 34.4178 41.8672 34.5891 42.1572C35.1445 43.0973 36.4845 43.2347 37.2862 42.4336C37.6964 42.0238 37.7104 41.9685 37.7551 40.5993L37.8011 39.1875L38.4069 38.8933C38.7401 38.7314 39.2857 38.3473 39.6194 38.0396C40.8488 36.9064 41.3321 35.5742 41.3321 33.3183V31.9245L40.546 32.1507C39.3844 32.485 32.7428 32.482 31.5753 32.1466L30.7736 31.9163L30.8288 33.7189ZM35.1523 46.7556C34.3988 47.2394 34.3316 47.5654 34.382 50.4923C34.4256 53.0344 34.4444 53.1933 34.7847 53.9102C35.5523 55.528 37.0208 56.6275 38.8028 56.919C39.2737 56.996 43.0958 57.0535 47.7736 57.0539C55.8314 57.0548 55.9282 57.058 56.2871 57.3402C57.3193 58.1522 57.2739 59.5462 56.1936 60.2048C55.7641 60.4667 55.3254 60.4718 32.623 60.4722C16.0175 60.4726 9.28566 60.5161 8.76558 60.6264C7.12714 60.9741 5.79113 62.0326 5.08443 63.5428C3.98575 65.8906 4.7347 68.6085 6.88392 70.0738C8.34134 71.0675 6.09751 71.0001 37.7036 70.9998C64.5122 70.9997 66.1735 70.9859 66.6157 70.7606C67.2314 70.4469 67.6428 69.6574 67.523 69.0192C67.4022 68.3751 66.8474 67.7555 66.2404 67.5869C65.9042 67.4935 56.3481 67.4466 37.5313 67.4462C12.5888 67.4455 9.27991 67.4215 8.92527 67.238C7.88702 66.7011 7.83849 64.9572 8.8431 64.2896C9.09111 64.1249 12.6826 64.0855 32.7872 64.0274L56.4395 63.9591L57.2305 63.6398C58.2557 63.226 59.4847 62.0919 59.9603 61.1205C61.284 58.4172 60.1873 55.2832 57.4649 53.9905L56.5763 53.5684L47.7579 53.5001C41.2193 53.4494 38.865 53.3889 38.6513 53.2664C37.944 52.8606 37.8504 52.5016 37.7774 49.9135L37.7091 47.4891L37.2775 47.0577C36.7377 46.5184 35.7421 46.3769 35.1523 46.7556Z" fill="#0074FF"/>
</svg>
