<svg width="72" height="72" viewBox="0 0 72 72" fill="none" xmlns="http://www.w3.org/2000/svg">
<path fill-rule="evenodd" clip-rule="evenodd" d="M4.00044 3.26146C3.11692 3.728 3 4.16347 3 6.98684V9.44137H36H69V6.98684C69 4.1373 68.8854 3.72117 67.9721 3.25514C67.4663 2.99705 67.2849 2.99564 35.9729 3.00131C4.87481 3.00698 4.47636 3.0102 4.00044 3.26146ZM3 28.2629V43.217H36H69V28.2629V13.3088H36H3V28.2629ZM13.7026 17.5647C14.2745 17.8565 14.7305 18.5992 14.7305 19.2389C14.7305 20.2242 13.7775 21.1726 12.7873 21.1726C12.1878 21.1726 11.3914 20.6713 11.1078 20.1153C10.6318 19.182 10.9306 18.1632 11.8421 17.6113C12.4593 17.2378 13.0334 17.2233 13.7026 17.5647ZM21.4369 17.5647C22.0089 17.8565 22.4648 18.5992 22.4648 19.2389C22.4648 20.2242 21.5118 21.1726 20.5217 21.1726C19.9222 21.1726 19.1258 20.6713 18.8422 20.1153C18.3661 19.182 18.6649 18.1632 19.5764 17.6113C20.1936 17.2378 20.7678 17.2233 21.4369 17.5647ZM29.1713 17.5647C29.7433 17.8565 30.1992 18.5992 30.1992 19.2389C30.1992 20.2242 29.2462 21.1726 28.2561 21.1726C27.6565 21.1726 26.8602 20.6713 26.5766 20.1153C26.1005 19.182 26.3993 18.1632 27.3108 17.6113C27.928 17.2378 28.5022 17.2233 29.1713 17.5647ZM36.9057 17.5647C37.4777 17.8565 37.9336 18.5992 37.9336 19.2389C37.9336 20.2242 36.9806 21.1726 35.9905 21.1726C35.3909 21.1726 34.5945 20.6713 34.3109 20.1153C33.8349 19.182 34.1337 18.1632 35.0452 17.6113C35.6624 17.2378 36.2365 17.2233 36.9057 17.5647ZM44.6401 17.5647C45.212 17.8565 45.668 18.5992 45.668 19.2389C45.668 20.2242 44.715 21.1726 43.7248 21.1726C43.1253 21.1726 42.3289 20.6713 42.0453 20.1153C41.5693 19.182 41.8681 18.1632 42.7796 17.6113C43.3968 17.2378 43.9709 17.2233 44.6401 17.5647ZM52.3744 17.5647C52.9464 17.8565 53.4023 18.5992 53.4023 19.2389C53.4023 20.2242 52.4493 21.1726 51.4592 21.1726C50.8597 21.1726 50.0633 20.6713 49.7797 20.1153C49.3036 19.182 49.6024 18.1632 50.5139 17.6113C51.1311 17.2378 51.7053 17.2233 52.3744 17.5647ZM60.1088 17.5647C60.6808 17.8565 61.1367 18.5992 61.1367 19.2389C61.1367 20.2242 60.1837 21.1726 59.1936 21.1726C58.594 21.1726 57.7977 20.6713 57.5141 20.1153C57.038 19.182 57.3368 18.1632 58.2483 17.6113C58.8655 17.2378 59.4397 17.2233 60.1088 17.5647ZM13.7026 26.5887C14.2745 26.8806 14.7305 27.6233 14.7305 28.2629C14.7305 29.2482 13.7775 30.1967 12.7873 30.1967C12.1878 30.1967 11.3914 29.6953 11.1078 29.1393C10.6318 28.2061 10.9306 27.1873 11.8421 26.6354C12.4593 26.2618 13.0334 26.2473 13.7026 26.5887ZM21.4369 26.5887C22.0089 26.8806 22.4648 27.6233 22.4648 28.2629C22.4648 29.2482 21.5118 30.1967 20.5217 30.1967C19.9222 30.1967 19.1258 29.6953 18.8422 29.1393C18.3661 28.2061 18.6649 27.1873 19.5764 26.6354C20.1936 26.2618 20.7678 26.2473 21.4369 26.5887ZM29.1713 26.5887C29.7433 26.8806 30.1992 27.6233 30.1992 28.2629C30.1992 29.2482 29.2462 30.1967 28.2561 30.1967C27.6565 30.1967 26.8602 29.6953 26.5766 29.1393C26.1005 28.2061 26.3993 27.1873 27.3108 26.6354C27.928 26.2618 28.5022 26.2473 29.1713 26.5887ZM36.9057 26.5887C37.4777 26.8806 37.9336 27.6233 37.9336 28.2629C37.9336 29.2482 36.9806 30.1967 35.9905 30.1967C35.3909 30.1967 34.5945 29.6953 34.3109 29.1393C33.8349 28.2061 34.1337 27.1873 35.0452 26.6354C35.6624 26.2618 36.2365 26.2473 36.9057 26.5887ZM44.6401 26.5887C45.212 26.8806 45.668 27.6233 45.668 28.2629C45.668 29.2482 44.715 30.1967 43.7248 30.1967C43.1253 30.1967 42.3289 29.6953 42.0453 29.1393C41.5693 28.2061 41.8681 27.1873 42.7796 26.6354C43.3968 26.2618 43.9709 26.2473 44.6401 26.5887ZM52.3744 26.5887C52.9464 26.8806 53.4023 27.6233 53.4023 28.2629C53.4023 29.2482 52.4493 30.1967 51.4592 30.1967C50.8597 30.1967 50.0633 29.6953 49.7797 29.1393C49.3036 28.2061 49.6024 27.1873 50.5139 26.6354C51.1311 26.2618 51.7053 26.2473 52.3744 26.5887ZM60.1088 26.5887C60.6808 26.8806 61.1367 27.6233 61.1367 28.2629C61.1367 29.2482 60.1837 30.1967 59.1936 30.1967C58.594 30.1967 57.7977 29.6953 57.5141 29.1393C57.038 28.2061 57.3368 27.1873 58.2483 26.6354C58.8655 26.2618 59.4397 26.2473 60.1088 26.5887ZM13.7026 35.6127C14.2745 35.9046 14.7305 36.6473 14.7305 37.287C14.7305 38.2723 13.7775 39.2207 12.7873 39.2207C12.1878 39.2207 11.3914 38.7193 11.1078 38.1633C10.6318 37.2301 10.9306 36.2113 11.8421 35.6594C12.4593 35.2858 13.0334 35.2714 13.7026 35.6127ZM21.4369 35.6127C22.0089 35.9046 22.4648 36.6473 22.4648 37.287C22.4648 38.2723 21.5118 39.2207 20.5217 39.2207C19.9222 39.2207 19.1258 38.7193 18.8422 38.1633C18.3661 37.2301 18.6649 36.2113 19.5764 35.6594C20.1936 35.2858 20.7678 35.2714 21.4369 35.6127ZM29.1713 35.6127C29.7433 35.9046 30.1992 36.6473 30.1992 37.287C30.1992 38.2723 29.2462 39.2207 28.2561 39.2207C27.6565 39.2207 26.8602 38.7193 26.5766 38.1633C26.1005 37.2301 26.3993 36.2113 27.3108 35.6594C27.928 35.2858 28.5022 35.2714 29.1713 35.6127ZM36.9057 35.6127C37.4777 35.9046 37.9336 36.6473 37.9336 37.287C37.9336 38.2723 36.9806 39.2207 35.9905 39.2207C35.3909 39.2207 34.5945 38.7193 34.3109 38.1633C33.8349 37.2301 34.1337 36.2113 35.0452 35.6594C35.6624 35.2858 36.2365 35.2714 36.9057 35.6127ZM44.6401 35.6127C45.212 35.9046 45.668 36.6473 45.668 37.287C45.668 38.2723 44.715 39.2207 43.7248 39.2207C43.1253 39.2207 42.3289 38.7193 42.0453 38.1633C41.5693 37.2301 41.8681 36.2113 42.7796 35.6594C43.3968 35.2858 43.9709 35.2714 44.6401 35.6127ZM52.3744 35.6127C52.9464 35.9046 53.4023 36.6473 53.4023 37.287C53.4023 38.2723 52.4493 39.2207 51.4592 39.2207C50.8597 39.2207 50.0633 38.7193 49.7797 38.1633C49.3036 37.2301 49.6024 36.2113 50.5139 35.6594C51.1311 35.2858 51.7053 35.2714 52.3744 35.6127ZM60.1088 35.6127C60.6808 35.9046 61.1367 36.6473 61.1367 37.287C61.1367 38.2723 60.1837 39.2207 59.1936 39.2207C58.594 39.2207 57.7977 38.7193 57.5141 38.1633C57.038 37.2301 57.3368 36.2113 58.2483 35.6594C58.8655 35.2858 59.4397 35.2714 60.1088 35.6127ZM3 49.539C3 52.3666 3.09926 52.7331 4.00328 53.2412C4.43009 53.4811 4.71458 53.5302 5.677 53.5302H6.83638L6.89877 55.5606C6.96851 57.8291 7.16432 58.6707 8.00118 60.2982C8.64029 61.5414 10.4581 63.3593 11.7012 63.9985C13.6273 64.9891 13.9706 65.0476 18.1787 65.1032L21.9492 65.1529V66.3081C21.9492 67.7111 22.1871 68.2807 22.9525 68.711L23.4667 69H33.1545C42.6095 69 42.8546 68.9938 43.351 68.7405C44.1206 68.3478 44.3789 67.7339 44.3789 66.2979V65.1326H47.929C51.2326 65.1326 51.5144 65.1145 51.9877 64.873C52.5597 64.5812 53.0156 63.8385 53.0156 63.1988C53.0156 62.5592 52.5597 61.8165 51.9877 61.5246C51.5144 61.2832 51.2326 61.2651 47.929 61.2651H44.3789V60.0997C44.3789 58.6637 44.1206 58.0498 43.351 57.6572C42.8546 57.4039 42.6095 57.3977 33.1641 57.3977C23.7186 57.3977 23.4735 57.4039 22.9771 57.6572C22.2059 58.0506 21.9492 58.663 21.9492 60.109V61.2835L18.4365 61.2384C15.1172 61.1958 14.8823 61.1768 14.1705 60.8932C13.2443 60.5241 12.2512 59.729 11.682 58.9006C10.9936 57.8988 10.7344 56.8491 10.7344 55.0637V53.5302H39.0989C67.2721 53.5302 67.4668 53.5284 67.9721 53.2707C68.8854 52.8047 69 52.3886 69 49.539V47.0845H36H3V49.539Z" fill="#0074FF"/>
</svg>
