<svg width="310" height="150" viewBox="0 0 310 150" fill="none" xmlns="http://www.w3.org/2000/svg">
<g opacity="0.2">
<circle r="3" transform="matrix(4.37114e-08 -1 -1 -4.37114e-08 307 147)" fill="#ABB2D0"/>
<circle r="3" transform="matrix(4.37114e-08 -1 -1 -4.37114e-08 147 147)" fill="#ABB2D0"/>
<circle r="3" transform="matrix(-1.31134e-07 1 1 1.31134e-07 163 3)" fill="#ABB2D0"/>
<circle r="3" transform="matrix(-1.31134e-07 1 1 1.31134e-07 3 3)" fill="#ABB2D0"/>
<circle r="3" transform="matrix(1 8.74228e-08 8.74228e-08 -1 243 67)" fill="#ABB2D0"/>
<circle r="3" transform="matrix(1 8.74228e-08 8.74228e-08 -1 83 67)" fill="#ABB2D0"/>
<circle r="3" transform="matrix(-1 -1.74846e-07 -1.74846e-07 1 227 83)" fill="#ABB2D0"/>
<circle r="3" transform="matrix(-1 -1.74846e-07 -1.74846e-07 1 67 83)" fill="#ABB2D0"/>
<circle r="3" transform="matrix(4.37114e-08 -1 -1 -4.37114e-08 291 147)" fill="#ABB2D0"/>
<circle r="3" transform="matrix(4.37114e-08 -1 -1 -4.37114e-08 131 147)" fill="#ABB2D0"/>
<circle r="3" transform="matrix(-1.31134e-07 1 1 1.31134e-07 179 3)" fill="#ABB2D0"/>
<circle r="3" transform="matrix(-1.31134e-07 1 1 1.31134e-07 19 3)" fill="#ABB2D0"/>
<circle r="3" transform="matrix(1 8.74228e-08 8.74228e-08 -1 243 51)" fill="#ABB2D0"/>
<circle r="3" transform="matrix(1 8.74228e-08 8.74228e-08 -1 83 51)" fill="#ABB2D0"/>
<circle r="3" transform="matrix(-1 -1.74846e-07 -1.74846e-07 1 227 99)" fill="#ABB2D0"/>
<circle r="3" transform="matrix(-1 -1.74846e-07 -1.74846e-07 1 67 99)" fill="#ABB2D0"/>
<circle r="3" transform="matrix(4.37114e-08 -1 -1 -4.37114e-08 259 147)" fill="#ABB2D0"/>
<circle r="3" transform="matrix(4.37114e-08 -1 -1 -4.37114e-08 99 147)" fill="#ABB2D0"/>
<circle r="3" transform="matrix(-1.31134e-07 1 1 1.31134e-07 211 3)" fill="#ABB2D0"/>
<circle r="3" transform="matrix(-1.31134e-07 1 1 1.31134e-07 51 3)" fill="#ABB2D0"/>
<circle r="3" transform="matrix(1 8.74228e-08 8.74228e-08 -1 243 19)" fill="#ABB2D0"/>
<circle r="3" transform="matrix(1 8.74228e-08 8.74228e-08 -1 83 19)" fill="#ABB2D0"/>
<circle r="3" transform="matrix(-1 -1.74846e-07 -1.74846e-07 1 227 131)" fill="#ABB2D0"/>
<circle r="3" transform="matrix(-1 -1.74846e-07 -1.74846e-07 1 67 131)" fill="#ABB2D0"/>
<circle r="3" transform="matrix(4.37114e-08 -1 -1 -4.37114e-08 243 147)" fill="#ABB2D0"/>
<circle r="3" transform="matrix(4.37114e-08 -1 -1 -4.37114e-08 83 147)" fill="#ABB2D0"/>
<circle r="3" transform="matrix(-1.31134e-07 1 1 1.31134e-07 227 3)" fill="#ABB2D0"/>
<circle r="3" transform="matrix(-1.31134e-07 1 1 1.31134e-07 67 3)" fill="#ABB2D0"/>
<circle r="3" transform="matrix(1 8.74228e-08 8.74228e-08 -1 243 3)" fill="#ABB2D0"/>
<circle r="3" transform="matrix(1 8.74228e-08 8.74228e-08 -1 83 3)" fill="#ABB2D0"/>
<circle r="3" transform="matrix(-1 -1.74846e-07 -1.74846e-07 1 227 147)" fill="#ABB2D0"/>
<circle r="3" transform="matrix(-1 -1.74846e-07 -1.74846e-07 1 67 147)" fill="#ABB2D0"/>
<circle r="3" transform="matrix(4.37114e-08 -1 -1 -4.37114e-08 291 131)" fill="#ABB2D0"/>
<circle r="3" transform="matrix(4.37114e-08 -1 -1 -4.37114e-08 131 131)" fill="#ABB2D0"/>
<circle r="3" transform="matrix(-1.31134e-07 1 1 1.31134e-07 179 19)" fill="#ABB2D0"/>
<circle r="3" transform="matrix(-1.31134e-07 1 1 1.31134e-07 19 19)" fill="#ABB2D0"/>
<circle r="3" transform="matrix(1 8.74228e-08 8.74228e-08 -1 259 51)" fill="#ABB2D0"/>
<circle r="3" transform="matrix(1 8.74228e-08 8.74228e-08 -1 99 51)" fill="#ABB2D0"/>
<circle r="3" transform="matrix(-1 -1.74846e-07 -1.74846e-07 1 211 99)" fill="#ABB2D0"/>
<circle r="3" transform="matrix(-1 -1.74846e-07 -1.74846e-07 1 51 99)" fill="#ABB2D0"/>
<circle r="3" transform="matrix(4.37114e-08 -1 -1 -4.37114e-08 275 115)" fill="#ABB2D0"/>
<circle r="3" transform="matrix(4.37114e-08 -1 -1 -4.37114e-08 115 115)" fill="#ABB2D0"/>
<circle r="3" transform="matrix(-1.31134e-07 1 1 1.31134e-07 195 35)" fill="#ABB2D0"/>
<circle r="3" transform="matrix(-1.31134e-07 1 1 1.31134e-07 35 35)" fill="#ABB2D0"/>
<circle r="3" transform="matrix(1 8.74228e-08 8.74228e-08 -1 275 35)" fill="#ABB2D0"/>
<circle r="3" transform="matrix(1 8.74228e-08 8.74228e-08 -1 115 35)" fill="#ABB2D0"/>
<circle r="3" transform="matrix(-1 -1.74846e-07 -1.74846e-07 1 195 115)" fill="#ABB2D0"/>
<circle r="3" transform="matrix(-1 -1.74846e-07 -1.74846e-07 1 35 115)" fill="#ABB2D0"/>
<circle r="3" transform="matrix(4.37114e-08 -1 -1 -4.37114e-08 259 115)" fill="#ABB2D0"/>
<circle r="3" transform="matrix(4.37114e-08 -1 -1 -4.37114e-08 99 115)" fill="#ABB2D0"/>
<circle r="3" transform="matrix(-1.31134e-07 1 1 1.31134e-07 211 35)" fill="#ABB2D0"/>
<circle r="3" transform="matrix(-1.31134e-07 1 1 1.31134e-07 51 35)" fill="#ABB2D0"/>
<circle r="3" transform="matrix(1 8.74228e-08 8.74228e-08 -1 275 19)" fill="#ABB2D0"/>
<circle r="3" transform="matrix(1 8.74228e-08 8.74228e-08 -1 115 19)" fill="#ABB2D0"/>
<circle r="3" transform="matrix(-1 -1.74846e-07 -1.74846e-07 1 195 131)" fill="#ABB2D0"/>
<circle r="3" transform="matrix(-1 -1.74846e-07 -1.74846e-07 1 35 131)" fill="#ABB2D0"/>
<circle r="3" transform="matrix(4.37114e-08 -1 -1 -4.37114e-08 307 99)" fill="#ABB2D0"/>
<circle r="3" transform="matrix(4.37114e-08 -1 -1 -4.37114e-08 147 99)" fill="#ABB2D0"/>
<circle r="3" transform="matrix(-1.31134e-07 1 1 1.31134e-07 163 51)" fill="#ABB2D0"/>
<circle r="3" transform="matrix(-1.31134e-07 1 1 1.31134e-07 3 51)" fill="#ABB2D0"/>
<circle r="3" transform="matrix(1 8.74228e-08 8.74228e-08 -1 291 67)" fill="#ABB2D0"/>
<circle r="3" transform="matrix(1 8.74228e-08 8.74228e-08 -1 131 67)" fill="#ABB2D0"/>
<circle r="3" transform="matrix(-1 -1.74846e-07 -1.74846e-07 1 179 83)" fill="#ABB2D0"/>
<circle r="3" transform="matrix(-1 -1.74846e-07 -1.74846e-07 1 19 83)" fill="#ABB2D0"/>
<circle r="3" transform="matrix(4.37114e-08 -1 -1 -4.37114e-08 291 99)" fill="#ABB2D0"/>
<circle r="3" transform="matrix(4.37114e-08 -1 -1 -4.37114e-08 131 99)" fill="#ABB2D0"/>
<circle r="3" transform="matrix(-1.31134e-07 1 1 1.31134e-07 179 51)" fill="#ABB2D0"/>
<circle r="3" transform="matrix(-1.31134e-07 1 1 1.31134e-07 19 51)" fill="#ABB2D0"/>
<circle r="3" transform="matrix(1 8.74228e-08 8.74228e-08 -1 291 51)" fill="#ABB2D0"/>
<circle r="3" transform="matrix(1 8.74228e-08 8.74228e-08 -1 131 51)" fill="#ABB2D0"/>
<circle r="3" transform="matrix(-1 -1.74846e-07 -1.74846e-07 1 179 99)" fill="#ABB2D0"/>
<circle r="3" transform="matrix(-1 -1.74846e-07 -1.74846e-07 1 19 99)" fill="#ABB2D0"/>
<circle r="3" transform="matrix(4.37114e-08 -1 -1 -4.37114e-08 275 99)" fill="#ABB2D0"/>
<circle r="3" transform="matrix(4.37114e-08 -1 -1 -4.37114e-08 115 99)" fill="#ABB2D0"/>
<circle r="3" transform="matrix(-1.31134e-07 1 1 1.31134e-07 195 51)" fill="#ABB2D0"/>
<circle r="3" transform="matrix(-1.31134e-07 1 1 1.31134e-07 35 51)" fill="#ABB2D0"/>
<circle r="3" transform="matrix(1 8.74228e-08 8.74228e-08 -1 291 35)" fill="#ABB2D0"/>
<circle r="3" transform="matrix(1 8.74228e-08 8.74228e-08 -1 131 35)" fill="#ABB2D0"/>
<circle r="3" transform="matrix(-1 -1.74846e-07 -1.74846e-07 1 179 115)" fill="#ABB2D0"/>
<circle r="3" transform="matrix(-1 -1.74846e-07 -1.74846e-07 1 19 115)" fill="#ABB2D0"/>
<circle r="3" transform="matrix(4.37114e-08 -1 -1 -4.37114e-08 259 99)" fill="#ABB2D0"/>
<circle r="3" transform="matrix(4.37114e-08 -1 -1 -4.37114e-08 99 99)" fill="#ABB2D0"/>
<circle r="3" transform="matrix(-1.31134e-07 1 1 1.31134e-07 211 51)" fill="#ABB2D0"/>
<circle r="3" transform="matrix(-1.31134e-07 1 1 1.31134e-07 51 51)" fill="#ABB2D0"/>
<circle r="3" transform="matrix(1 8.74228e-08 8.74228e-08 -1 291 19)" fill="#ABB2D0"/>
<circle r="3" transform="matrix(1 8.74228e-08 8.74228e-08 -1 131 19)" fill="#ABB2D0"/>
<circle r="3" transform="matrix(-1 -1.74846e-07 -1.74846e-07 1 179 131)" fill="#ABB2D0"/>
<circle r="3" transform="matrix(-1 -1.74846e-07 -1.74846e-07 1 19 131)" fill="#ABB2D0"/>
<circle r="3" transform="matrix(4.37114e-08 -1 -1 -4.37114e-08 243 99)" fill="#ABB2D0"/>
<circle r="3" transform="matrix(4.37114e-08 -1 -1 -4.37114e-08 83 99)" fill="#ABB2D0"/>
<circle r="3" transform="matrix(-1.31134e-07 1 1 1.31134e-07 227 51)" fill="#ABB2D0"/>
<circle r="3" transform="matrix(-1.31134e-07 1 1 1.31134e-07 67 51)" fill="#ABB2D0"/>
<circle r="3" transform="matrix(1 8.74228e-08 8.74228e-08 -1 291 3)" fill="#ABB2D0"/>
<circle r="3" transform="matrix(1 8.74228e-08 8.74228e-08 -1 131 3)" fill="#ABB2D0"/>
<circle r="3" transform="matrix(-1 -1.74846e-07 -1.74846e-07 1 179 147)" fill="#ABB2D0"/>
<circle r="3" transform="matrix(-1 -1.74846e-07 -1.74846e-07 1 19 147)" fill="#ABB2D0"/>
<circle r="3" transform="matrix(4.37114e-08 -1 -1 -4.37114e-08 307 83)" fill="#ABB2D0"/>
<circle r="3" transform="matrix(4.37114e-08 -1 -1 -4.37114e-08 147 83)" fill="#ABB2D0"/>
<circle r="3" transform="matrix(-1.31134e-07 1 1 1.31134e-07 163 67)" fill="#ABB2D0"/>
<circle r="3" transform="matrix(-1.31134e-07 1 1 1.31134e-07 3 67)" fill="#ABB2D0"/>
<circle r="3" transform="matrix(1 8.74228e-08 8.74228e-08 -1 307 67)" fill="#ABB2D0"/>
<circle r="3" transform="matrix(1 8.74228e-08 8.74228e-08 -1 147 67)" fill="#ABB2D0"/>
<circle r="3" transform="matrix(-1 -1.74846e-07 -1.74846e-07 1 163 83)" fill="#ABB2D0"/>
<circle r="3" transform="matrix(-1 -1.74846e-07 -1.74846e-07 1 3 83)" fill="#ABB2D0"/>
<circle r="3" transform="matrix(4.37114e-08 -1 -1 -4.37114e-08 259 83)" fill="#ABB2D0"/>
<circle r="3" transform="matrix(4.37114e-08 -1 -1 -4.37114e-08 99 83)" fill="#ABB2D0"/>
<circle r="3" transform="matrix(-1.31134e-07 1 1 1.31134e-07 211 67)" fill="#ABB2D0"/>
<circle r="3" transform="matrix(-1.31134e-07 1 1 1.31134e-07 51 67)" fill="#ABB2D0"/>
<circle r="3" transform="matrix(1 8.74228e-08 8.74228e-08 -1 307 19)" fill="#ABB2D0"/>
<circle r="3" transform="matrix(1 8.74228e-08 8.74228e-08 -1 147 19)" fill="#ABB2D0"/>
<circle r="3" transform="matrix(-1 -1.74846e-07 -1.74846e-07 1 163 131)" fill="#ABB2D0"/>
<circle r="3" transform="matrix(-1 -1.74846e-07 -1.74846e-07 1 3 131)" fill="#ABB2D0"/>
<circle r="3" transform="matrix(4.37114e-08 -1 -1 -4.37114e-08 243 83)" fill="#ABB2D0"/>
<circle r="3" transform="matrix(4.37114e-08 -1 -1 -4.37114e-08 83 83)" fill="#ABB2D0"/>
<circle r="3" transform="matrix(-1.31134e-07 1 1 1.31134e-07 227 67)" fill="#ABB2D0"/>
<circle r="3" transform="matrix(-1.31134e-07 1 1 1.31134e-07 67 67)" fill="#ABB2D0"/>
<circle r="3" transform="matrix(1 8.74228e-08 8.74228e-08 -1 307 3)" fill="#ABB2D0"/>
<circle r="3" transform="matrix(1 8.74228e-08 8.74228e-08 -1 147 3)" fill="#ABB2D0"/>
<circle r="3" transform="matrix(-1 -1.74846e-07 -1.74846e-07 1 163 147)" fill="#ABB2D0"/>
<circle r="3" transform="matrix(-1 -1.74846e-07 -1.74846e-07 1 3 147)" fill="#ABB2D0"/>
<path fill-rule="evenodd" clip-rule="evenodd" d="M306 126.756C306 127.604 305.409 128.32 304.825 128.934C304.314 129.472 304 130.199 304 131C304 132.657 305.343 134 307 134C308.657 134 310 132.657 310 131C310 130.199 309.686 129.472 309.175 128.934C308.591 128.32 308 127.604 308 126.756L308 119.244C308 118.396 308.591 117.68 309.175 117.066C309.686 116.528 310 115.801 310 115C310 113.343 308.657 112 307 112C306.199 112 305.472 112.314 304.934 112.825C304.32 113.409 303.604 114 302.756 114L295.244 114C294.396 114 293.68 113.409 293.066 112.825C292.528 112.314 291.801 112 291 112C289.343 112 288 113.343 288 115C288 116.657 289.343 118 291 118C291.801 118 292.528 117.686 293.066 117.175C293.68 116.591 294.396 116 295.244 116L302.834 116C303.635 116 304.312 116.555 304.879 117.121C305.445 117.688 306 118.365 306 119.166L306 126.756Z" fill="#ABB2D0"/>
<path fill-rule="evenodd" clip-rule="evenodd" d="M146 126.756C146 127.604 145.409 128.32 144.825 128.934C144.314 129.472 144 130.199 144 131C144 132.657 145.343 134 147 134C148.657 134 150 132.657 150 131C150 130.199 149.686 129.472 149.175 128.934C148.591 128.32 148 127.604 148 126.756L148 119.244C148 118.396 148.591 117.68 149.175 117.066C149.686 116.528 150 115.801 150 115C150 113.343 148.657 112 147 112C146.199 112 145.472 112.314 144.934 112.825C144.32 113.409 143.604 114 142.756 114L135.244 114C134.396 114 133.68 113.409 133.066 112.825C132.528 112.314 131.801 112 131 112C129.343 112 128 113.343 128 115C128 116.657 129.343 118 131 118C131.801 118 132.528 117.686 133.066 117.175C133.68 116.591 134.396 116 135.244 116L142.834 116C143.635 116 144.312 116.555 144.879 117.121C145.445 117.688 146 118.365 146 119.166L146 126.756Z" fill="#ABB2D0"/>
<path fill-rule="evenodd" clip-rule="evenodd" d="M164 23.2436C164 22.396 164.591 21.6805 165.175 21.066C165.686 20.528 166 19.8006 166 19C166 17.3431 164.657 16 163 16C161.343 16 160 17.3431 160 19C160 19.8006 160.314 20.528 160.825 21.066C161.409 21.6805 162 22.396 162 23.2436L162 30.7564C162 31.604 161.409 32.3195 160.825 32.934C160.314 33.472 160 34.1994 160 35C160 36.6569 161.343 38 163 38C163.801 38 164.528 37.6864 165.066 37.1753C165.68 36.5914 166.396 36 167.244 36L174.756 36C175.604 36 176.32 36.5914 176.934 37.1753C177.472 37.6864 178.199 38 179 38C180.657 38 182 36.6569 182 35C182 33.3431 180.657 32 179 32C178.199 32 177.472 32.3136 176.934 32.8247C176.32 33.4086 175.604 34 174.756 34L167.166 34C166.365 34 165.688 33.4453 165.121 32.8787C164.555 32.312 164 31.6349 164 30.8336L164 23.2436Z" fill="#ABB2D0"/>
<path fill-rule="evenodd" clip-rule="evenodd" d="M4 23.2436C4 22.396 4.59143 21.6805 5.17526 21.066C5.68637 20.528 6 19.8006 6 19C6 17.3431 4.65685 16 3 16C1.34315 16 -1.7613e-07 17.3431 -3.93401e-07 19C-4.98391e-07 19.8006 0.313631 20.528 0.824736 21.066C1.40856 21.6805 2 22.396 2 23.2436L2 30.7564C2 31.604 1.40856 32.3195 0.824734 32.934C0.313629 33.472 -2.38656e-06 34.1994 -2.49155e-06 35C-2.70882e-06 36.6569 1.34314 38 3 38C3.80063 38 4.52801 37.6864 5.06598 37.1753C5.68049 36.5914 6.39601 36 7.24364 36L14.7563 36C15.604 36 16.3195 36.5914 16.934 37.1753C17.472 37.6864 18.1994 38 19 38C20.6569 38 22 36.6569 22 35C22 33.3431 20.6569 32 19 32C18.1994 32 17.472 32.3136 16.934 32.8247C16.3195 33.4086 15.604 34 14.7564 34L7.1664 34C6.36506 34 5.68795 33.4453 5.12132 32.8787C4.55469 32.312 4 31.6349 4 30.8336L4 23.2436Z" fill="#ABB2D0"/>
<path fill-rule="evenodd" clip-rule="evenodd" d="M263.244 66C262.396 66 261.68 65.4086 261.066 64.8247C260.528 64.3136 259.801 64 259 64C257.343 64 256 65.3431 256 67C256 68.6569 257.343 70 259 70C259.801 70 260.528 69.6864 261.066 69.1753C261.68 68.5914 262.396 68 263.244 68L270.756 68C271.604 68 272.32 68.5914 272.934 69.1753C273.472 69.6864 274.199 70 275 70C276.657 70 278 68.6569 278 67C278 66.1994 277.686 65.472 277.175 64.934C276.591 64.3195 276 63.604 276 62.7564L276 55.2436C276 54.396 276.591 53.6805 277.175 53.066C277.686 52.528 278 51.8006 278 51C278 49.3431 276.657 48 275 48C273.343 48 272 49.3431 272 51C272 51.8006 272.314 52.528 272.825 53.066C273.409 53.6805 274 54.396 274 55.2436L274 62.8336C274 63.6349 273.445 64.312 272.879 64.8787C272.312 65.4453 271.635 66 270.834 66L263.244 66Z" fill="#ABB2D0"/>
<path fill-rule="evenodd" clip-rule="evenodd" d="M103.244 66C102.396 66 101.68 65.4086 101.066 64.8247C100.528 64.3136 99.8006 64 99 64C97.3431 64 96 65.3431 96 67C96 68.6569 97.3431 70 99 70C99.8006 70 100.528 69.6864 101.066 69.1753C101.68 68.5914 102.396 68 103.244 68L110.756 68C111.604 68 112.32 68.5914 112.934 69.1753C113.472 69.6864 114.199 70 115 70C116.657 70 118 68.6569 118 67C118 66.1994 117.686 65.472 117.175 64.934C116.591 64.3195 116 63.604 116 62.7564L116 55.2436C116 54.396 116.591 53.6805 117.175 53.066C117.686 52.528 118 51.8006 118 51C118 49.3431 116.657 48 115 48C113.343 48 112 49.3431 112 51C112 51.8006 112.314 52.528 112.825 53.066C113.409 53.6805 114 54.396 114 55.2436L114 62.8336C114 63.6349 113.445 64.312 112.879 64.8787C112.312 65.4453 111.635 66 110.834 66L103.244 66Z" fill="#ABB2D0"/>
<path fill-rule="evenodd" clip-rule="evenodd" d="M206.756 84C207.604 84 208.32 84.5914 208.934 85.1753C209.472 85.6864 210.199 86 211 86C212.657 86 214 84.6569 214 83C214 81.3431 212.657 80 211 80C210.199 80 209.472 80.3136 208.934 80.8247C208.32 81.4086 207.604 82 206.756 82L199.244 82C198.396 82 197.68 81.4086 197.066 80.8247C196.528 80.3136 195.801 80 195 80C193.343 80 192 81.3431 192 83C192 83.8006 192.314 84.528 192.825 85.066C193.409 85.6805 194 86.396 194 87.2436L194 94.7563C194 95.604 193.409 96.3195 192.825 96.934C192.314 97.472 192 98.1994 192 99C192 100.657 193.343 102 195 102C196.657 102 198 100.657 198 99C198 98.1994 197.686 97.472 197.175 96.934C196.591 96.3195 196 95.604 196 94.7564L196 87.1664C196 86.3651 196.555 85.6879 197.121 85.1213C197.688 84.5547 198.365 84 199.166 84L206.756 84Z" fill="#ABB2D0"/>
<path fill-rule="evenodd" clip-rule="evenodd" d="M46.7564 84C47.604 84 48.3195 84.5914 48.934 85.1753C49.472 85.6864 50.1994 86 51 86C52.6569 86 54 84.6569 54 83C54 81.3431 52.6569 80 51 80C50.1994 80 49.472 80.3136 48.934 80.8247C48.3195 81.4086 47.604 82 46.7564 82L39.2436 82C38.396 82 37.6805 81.4086 37.066 80.8247C36.528 80.3136 35.8006 80 35 80C33.3431 80 32 81.3431 32 83C32 83.8006 32.3136 84.528 32.8247 85.066C33.4086 85.6805 34 86.396 34 87.2436L34 94.7563C34 95.604 33.4086 96.3195 32.8247 96.934C32.3136 97.472 32 98.1994 32 99C32 100.657 33.3431 102 35 102C36.6569 102 38 100.657 38 99C38 98.1994 37.6864 97.472 37.1753 96.934C36.5914 96.3195 36 95.604 36 94.7564L36 87.1664C36 86.3651 36.5547 85.6879 37.1213 85.1213C37.688 84.5547 38.3651 84 39.1664 84L46.7564 84Z" fill="#ABB2D0"/>
<path fill-rule="evenodd" clip-rule="evenodd" d="M286.756 82C287.604 82 288.32 81.4086 288.934 80.8247C289.472 80.3136 290.199 80 291 80C292.657 80 294 81.3431 294 83C294 84.6569 292.657 86 291 86C290.199 86 289.472 85.6864 288.934 85.1753C288.32 84.5914 287.604 84 286.756 84L279.244 84C278.396 84 277.68 84.5914 277.066 85.1753C276.528 85.6864 275.801 86 275 86C273.343 86 272 84.6569 272 83C272 81.3431 273.343 80 275 80C275.801 80 276.528 80.3136 277.066 80.8247C277.68 81.4086 278.396 82 279.244 82L286.756 82Z" fill="#ABB2D0"/>
<path fill-rule="evenodd" clip-rule="evenodd" d="M126.756 82C127.604 82 128.32 81.4086 128.934 80.8247C129.472 80.3136 130.199 80 131 80C132.657 80 134 81.3431 134 83C134 84.6569 132.657 86 131 86C130.199 86 129.472 85.6864 128.934 85.1753C128.32 84.5914 127.604 84 126.756 84L119.244 84C118.396 84 117.68 84.5914 117.066 85.1753C116.528 85.6864 115.801 86 115 86C113.343 86 112 84.6569 112 83C112 81.3431 113.343 80 115 80C115.801 80 116.528 80.3136 117.066 80.8247C117.68 81.4086 118.396 82 119.244 82L126.756 82Z" fill="#ABB2D0"/>
<path fill-rule="evenodd" clip-rule="evenodd" d="M183.244 68C182.396 68 181.68 68.5914 181.066 69.1753C180.528 69.6864 179.801 70 179 70C177.343 70 176 68.6569 176 67C176 65.3431 177.343 64 179 64C179.801 64 180.528 64.3136 181.066 64.8247C181.68 65.4086 182.396 66 183.244 66L190.756 66C191.604 66 192.32 65.4086 192.934 64.8247C193.472 64.3136 194.199 64 195 64C196.657 64 198 65.3431 198 67C198 68.6569 196.657 70 195 70C194.199 70 193.472 69.6864 192.934 69.1753C192.32 68.5914 191.604 68 190.756 68L183.244 68Z" fill="#ABB2D0"/>
<path fill-rule="evenodd" clip-rule="evenodd" d="M23.2436 68C22.396 68 21.6805 68.5914 21.066 69.1753C20.528 69.6864 19.8006 70 19 70C17.3431 70 16 68.6569 16 67C16 65.3431 17.3431 64 19 64C19.8006 64 20.528 64.3136 21.066 64.8247C21.6805 65.4086 22.396 66 23.2436 66L30.7564 66C31.604 66 32.3195 65.4086 32.934 64.8247C33.472 64.3136 34.1994 64 35 64C36.6569 64 38 65.3431 38 67C38 68.6569 36.6569 70 35 70C34.1994 70 33.472 69.6864 32.934 69.1753C32.3195 68.5914 31.604 68 30.7564 68L23.2436 68Z" fill="#ABB2D0"/>
<path fill-rule="evenodd" clip-rule="evenodd" d="M308 46.7564C308 47.604 308.591 48.3195 309.175 48.934C309.686 49.472 310 50.1994 310 51C310 52.6569 308.657 54 307 54C305.343 54 304 52.6569 304 51C304 50.1994 304.314 49.472 304.825 48.934C305.409 48.3195 306 47.604 306 46.7564L306 39.2436C306 38.396 305.409 37.6805 304.825 37.066C304.314 36.528 304 35.8006 304 35C304 33.3431 305.343 32 307 32C308.657 32 310 33.3431 310 35C310 35.8006 309.686 36.528 309.175 37.066C308.591 37.6805 308 38.396 308 39.2436L308 46.7564Z" fill="#ABB2D0"/>
<path fill-rule="evenodd" clip-rule="evenodd" d="M148 46.7564C148 47.604 148.591 48.3195 149.175 48.934C149.686 49.472 150 50.1994 150 51C150 52.6569 148.657 54 147 54C145.343 54 144 52.6569 144 51C144 50.1994 144.314 49.472 144.825 48.934C145.409 48.3195 146 47.604 146 46.7564L146 39.2436C146 38.396 145.409 37.6805 144.825 37.066C144.314 36.528 144 35.8006 144 35C144 33.3431 145.343 32 147 32C148.657 32 150 33.3431 150 35C150 35.8006 149.686 36.528 149.175 37.066C148.591 37.6805 148 38.396 148 39.2436L148 46.7564Z" fill="#ABB2D0"/>
<path fill-rule="evenodd" clip-rule="evenodd" d="M162 103.244C162 102.396 161.409 101.68 160.825 101.066C160.314 100.528 160 99.8006 160 99C160 97.3431 161.343 96 163 96C164.657 96 166 97.3431 166 99C166 99.8006 165.686 100.528 165.175 101.066C164.591 101.68 164 102.396 164 103.244L164 110.756C164 111.604 164.591 112.32 165.175 112.934C165.686 113.472 166 114.199 166 115C166 116.657 164.657 118 163 118C161.343 118 160 116.657 160 115C160 114.199 160.314 113.472 160.825 112.934C161.409 112.32 162 111.604 162 110.756L162 103.244Z" fill="#ABB2D0"/>
<path fill-rule="evenodd" clip-rule="evenodd" d="M2 103.244C2 102.396 1.40856 101.68 0.824736 101.066C0.313631 100.528 -6.64523e-07 99.8006 -5.24537e-07 99C-2.34843e-07 97.3431 1.34315 96 3 96C4.65685 96 6 97.3431 6 99C6 99.8006 5.68637 100.528 5.17526 101.066C4.59143 101.68 4 102.396 4 103.244L4 110.756C4 111.604 4.59143 112.32 5.17526 112.934C5.68637 113.472 6 114.199 6 115C6 116.657 4.65685 118 3 118C1.34314 118 -3.61176e-06 116.657 -3.32207e-06 115C-3.18208e-06 114.199 0.313628 113.472 0.824734 112.934C1.40856 112.32 2 111.604 2 110.756L2 103.244Z" fill="#ABB2D0"/>
<path fill-rule="evenodd" clip-rule="evenodd" d="M274 142.756C274 143.604 273.409 144.32 272.825 144.934C272.314 145.472 272 146.199 272 147C272 148.657 273.343 150 275 150C276.657 150 278 148.657 278 147C278 146.199 277.686 145.472 277.175 144.934C276.591 144.32 276 143.604 276 142.756L276 135.244C276 134.396 276.591 133.68 277.175 133.066C277.686 132.528 278 131.801 278 131C278 129.343 276.657 128 275 128C273.343 128 272 129.343 272 131C272 131.801 272.314 132.528 272.825 133.066C273.409 133.68 274 134.396 274 135.244L274 142.756Z" fill="#ABB2D0"/>
<path fill-rule="evenodd" clip-rule="evenodd" d="M114 142.756C114 143.604 113.409 144.32 112.825 144.934C112.314 145.472 112 146.199 112 147C112 148.657 113.343 150 115 150C116.657 150 118 148.657 118 147C118 146.199 117.686 145.472 117.175 144.934C116.591 144.32 116 143.604 116 142.756L116 135.244C116 134.396 116.591 133.68 117.175 133.066C117.686 132.528 118 131.801 118 131C118 129.343 116.657 128 115 128C113.343 128 112 129.343 112 131C112 131.801 112.314 132.528 112.825 133.066C113.409 133.68 114 134.396 114 135.244L114 142.756Z" fill="#ABB2D0"/>
<path fill-rule="evenodd" clip-rule="evenodd" d="M196 7.24365C196 6.39602 196.591 5.68049 197.175 5.06598C197.686 4.52801 198 3.80063 198 3C198 1.34315 196.657 6.10673e-07 195 3.93402e-07C193.343 1.76132e-07 192 1.34315 192 3C192 3.80063 192.314 4.52801 192.825 5.06598C193.409 5.68049 194 6.39601 194 7.24365L194 14.7564C194 15.604 193.409 16.3195 192.825 16.934C192.314 17.472 192 18.1994 192 19C192 20.6569 193.343 22 195 22C196.657 22 198 20.6569 198 19C198 18.1994 197.686 17.472 197.175 16.934C196.591 16.3195 196 15.604 196 14.7564L196 7.24365Z" fill="#ABB2D0"/>
<path fill-rule="evenodd" clip-rule="evenodd" d="M36 7.24365C36 6.39602 36.5914 5.68049 37.1753 5.06598C37.6864 4.52801 38 3.80063 38 3C38 1.34315 36.6569 6.10673e-07 35 3.93402e-07C33.3431 1.76132e-07 32 1.34315 32 3C32 3.80063 32.3136 4.52801 32.8247 5.06598C33.4086 5.68049 34 6.39601 34 7.24365L34 14.7564C34 15.604 33.4086 16.3195 32.8247 16.934C32.3136 17.472 32 18.1994 32 19C32 20.6569 33.3431 22 35 22C36.6569 22 38 20.6569 38 19C38 18.1994 37.6864 17.472 37.1753 16.934C36.5914 16.3195 36 15.604 36 14.7564L36 7.24365Z" fill="#ABB2D0"/>
<path fill-rule="evenodd" clip-rule="evenodd" d="M247.244 34C246.396 34 245.68 33.4086 245.066 32.8247C244.528 32.3136 243.801 32 243 32C241.343 32 240 33.3431 240 35C240 36.6569 241.343 38 243 38C243.801 38 244.528 37.6864 245.066 37.1753C245.68 36.5914 246.396 36 247.244 36L254.756 36C255.604 36 256.32 36.5914 256.934 37.1753C257.472 37.6864 258.199 38 259 38C260.657 38 262 36.6569 262 35C262 33.3431 260.657 32 259 32C258.199 32 257.472 32.3136 256.934 32.8247C256.32 33.4086 255.604 34 254.756 34L247.244 34Z" fill="#ABB2D0"/>
<path fill-rule="evenodd" clip-rule="evenodd" d="M87.2436 34C86.396 34 85.6805 33.4086 85.066 32.8247C84.528 32.3136 83.8006 32 83 32C81.3431 32 80 33.3431 80 35C80 36.6569 81.3431 38 83 38C83.8006 38 84.528 37.6864 85.066 37.1753C85.6805 36.5914 86.396 36 87.2436 36L94.7564 36C95.604 36 96.3195 36.5914 96.934 37.1753C97.472 37.6864 98.1994 38 99 38C100.657 38 102 36.6569 102 35C102 33.3431 100.657 32 99 32C98.1994 32 97.472 32.3136 96.934 32.8247C96.3195 33.4086 95.604 34 94.7564 34L87.2436 34Z" fill="#ABB2D0"/>
<path fill-rule="evenodd" clip-rule="evenodd" d="M222.756 116C223.604 116 224.32 116.591 224.934 117.175C225.472 117.686 226.199 118 227 118C228.657 118 230 116.657 230 115C230 113.343 228.657 112 227 112C226.199 112 225.472 112.314 224.934 112.825C224.32 113.409 223.604 114 222.756 114L215.244 114C214.396 114 213.68 113.409 213.066 112.825C212.528 112.314 211.801 112 211 112C209.343 112 208 113.343 208 115C208 116.657 209.343 118 211 118C211.801 118 212.528 117.686 213.066 117.175C213.68 116.591 214.396 116 215.244 116L222.756 116Z" fill="#ABB2D0"/>
<path fill-rule="evenodd" clip-rule="evenodd" d="M62.7564 116C63.604 116 64.3195 116.591 64.934 117.175C65.472 117.686 66.1994 118 67 118C68.6569 118 70 116.657 70 115C70 113.343 68.6569 112 67 112C66.1994 112 65.472 112.314 64.934 112.825C64.3195 113.409 63.604 114 62.7564 114L55.2436 114C54.396 114 53.6805 113.409 53.066 112.825C52.528 112.314 51.8006 112 51 112C49.3431 112 48 113.343 48 115C48 116.657 49.3431 118 51 118C51.8006 118 52.528 117.686 53.066 117.175C53.6805 116.591 54.396 116 55.2436 116L62.7564 116Z" fill="#ABB2D0"/>
<path fill-rule="evenodd" clip-rule="evenodd" d="M259 128C258.199 128 257.472 128.314 256.934 128.825C256.32 129.409 255.604 130 254.756 130L247.166 130C246.365 130 245.688 129.445 245.121 128.879C244.555 128.312 244 127.635 244 126.834L244 119.244C244 118.396 244.591 117.68 245.175 117.066C245.686 116.528 246 115.801 246 115C246 113.343 244.657 112 243 112C241.343 112 240 113.343 240 115C240 115.801 240.314 116.528 240.825 117.066C241.409 117.68 242 118.396 242 119.244L242 126.756C242 127.604 241.409 128.32 240.825 128.934C240.314 129.472 240 130.199 240 131C240 132.657 241.343 134 243 134C243.801 134 244.528 133.686 245.066 133.175C245.68 132.591 246.396 132 247.244 132L254.756 132C255.604 132 256.32 132.591 256.934 133.175C257.472 133.686 258.199 134 259 134C260.657 134 262 132.657 262 131C262 129.343 260.657 128 259 128Z" fill="#ABB2D0"/>
<path fill-rule="evenodd" clip-rule="evenodd" d="M99 128C98.1994 128 97.472 128.314 96.934 128.825C96.3195 129.409 95.604 130 94.7564 130L87.1664 130C86.3651 130 85.688 129.445 85.1213 128.879C84.5547 128.312 84 127.635 84 126.834L84 119.244C84 118.396 84.5914 117.68 85.1753 117.066C85.6864 116.528 86 115.801 86 115C86 113.343 84.6569 112 83 112C81.3431 112 80 113.343 80 115C80 115.801 80.3136 116.528 80.8247 117.066C81.4086 117.68 82 118.396 82 119.244L82 126.756C82 127.604 81.4086 128.32 80.8247 128.934C80.3136 129.472 80 130.199 80 131C80 132.657 81.3431 134 83 134C83.8006 134 84.528 133.686 85.066 133.175C85.6805 132.591 86.396 132 87.2436 132L94.7564 132C95.604 132 96.3195 132.591 96.934 133.175C97.472 133.686 98.1994 134 99 134C100.657 134 102 132.657 102 131C102 129.343 100.657 128 99 128Z" fill="#ABB2D0"/>
<path fill-rule="evenodd" clip-rule="evenodd" d="M211 22C211.801 22 212.528 21.6864 213.066 21.1753C213.68 20.5914 214.396 20 215.244 20L222.834 20C223.635 20 224.312 20.5547 224.879 21.1213C225.445 21.688 226 22.3651 226 23.1664L226 30.7564C226 31.604 225.409 32.3195 224.825 32.934C224.314 33.472 224 34.1994 224 35C224 36.6569 225.343 38 227 38C228.657 38 230 36.6569 230 35C230 34.1994 229.686 33.472 229.175 32.934C228.591 32.3195 228 31.604 228 30.7564L228 23.2436C228 22.396 228.591 21.6805 229.175 21.066C229.686 20.528 230 19.8006 230 19C230 17.3431 228.657 16 227 16C226.199 16 225.472 16.3136 224.934 16.8247C224.32 17.4086 223.604 18 222.756 18L215.244 18C214.396 18 213.68 17.4086 213.066 16.8247C212.528 16.3136 211.801 16 211 16C209.343 16 208 17.3431 208 19C208 20.6569 209.343 22 211 22Z" fill="#ABB2D0"/>
<path fill-rule="evenodd" clip-rule="evenodd" d="M51 22C51.8006 22 52.528 21.6864 53.066 21.1753C53.6805 20.5914 54.396 20 55.2436 20L62.8336 20C63.6349 20 64.312 20.5547 64.8787 21.1213C65.4453 21.688 66 22.3651 66 23.1664L66 30.7564C66 31.604 65.4086 32.3195 64.8247 32.934C64.3136 33.472 64 34.1994 64 35C64 36.6569 65.3431 38 67 38C68.6569 38 70 36.6569 70 35C70 34.1994 69.6864 33.472 69.1753 32.934C68.5914 32.3195 68 31.604 68 30.7564L68 23.2436C68 22.396 68.5914 21.6805 69.1753 21.066C69.6864 20.528 70 19.8006 70 19C70 17.3431 68.6569 16 67 16C66.1994 16 65.472 16.3136 64.934 16.8247C64.3195 17.4086 63.604 18 62.7564 18L55.2436 18C54.396 18 53.6805 17.4086 53.066 16.8247C52.528 16.3136 51.8006 16 51 16C49.3431 16 48 17.3431 48 19C48 20.6569 49.3431 22 51 22Z" fill="#ABB2D0"/>
<path fill-rule="evenodd" clip-rule="evenodd" d="M262 19C262 18.1994 261.686 17.472 261.175 16.934C260.591 16.3195 260 15.604 260 14.7564L260 7.1664C260 6.36506 260.555 5.68795 261.121 5.12132C261.688 4.55469 262.365 4 263.166 4L270.756 4C271.604 4 272.32 4.59144 272.934 5.17526C273.472 5.68637 274.199 6 275 6C276.657 6 278 4.65686 278 3C278 1.34315 276.657 1.80588e-06 275 1.66103e-06C274.199 1.59104e-06 273.472 0.313633 272.934 0.824739C272.32 1.40857 271.604 2 270.756 2L263.244 2C262.396 2 261.68 1.40857 261.066 0.824738C260.528 0.313631 259.801 3.32262e-07 259 2.62268e-07C257.343 1.17422e-07 256 1.34315 256 3C256 3.80063 256.314 4.52801 256.825 5.06598C257.409 5.68049 258 6.39601 258 7.24365L258 14.7564C258 15.604 257.409 16.3195 256.825 16.934C256.314 17.472 256 18.1994 256 19C256 20.6569 257.343 22 259 22C260.657 22 262 20.6569 262 19Z" fill="#ABB2D0"/>
<path fill-rule="evenodd" clip-rule="evenodd" d="M102 19C102 18.1994 101.686 17.472 101.175 16.934C100.591 16.3195 100 15.604 100 14.7564L100 7.1664C100 6.36506 100.555 5.68795 101.121 5.12132C101.688 4.55469 102.365 4 103.166 4L110.756 4C111.604 4 112.32 4.59144 112.934 5.17526C113.472 5.68637 114.199 6 115 6C116.657 6 118 4.65686 118 3C118 1.34315 116.657 1.80588e-06 115 1.66103e-06C114.199 1.59104e-06 113.472 0.313633 112.934 0.824739C112.32 1.40857 111.604 2 110.756 2L103.244 2C102.396 2 101.68 1.40857 101.066 0.824738C100.528 0.313631 99.8006 3.32262e-07 99 2.62268e-07C97.3431 1.17422e-07 96 1.34315 96 3C96 3.80063 96.3136 4.52801 96.8247 5.06598C97.4086 5.68049 98 6.39601 98 7.24365L98 14.7564C98 15.604 97.4086 16.3195 96.8247 16.934C96.3136 17.472 96 18.1994 96 19C96 20.6569 97.3431 22 99 22C100.657 22 102 20.6569 102 19Z" fill="#ABB2D0"/>
<path fill-rule="evenodd" clip-rule="evenodd" d="M208 131C208 131.801 208.314 132.528 208.825 133.066C209.409 133.68 210 134.396 210 135.244L210 142.834C210 143.635 209.445 144.312 208.879 144.879C208.312 145.445 207.635 146 206.834 146L199.244 146C198.396 146 197.68 145.409 197.066 144.825C196.528 144.314 195.801 144 195 144C193.343 144 192 145.343 192 147C192 148.657 193.343 150 195 150C195.801 150 196.528 149.686 197.066 149.175C197.68 148.591 198.396 148 199.244 148L206.756 148C207.604 148 208.32 148.591 208.934 149.175C209.472 149.686 210.199 150 211 150C212.657 150 214 148.657 214 147C214 146.199 213.686 145.472 213.175 144.934C212.591 144.32 212 143.604 212 142.756L212 135.244C212 134.396 212.591 133.68 213.175 133.066C213.686 132.528 214 131.801 214 131C214 129.343 212.657 128 211 128C209.343 128 208 129.343 208 131Z" fill="#ABB2D0"/>
<path fill-rule="evenodd" clip-rule="evenodd" d="M48 131C48 131.801 48.3136 132.528 48.8247 133.066C49.4086 133.68 50 134.396 50 135.244L50 142.834C50 143.635 49.4453 144.312 48.8787 144.879C48.312 145.445 47.6349 146 46.8336 146L39.2436 146C38.396 146 37.6805 145.409 37.066 144.825C36.528 144.314 35.8006 144 35 144C33.3431 144 32 145.343 32 147C32 148.657 33.3431 150 35 150C35.8006 150 36.528 149.686 37.066 149.175C37.6805 148.591 38.396 148 39.2436 148L46.7563 148C47.604 148 48.3195 148.591 48.934 149.175C49.472 149.686 50.1994 150 51 150C52.6569 150 54 148.657 54 147C54 146.199 53.6864 145.472 53.1753 144.934C52.5914 144.32 52 143.604 52 142.756L52 135.244C52 134.396 52.5914 133.68 53.1753 133.066C53.6864 132.528 54 131.801 54 131C54 129.343 52.6569 128 51 128C49.3431 128 48 129.343 48 131Z" fill="#ABB2D0"/>
</g>
</svg>
