<svg width="80" height="80" viewBox="0 0 80 80" fill="none" xmlns="http://www.w3.org/2000/svg">
<circle cx="40" cy="40" r="40" fill="white"/>
<path d="M22.7473 55.0265C24.2609 55.0265 25.4945 56.2483 25.4945 57.7643C25.4945 59.2728 24.2685 60.5022 22.7473 60.5022C21.2336 60.5022 20 59.2804 20 57.7643C20 56.2483 21.2261 55.0265 22.7473 55.0265ZM20 49.0077C20 50.5162 21.2261 51.7456 22.7473 51.7456C24.2609 51.7456 25.4945 50.5237 25.4945 49.0077C25.4945 47.4993 24.2685 46.2699 22.7473 46.2699C21.2261 46.2699 20 47.4917 20 49.0077ZM20 40.2511C20 41.7596 21.2261 42.989 22.7473 42.989C24.2609 42.989 25.4945 41.7671 25.4945 40.2511C25.4945 38.7426 24.2685 37.5132 22.7473 37.5132C21.2261 37.5132 20 38.7351 20 40.2511ZM20 31.4945C20 33.0029 21.2261 34.2323 22.7473 34.2323C24.2609 34.2323 25.4945 33.0105 25.4945 31.4945C25.4945 29.986 24.2685 28.7566 22.7473 28.7566C21.2261 28.7566 20 29.9785 20 31.4945ZM28.7867 57.7643C28.7867 59.2728 30.0128 60.5022 31.534 60.5022C33.0476 60.5022 34.2813 59.2804 34.2813 57.7643C34.2813 56.2559 33.0552 55.0265 31.534 55.0265C30.0128 55.0265 28.7867 56.2483 28.7867 57.7643ZM37.5734 57.7643C37.5734 59.2728 38.7995 60.5022 40.3207 60.5022C41.8344 60.5022 43.068 59.2804 43.068 57.7643C43.068 56.2559 41.8419 55.0265 40.3207 55.0265C38.7995 55.0265 37.5734 56.2483 37.5734 57.7643ZM46.3602 57.7643C46.3602 59.2728 47.5862 60.5022 49.1074 60.5022C50.6211 60.5022 51.8547 59.2804 51.8547 57.7643C51.8547 56.2559 50.6286 55.0265 49.1074 55.0265C47.5862 55.0265 46.3602 56.2483 46.3602 57.7643ZM28.7867 22.7379C28.7867 24.2463 30.0128 25.4757 31.534 25.4757C33.0476 25.4757 34.2813 24.2539 34.2813 22.7379C34.2813 21.2294 33.0552 20 31.534 20C30.0128 20 28.7867 21.2219 28.7867 22.7379ZM37.5734 22.7379C37.5734 24.2463 38.7995 25.4757 40.3207 25.4757C41.8344 25.4757 43.068 24.2539 43.068 22.7379C43.068 21.2294 41.8419 20 40.3207 20C38.7995 20 37.5734 21.2219 37.5734 22.7379ZM46.3602 22.7379C46.3602 24.2463 47.5862 25.4757 49.1074 25.4757C50.6211 25.4757 51.8547 24.2539 51.8547 22.7379C51.8547 21.2294 50.6286 20 49.1074 20C47.5862 20 46.3602 21.2219 46.3602 22.7379ZM55.1469 49.0077C55.1469 50.5162 56.3729 51.7456 57.8941 51.7456C59.4078 51.7456 60.6414 50.5237 60.6414 49.0077C60.6414 47.4993 59.4154 46.2699 57.8941 46.2699C56.3729 46.2699 55.1469 47.4917 55.1469 49.0077ZM55.1469 40.2511C55.1469 41.7596 56.3729 42.989 57.8941 42.989C59.4078 42.989 60.6414 41.7671 60.6414 40.2511C60.6414 38.7426 59.4154 37.5132 57.8941 37.5132C56.3729 37.5132 55.1469 38.7351 55.1469 40.2511ZM55.1469 31.4945C55.1469 33.0029 56.3729 34.2323 57.8941 34.2323C59.4078 34.2323 60.6414 33.0105 60.6414 31.4945C60.6414 29.986 59.4154 28.7566 57.8941 28.7566C56.3729 28.7566 55.1469 29.9785 55.1469 31.4945ZM57.8941 20C56.3805 20 55.1469 21.2219 55.1469 22.7379C55.1469 24.2463 56.3729 25.4757 57.8941 25.4757C59.4078 25.4757 60.6414 24.2539 60.6414 22.7379C60.6338 21.2219 59.4078 20 57.8941 20Z" fill="#0074FF"/>
<path d="M32.2681 51.6475C30.4366 52.1227 28.7867 50.7575 28.7867 49.0077C28.7867 48.0725 29.2559 47.2504 29.9749 46.7526C30.5955 46.3302 31.0193 45.6816 31.0193 44.9273V44.3164C31.0193 43.5697 30.5955 42.9211 29.9749 42.4912C29.2559 42.0009 28.7867 41.1713 28.7867 40.236C28.7867 38.4862 30.4366 37.121 32.2681 37.5962C33.2065 37.8376 33.9634 38.6069 34.1904 39.5421C34.4931 40.7489 33.9785 41.8727 33.093 42.4836C32.5027 42.8909 32.1243 43.5395 32.1243 44.2485V44.9801C32.1243 45.6966 32.5027 46.3377 33.093 46.745C33.9785 47.356 34.4856 48.4798 34.1904 49.6865C33.9634 50.6369 33.199 51.4062 32.2681 51.6475ZM40.3207 46.2699C38.5573 46.2699 37.1799 47.9292 37.6794 49.7695C37.914 50.6369 38.6103 51.3534 39.4806 51.6174C40.7521 51.9945 41.9554 51.4741 42.5912 50.5464C42.9998 49.943 43.6583 49.5583 44.3848 49.5583H45.0433C45.7698 49.5583 46.4282 49.943 46.8369 50.5464C47.4727 51.4741 48.676 51.9945 49.9475 51.6174C50.8103 51.3609 51.5065 50.6444 51.7487 49.7695C52.2482 47.9292 50.8708 46.2699 49.1074 46.2699C48.1765 46.2699 47.3591 46.7299 46.8596 47.4314C46.4282 48.0348 45.7849 48.4496 45.0357 48.4496H44.3848C43.6431 48.4496 42.9923 48.0348 42.5609 47.4314C42.0689 46.7299 41.244 46.2699 40.3207 46.2699ZM36.143 30.9363H35.7041C34.9094 30.9363 34.2131 30.4989 33.7363 29.8578C33.0854 28.9829 31.9199 28.5077 30.6863 28.8773C29.8235 29.1337 29.1273 29.8503 28.8851 30.7252C28.3856 32.5655 29.763 34.2248 31.5264 34.2248C32.4573 34.2248 33.2747 33.7647 33.7742 33.0633C34.2055 32.4599 34.8488 32.0451 35.5981 32.0451H36.143C36.9377 32.0451 37.634 32.475 38.1032 33.1161C38.2697 33.3348 38.4665 33.5309 38.6859 33.6968C39.3217 34.1645 39.7606 34.8583 39.7606 35.6503V36.0953C39.7606 36.8872 39.3217 37.5811 38.6784 38.0563C37.8005 38.7049 37.3237 39.8664 37.6945 41.0958C37.9518 41.9557 38.6708 42.6496 39.5487 42.8909C41.3954 43.3887 43.0604 42.016 43.0604 40.2586C43.0604 39.3309 42.5987 38.5164 41.8949 38.0186C41.2894 37.5887 40.8732 36.9476 40.8732 36.2009V35.6578C40.8732 34.8659 41.3121 34.172 41.9554 33.6968C42.8333 33.0482 43.3101 31.8867 42.9393 30.6573C42.6895 29.8201 42.0008 29.1337 41.1608 28.8848C39.9271 28.5153 38.7616 28.9904 38.1108 29.8653C37.634 30.4989 36.9452 30.9363 36.143 30.9363ZM46.4812 30.6497C46.1028 31.9168 46.6175 33.1161 47.5559 33.7496C48.1614 34.1569 48.5474 34.8131 48.5474 35.5372V36.1933C48.5474 36.9174 48.1614 37.5736 47.5559 37.9809C46.625 38.6144 46.1028 39.8136 46.4812 41.0808C46.7385 41.9406 47.4575 42.6345 48.3354 42.8758C50.1821 43.3736 51.8471 42.0009 51.8471 40.2436C51.8471 39.3159 51.3854 38.5013 50.6816 38.0035C50.0761 37.5736 49.6599 36.9325 49.6599 36.1858V35.5372C49.6599 34.798 50.0761 34.1494 50.6816 33.7195C51.3854 33.2217 51.8471 32.4071 51.8471 31.4794C51.8471 29.722 50.1821 28.3493 48.3354 28.8471C47.4651 29.096 46.7461 29.7899 46.4812 30.6497Z" fill="#00BDFF"/>
</svg>
