<svg width="310" height="150" viewBox="0 0 310 150" fill="none" xmlns="http://www.w3.org/2000/svg">
<g opacity="0.2">
<circle cx="3" cy="147" r="3" transform="rotate(-90 3 147)" fill="white"/>
<circle cx="163" cy="147" r="3" transform="rotate(-90 163 147)" fill="white"/>
<circle cx="147" cy="3" r="3" transform="rotate(90 147 3)" fill="white"/>
<circle cx="307" cy="3" r="3" transform="rotate(90 307 3)" fill="white"/>
<circle cx="67" cy="67" r="3" transform="rotate(180 67 67)" fill="white"/>
<circle cx="227" cy="67" r="3" transform="rotate(180 227 67)" fill="white"/>
<circle cx="83" cy="83" r="3" fill="white"/>
<circle cx="243" cy="83" r="3" fill="white"/>
<circle cx="19" cy="147" r="3" transform="rotate(-90 19 147)" fill="white"/>
<circle cx="179" cy="147" r="3" transform="rotate(-90 179 147)" fill="white"/>
<circle cx="131" cy="3" r="3" transform="rotate(90 131 3)" fill="white"/>
<circle cx="291" cy="3" r="3" transform="rotate(90 291 3)" fill="white"/>
<circle cx="67" cy="51" r="3" transform="rotate(180 67 51)" fill="white"/>
<circle cx="227" cy="51" r="3" transform="rotate(180 227 51)" fill="white"/>
<circle cx="83" cy="99" r="3" fill="white"/>
<circle cx="243" cy="99" r="3" fill="white"/>
<circle cx="51" cy="147" r="3" transform="rotate(-90 51 147)" fill="white"/>
<circle cx="211" cy="147" r="3" transform="rotate(-90 211 147)" fill="white"/>
<circle cx="99" cy="3" r="3" transform="rotate(90 99 3)" fill="white"/>
<circle cx="259" cy="3" r="3" transform="rotate(90 259 3)" fill="white"/>
<circle cx="67" cy="19" r="3" transform="rotate(180 67 19)" fill="white"/>
<circle cx="227" cy="19" r="3" transform="rotate(180 227 19)" fill="white"/>
<circle cx="83" cy="131" r="3" fill="white"/>
<circle cx="243" cy="131" r="3" fill="white"/>
<circle cx="67" cy="147" r="3" transform="rotate(-90 67 147)" fill="white"/>
<circle cx="227" cy="147" r="3" transform="rotate(-90 227 147)" fill="white"/>
<circle cx="83" cy="3" r="3" transform="rotate(90 83 3)" fill="white"/>
<circle cx="243" cy="3" r="3" transform="rotate(90 243 3)" fill="white"/>
<circle cx="67" cy="3" r="3" transform="rotate(180 67 3)" fill="white"/>
<circle cx="227" cy="3" r="3" transform="rotate(180 227 3)" fill="white"/>
<circle cx="83" cy="147" r="3" fill="white"/>
<circle cx="243" cy="147" r="3" fill="white"/>
<circle cx="19" cy="131" r="3" transform="rotate(-90 19 131)" fill="white"/>
<circle cx="179" cy="131" r="3" transform="rotate(-90 179 131)" fill="white"/>
<circle cx="131" cy="19" r="3" transform="rotate(90 131 19)" fill="white"/>
<circle cx="291" cy="19" r="3" transform="rotate(90 291 19)" fill="white"/>
<circle cx="51" cy="51" r="3" transform="rotate(180 51 51)" fill="white"/>
<circle cx="211" cy="51" r="3" transform="rotate(180 211 51)" fill="white"/>
<circle cx="99" cy="99" r="3" fill="white"/>
<circle cx="259" cy="99" r="3" fill="white"/>
<circle cx="35" cy="115" r="3" transform="rotate(-90 35 115)" fill="white"/>
<circle cx="195" cy="115" r="3" transform="rotate(-90 195 115)" fill="white"/>
<circle cx="115" cy="35" r="3" transform="rotate(90 115 35)" fill="white"/>
<circle cx="275" cy="35" r="3" transform="rotate(90 275 35)" fill="white"/>
<circle cx="35" cy="35" r="3" transform="rotate(180 35 35)" fill="white"/>
<circle cx="195" cy="35" r="3" transform="rotate(180 195 35)" fill="white"/>
<circle cx="115" cy="115" r="3" fill="white"/>
<circle cx="275" cy="115" r="3" fill="white"/>
<circle cx="51" cy="115" r="3" transform="rotate(-90 51 115)" fill="white"/>
<circle cx="211" cy="115" r="3" transform="rotate(-90 211 115)" fill="white"/>
<circle cx="99" cy="35" r="3" transform="rotate(90 99 35)" fill="white"/>
<circle cx="259" cy="35" r="3" transform="rotate(90 259 35)" fill="white"/>
<circle cx="35" cy="19" r="3" transform="rotate(180 35 19)" fill="white"/>
<circle cx="195" cy="19" r="3" transform="rotate(180 195 19)" fill="white"/>
<circle cx="115" cy="131" r="3" fill="white"/>
<circle cx="275" cy="131" r="3" fill="white"/>
<circle cx="3" cy="99" r="3" transform="rotate(-90 3 99)" fill="white"/>
<circle cx="163" cy="99" r="3" transform="rotate(-90 163 99)" fill="white"/>
<circle cx="147" cy="51" r="3" transform="rotate(90 147 51)" fill="white"/>
<circle cx="307" cy="51" r="3" transform="rotate(90 307 51)" fill="white"/>
<circle cx="19" cy="67" r="3" transform="rotate(180 19 67)" fill="white"/>
<circle cx="179" cy="67" r="3" transform="rotate(180 179 67)" fill="white"/>
<circle cx="131" cy="83" r="3" fill="white"/>
<circle cx="291" cy="83" r="3" fill="white"/>
<circle cx="19" cy="99" r="3" transform="rotate(-90 19 99)" fill="white"/>
<circle cx="179" cy="99" r="3" transform="rotate(-90 179 99)" fill="white"/>
<circle cx="131" cy="51" r="3" transform="rotate(90 131 51)" fill="white"/>
<circle cx="291" cy="51" r="3" transform="rotate(90 291 51)" fill="white"/>
<circle cx="19" cy="51" r="3" transform="rotate(180 19 51)" fill="white"/>
<circle cx="179" cy="51" r="3" transform="rotate(180 179 51)" fill="white"/>
<circle cx="131" cy="99" r="3" fill="white"/>
<circle cx="291" cy="99" r="3" fill="white"/>
<circle cx="35" cy="99" r="3" transform="rotate(-90 35 99)" fill="white"/>
<circle cx="195" cy="99" r="3" transform="rotate(-90 195 99)" fill="white"/>
<circle cx="115" cy="51" r="3" transform="rotate(90 115 51)" fill="white"/>
<circle cx="275" cy="51" r="3" transform="rotate(90 275 51)" fill="white"/>
<circle cx="19" cy="35" r="3" transform="rotate(180 19 35)" fill="white"/>
<circle cx="179" cy="35" r="3" transform="rotate(180 179 35)" fill="white"/>
<circle cx="131" cy="115" r="3" fill="white"/>
<circle cx="291" cy="115" r="3" fill="white"/>
<circle cx="51" cy="99" r="3" transform="rotate(-90 51 99)" fill="white"/>
<circle cx="211" cy="99" r="3" transform="rotate(-90 211 99)" fill="white"/>
<circle cx="99" cy="51" r="3" transform="rotate(90 99 51)" fill="white"/>
<circle cx="259" cy="51" r="3" transform="rotate(90 259 51)" fill="white"/>
<circle cx="19" cy="19" r="3" transform="rotate(180 19 19)" fill="white"/>
<circle cx="179" cy="19" r="3" transform="rotate(180 179 19)" fill="white"/>
<circle cx="131" cy="131" r="3" fill="white"/>
<circle cx="291" cy="131" r="3" fill="white"/>
<circle cx="67" cy="99" r="3" transform="rotate(-90 67 99)" fill="white"/>
<circle cx="227" cy="99" r="3" transform="rotate(-90 227 99)" fill="white"/>
<circle cx="83" cy="51" r="3" transform="rotate(90 83 51)" fill="white"/>
<circle cx="243" cy="51" r="3" transform="rotate(90 243 51)" fill="white"/>
<circle cx="19" cy="3" r="3" transform="rotate(180 19 3)" fill="white"/>
<circle cx="179" cy="3" r="3" transform="rotate(180 179 3)" fill="white"/>
<circle cx="131" cy="147" r="3" fill="white"/>
<circle cx="291" cy="147" r="3" fill="white"/>
<circle cx="3" cy="83" r="3" transform="rotate(-90 3 83)" fill="white"/>
<circle cx="163" cy="83" r="3" transform="rotate(-90 163 83)" fill="white"/>
<circle cx="147" cy="67" r="3" transform="rotate(90 147 67)" fill="white"/>
<circle cx="307" cy="67" r="3" transform="rotate(90 307 67)" fill="white"/>
<circle cx="3" cy="67" r="3" transform="rotate(180 3 67)" fill="white"/>
<circle cx="163" cy="67" r="3" transform="rotate(180 163 67)" fill="white"/>
<circle cx="147" cy="83" r="3" fill="white"/>
<circle cx="307" cy="83" r="3" fill="white"/>
<circle cx="51" cy="83" r="3" transform="rotate(-90 51 83)" fill="white"/>
<circle cx="211" cy="83" r="3" transform="rotate(-90 211 83)" fill="white"/>
<circle cx="99" cy="67" r="3" transform="rotate(90 99 67)" fill="white"/>
<circle cx="259" cy="67" r="3" transform="rotate(90 259 67)" fill="white"/>
<circle cx="3" cy="19" r="3" transform="rotate(180 3 19)" fill="white"/>
<circle cx="163" cy="19" r="3" transform="rotate(180 163 19)" fill="white"/>
<circle cx="147" cy="131" r="3" fill="white"/>
<circle cx="307" cy="131" r="3" fill="white"/>
<circle cx="67" cy="83" r="3" transform="rotate(-90 67 83)" fill="white"/>
<circle cx="227" cy="83" r="3" transform="rotate(-90 227 83)" fill="white"/>
<circle cx="83" cy="67" r="3" transform="rotate(90 83 67)" fill="white"/>
<circle cx="243" cy="67" r="3" transform="rotate(90 243 67)" fill="white"/>
<circle cx="3" cy="3" r="3" transform="rotate(180 3 3)" fill="white"/>
<circle cx="163" cy="3" r="3" transform="rotate(180 163 3)" fill="white"/>
<circle cx="147" cy="147" r="3" fill="white"/>
<circle cx="307" cy="147" r="3" fill="white"/>
<path fill-rule="evenodd" clip-rule="evenodd" d="M4 126.756C4 127.604 4.59143 128.32 5.17526 128.934C5.68637 129.472 6 130.199 6 131C6 132.657 4.65685 134 3 134C1.34315 134 -5.87108e-08 132.657 -1.31134e-07 131C-1.66131e-07 130.199 0.313631 129.472 0.824737 128.934C1.40856 128.32 2 127.604 2 126.756L2 119.244C2 118.396 1.40856 117.68 0.824736 117.066C0.31363 116.528 -7.9552e-07 115.801 -8.30516e-07 115C-9.0294e-07 113.343 1.34314 112 3 112C3.80063 112 4.52801 112.314 5.06598 112.825C5.68049 113.409 6.39601 114 7.24365 114L14.7564 114C15.604 114 16.3195 113.409 16.934 112.825C17.472 112.314 18.1994 112 19 112C20.6569 112 22 113.343 22 115C22 116.657 20.6569 118 19 118C18.1994 118 17.472 117.686 16.934 117.175C16.3195 116.591 15.604 116 14.7564 116L7.1664 116C6.36506 116 5.68795 116.555 5.12132 117.121C4.55469 117.688 4 118.365 4 119.166L4 126.756Z" fill="white"/>
<path fill-rule="evenodd" clip-rule="evenodd" d="M164 126.756C164 127.604 164.591 128.32 165.175 128.934C165.686 129.472 166 130.199 166 131C166 132.657 164.657 134 163 134C161.343 134 160 132.657 160 131C160 130.199 160.314 129.472 160.825 128.934C161.409 128.32 162 127.604 162 126.756L162 119.244C162 118.396 161.409 117.68 160.825 117.066C160.314 116.528 160 115.801 160 115C160 113.343 161.343 112 163 112C163.801 112 164.528 112.314 165.066 112.825C165.68 113.409 166.396 114 167.244 114L174.756 114C175.604 114 176.32 113.409 176.934 112.825C177.472 112.314 178.199 112 179 112C180.657 112 182 113.343 182 115C182 116.657 180.657 118 179 118C178.199 118 177.472 117.686 176.934 117.175C176.32 116.591 175.604 116 174.756 116L167.166 116C166.365 116 165.688 116.555 165.121 117.121C164.555 117.688 164 118.365 164 119.166L164 126.756Z" fill="white"/>
<path fill-rule="evenodd" clip-rule="evenodd" d="M146 23.2436C146 22.396 145.409 21.6805 144.825 21.066C144.314 20.528 144 19.8006 144 19C144 17.3431 145.343 16 147 16C148.657 16 150 17.3431 150 19C150 19.8006 149.686 20.528 149.175 21.066C148.591 21.6805 148 22.396 148 23.2436L148 30.7564C148 31.604 148.591 32.3195 149.175 32.934C149.686 33.472 150 34.1994 150 35C150 36.6569 148.657 38 147 38C146.199 38 145.472 37.6864 144.934 37.1753C144.32 36.5914 143.604 36 142.756 36L135.244 36C134.396 36 133.68 36.5914 133.066 37.1753C132.528 37.6864 131.801 38 131 38C129.343 38 128 36.6569 128 35C128 33.3431 129.343 32 131 32C131.801 32 132.528 32.3136 133.066 32.8247C133.68 33.4086 134.396 34 135.244 34L142.834 34C143.635 34 144.312 33.4453 144.879 32.8787C145.445 32.312 146 31.6349 146 30.8336L146 23.2436Z" fill="white"/>
<path fill-rule="evenodd" clip-rule="evenodd" d="M306 23.2436C306 22.396 305.409 21.6805 304.825 21.066C304.314 20.528 304 19.8006 304 19C304 17.3431 305.343 16 307 16C308.657 16 310 17.3431 310 19C310 19.8006 309.686 20.528 309.175 21.066C308.591 21.6805 308 22.396 308 23.2436L308 30.7564C308 31.604 308.591 32.3195 309.175 32.934C309.686 33.472 310 34.1994 310 35C310 36.6569 308.657 38 307 38C306.199 38 305.472 37.6864 304.934 37.1753C304.32 36.5914 303.604 36 302.756 36L295.244 36C294.396 36 293.68 36.5914 293.066 37.1753C292.528 37.6864 291.801 38 291 38C289.343 38 288 36.6569 288 35C288 33.3431 289.343 32 291 32C291.801 32 292.528 32.3136 293.066 32.8247C293.68 33.4086 294.396 34 295.244 34L302.834 34C303.635 34 304.312 33.4453 304.879 32.8787C305.445 32.312 306 31.6349 306 30.8336L306 23.2436Z" fill="white"/>
<path fill-rule="evenodd" clip-rule="evenodd" d="M46.7564 66C47.604 66 48.3195 65.4086 48.934 64.8247C49.472 64.3136 50.1994 64 51 64C52.6569 64 54 65.3431 54 67C54 68.6569 52.6569 70 51 70C50.1994 70 49.472 69.6864 48.934 69.1753C48.3195 68.5914 47.604 68 46.7564 68L39.2436 68C38.396 68 37.6805 68.5914 37.066 69.1753C36.528 69.6864 35.8006 70 35 70C33.3431 70 32 68.6569 32 67C32 66.1994 32.3136 65.472 32.8247 64.934C33.4086 64.3195 34 63.604 34 62.7564L34 55.2436C34 54.396 33.4086 53.6805 32.8247 53.066C32.3136 52.528 32 51.8006 32 51C32 49.3431 33.3431 48 35 48C36.6569 48 38 49.3431 38 51C38 51.8006 37.6864 52.528 37.1753 53.066C36.5914 53.6805 36 54.396 36 55.2436L36 62.8336C36 63.6349 36.5547 64.312 37.1213 64.8787C37.688 65.4453 38.3651 66 39.1664 66L46.7564 66Z" fill="white"/>
<path fill-rule="evenodd" clip-rule="evenodd" d="M206.756 66C207.604 66 208.32 65.4086 208.934 64.8247C209.472 64.3136 210.199 64 211 64C212.657 64 214 65.3431 214 67C214 68.6569 212.657 70 211 70C210.199 70 209.472 69.6864 208.934 69.1753C208.32 68.5914 207.604 68 206.756 68L199.244 68C198.396 68 197.68 68.5914 197.066 69.1753C196.528 69.6864 195.801 70 195 70C193.343 70 192 68.6569 192 67C192 66.1994 192.314 65.472 192.825 64.934C193.409 64.3195 194 63.604 194 62.7564L194 55.2436C194 54.396 193.409 53.6805 192.825 53.066C192.314 52.528 192 51.8006 192 51C192 49.3431 193.343 48 195 48C196.657 48 198 49.3431 198 51C198 51.8006 197.686 52.528 197.175 53.066C196.591 53.6805 196 54.396 196 55.2436L196 62.8336C196 63.6349 196.555 64.312 197.121 64.8787C197.688 65.4453 198.365 66 199.166 66L206.756 66Z" fill="white"/>
<path fill-rule="evenodd" clip-rule="evenodd" d="M103.244 84C102.396 84 101.68 84.5914 101.066 85.1753C100.528 85.6864 99.8006 86 99 86C97.3431 86 96 84.6569 96 83C96 81.3431 97.3431 80 99 80C99.8006 80 100.528 80.3136 101.066 80.8247C101.68 81.4086 102.396 82 103.244 82L110.756 82C111.604 82 112.32 81.4086 112.934 80.8247C113.472 80.3136 114.199 80 115 80C116.657 80 118 81.3431 118 83C118 83.8006 117.686 84.528 117.175 85.066C116.591 85.6805 116 86.396 116 87.2436L116 94.7563C116 95.604 116.591 96.3195 117.175 96.934C117.686 97.472 118 98.1994 118 99C118 100.657 116.657 102 115 102C113.343 102 112 100.657 112 99C112 98.1994 112.314 97.472 112.825 96.934C113.409 96.3195 114 95.604 114 94.7564L114 87.1664C114 86.3651 113.445 85.6879 112.879 85.1213C112.312 84.5547 111.635 84 110.834 84L103.244 84Z" fill="white"/>
<path fill-rule="evenodd" clip-rule="evenodd" d="M263.244 84C262.396 84 261.68 84.5914 261.066 85.1753C260.528 85.6864 259.801 86 259 86C257.343 86 256 84.6569 256 83C256 81.3431 257.343 80 259 80C259.801 80 260.528 80.3136 261.066 80.8247C261.68 81.4086 262.396 82 263.244 82L270.756 82C271.604 82 272.32 81.4086 272.934 80.8247C273.472 80.3136 274.199 80 275 80C276.657 80 278 81.3431 278 83C278 83.8006 277.686 84.528 277.175 85.066C276.591 85.6805 276 86.396 276 87.2436L276 94.7563C276 95.604 276.591 96.3195 277.175 96.934C277.686 97.472 278 98.1994 278 99C278 100.657 276.657 102 275 102C273.343 102 272 100.657 272 99C272 98.1994 272.314 97.472 272.825 96.934C273.409 96.3195 274 95.604 274 94.7564L274 87.1664C274 86.3651 273.445 85.6879 272.879 85.1213C272.312 84.5547 271.635 84 270.834 84L263.244 84Z" fill="white"/>
<path fill-rule="evenodd" clip-rule="evenodd" d="M23.2436 82C22.396 82 21.6805 81.4086 21.066 80.8247C20.528 80.3136 19.8006 80 19 80C17.3431 80 16 81.3431 16 83C16 84.6569 17.3431 86 19 86C19.8006 86 20.528 85.6864 21.066 85.1753C21.6805 84.5914 22.396 84 23.2436 84L30.7564 84C31.604 84 32.3195 84.5914 32.934 85.1753C33.472 85.6864 34.1994 86 35 86C36.6569 86 38 84.6569 38 83C38 81.3431 36.6569 80 35 80C34.1994 80 33.472 80.3136 32.934 80.8247C32.3195 81.4086 31.604 82 30.7564 82L23.2436 82Z" fill="white"/>
<path fill-rule="evenodd" clip-rule="evenodd" d="M183.244 82C182.396 82 181.68 81.4086 181.066 80.8247C180.528 80.3136 179.801 80 179 80C177.343 80 176 81.3431 176 83C176 84.6569 177.343 86 179 86C179.801 86 180.528 85.6864 181.066 85.1753C181.68 84.5914 182.396 84 183.244 84L190.756 84C191.604 84 192.32 84.5914 192.934 85.1753C193.472 85.6864 194.199 86 195 86C196.657 86 198 84.6569 198 83C198 81.3431 196.657 80 195 80C194.199 80 193.472 80.3136 192.934 80.8247C192.32 81.4086 191.604 82 190.756 82L183.244 82Z" fill="white"/>
<path fill-rule="evenodd" clip-rule="evenodd" d="M126.756 68C127.604 68 128.32 68.5914 128.934 69.1753C129.472 69.6864 130.199 70 131 70C132.657 70 134 68.6569 134 67C134 65.3431 132.657 64 131 64C130.199 64 129.472 64.3136 128.934 64.8247C128.32 65.4086 127.604 66 126.756 66L119.244 66C118.396 66 117.68 65.4086 117.066 64.8247C116.528 64.3136 115.801 64 115 64C113.343 64 112 65.3431 112 67C112 68.6569 113.343 70 115 70C115.801 70 116.528 69.6864 117.066 69.1753C117.68 68.5914 118.396 68 119.244 68L126.756 68Z" fill="white"/>
<path fill-rule="evenodd" clip-rule="evenodd" d="M286.756 68C287.604 68 288.32 68.5914 288.934 69.1753C289.472 69.6864 290.199 70 291 70C292.657 70 294 68.6569 294 67C294 65.3431 292.657 64 291 64C290.199 64 289.472 64.3136 288.934 64.8247C288.32 65.4086 287.604 66 286.756 66L279.244 66C278.396 66 277.68 65.4086 277.066 64.8247C276.528 64.3136 275.801 64 275 64C273.343 64 272 65.3431 272 67C272 68.6569 273.343 70 275 70C275.801 70 276.528 69.6864 277.066 69.1753C277.68 68.5914 278.396 68 279.244 68L286.756 68Z" fill="white"/>
<path fill-rule="evenodd" clip-rule="evenodd" d="M2 46.7564C2 47.604 1.40857 48.3195 0.824737 48.934C0.313631 49.472 -3.32262e-07 50.1994 -2.62268e-07 51C-1.17422e-07 52.6569 1.34315 54 3 54C4.65685 54 6 52.6569 6 51C6 50.1994 5.68637 49.472 5.17526 48.934C4.59143 48.3195 4 47.604 4 46.7564L4 39.2436C4 38.396 4.59143 37.6805 5.17526 37.066C5.68637 36.528 6 35.8006 6 35C6 33.3431 4.65685 32 3 32C1.34314 32 -1.80588e-06 33.3431 -1.66103e-06 35C-1.59104e-06 35.8006 0.31363 36.528 0.824736 37.066C1.40856 37.6805 2 38.396 2 39.2436L2 46.7564Z" fill="white"/>
<path fill-rule="evenodd" clip-rule="evenodd" d="M162 46.7564C162 47.604 161.409 48.3195 160.825 48.934C160.314 49.472 160 50.1994 160 51C160 52.6569 161.343 54 163 54C164.657 54 166 52.6569 166 51C166 50.1994 165.686 49.472 165.175 48.934C164.591 48.3195 164 47.604 164 46.7564L164 39.2436C164 38.396 164.591 37.6805 165.175 37.066C165.686 36.528 166 35.8006 166 35C166 33.3431 164.657 32 163 32C161.343 32 160 33.3431 160 35C160 35.8006 160.314 36.528 160.825 37.066C161.409 37.6805 162 38.396 162 39.2436L162 46.7564Z" fill="white"/>
<path fill-rule="evenodd" clip-rule="evenodd" d="M148 103.244C148 102.396 148.591 101.68 149.175 101.066C149.686 100.528 150 99.8006 150 99C150 97.3431 148.657 96 147 96C145.343 96 144 97.3431 144 99C144 99.8006 144.314 100.528 144.825 101.066C145.409 101.68 146 102.396 146 103.244L146 110.756C146 111.604 145.409 112.32 144.825 112.934C144.314 113.472 144 114.199 144 115C144 116.657 145.343 118 147 118C148.657 118 150 116.657 150 115C150 114.199 149.686 113.472 149.175 112.934C148.591 112.32 148 111.604 148 110.756L148 103.244Z" fill="white"/>
<path fill-rule="evenodd" clip-rule="evenodd" d="M308 103.244C308 102.396 308.591 101.68 309.175 101.066C309.686 100.528 310 99.8006 310 99C310 97.3431 308.657 96 307 96C305.343 96 304 97.3431 304 99C304 99.8006 304.314 100.528 304.825 101.066C305.409 101.68 306 102.396 306 103.244L306 110.756C306 111.604 305.409 112.32 304.825 112.934C304.314 113.472 304 114.199 304 115C304 116.657 305.343 118 307 118C308.657 118 310 116.657 310 115C310 114.199 309.686 113.472 309.175 112.934C308.591 112.32 308 111.604 308 110.756L308 103.244Z" fill="white"/>
<path fill-rule="evenodd" clip-rule="evenodd" d="M36 142.756C36 143.604 36.5914 144.32 37.1753 144.934C37.6864 145.472 38 146.199 38 147C38 148.657 36.6569 150 35 150C33.3431 150 32 148.657 32 147C32 146.199 32.3136 145.472 32.8247 144.934C33.4086 144.32 34 143.604 34 142.756L34 135.244C34 134.396 33.4086 133.68 32.8247 133.066C32.3136 132.528 32 131.801 32 131C32 129.343 33.3431 128 35 128C36.6569 128 38 129.343 38 131C38 131.801 37.6864 132.528 37.1753 133.066C36.5914 133.68 36 134.396 36 135.244L36 142.756Z" fill="white"/>
<path fill-rule="evenodd" clip-rule="evenodd" d="M196 142.756C196 143.604 196.591 144.32 197.175 144.934C197.686 145.472 198 146.199 198 147C198 148.657 196.657 150 195 150C193.343 150 192 148.657 192 147C192 146.199 192.314 145.472 192.825 144.934C193.409 144.32 194 143.604 194 142.756L194 135.244C194 134.396 193.409 133.68 192.825 133.066C192.314 132.528 192 131.801 192 131C192 129.343 193.343 128 195 128C196.657 128 198 129.343 198 131C198 131.801 197.686 132.528 197.175 133.066C196.591 133.68 196 134.396 196 135.244L196 142.756Z" fill="white"/>
<path fill-rule="evenodd" clip-rule="evenodd" d="M114 7.24365C114 6.39602 113.409 5.68049 112.825 5.06598C112.314 4.52801 112 3.80063 112 3C112 1.34315 113.343 6.10673e-07 115 3.93402e-07C116.657 1.76132e-07 118 1.34315 118 3C118 3.80063 117.686 4.52801 117.175 5.06598C116.591 5.68049 116 6.39601 116 7.24365L116 14.7564C116 15.604 116.591 16.3195 117.175 16.934C117.686 17.472 118 18.1994 118 19C118 20.6569 116.657 22 115 22C113.343 22 112 20.6569 112 19C112 18.1994 112.314 17.472 112.825 16.934C113.409 16.3195 114 15.604 114 14.7564L114 7.24365Z" fill="white"/>
<path fill-rule="evenodd" clip-rule="evenodd" d="M274 7.24365C274 6.39602 273.409 5.68049 272.825 5.06598C272.314 4.52801 272 3.80063 272 3C272 1.34315 273.343 6.10673e-07 275 3.93402e-07C276.657 1.76132e-07 278 1.34315 278 3C278 3.80063 277.686 4.52801 277.175 5.06598C276.591 5.68049 276 6.39601 276 7.24365L276 14.7564C276 15.604 276.591 16.3195 277.175 16.934C277.686 17.472 278 18.1994 278 19C278 20.6569 276.657 22 275 22C273.343 22 272 20.6569 272 19C272 18.1994 272.314 17.472 272.825 16.934C273.409 16.3195 274 15.604 274 14.7564L274 7.24365Z" fill="white"/>
<path fill-rule="evenodd" clip-rule="evenodd" d="M62.7564 34C63.604 34 64.3195 33.4086 64.934 32.8247C65.472 32.3136 66.1994 32 67 32C68.6569 32 70 33.3431 70 35C70 36.6569 68.6569 38 67 38C66.1994 38 65.472 37.6864 64.934 37.1753C64.3195 36.5914 63.604 36 62.7564 36L55.2436 36C54.396 36 53.6805 36.5914 53.066 37.1753C52.528 37.6864 51.8006 38 51 38C49.3431 38 48 36.6569 48 35C48 33.3431 49.3431 32 51 32C51.8006 32 52.528 32.3136 53.066 32.8247C53.6805 33.4086 54.396 34 55.2436 34L62.7564 34Z" fill="white"/>
<path fill-rule="evenodd" clip-rule="evenodd" d="M222.756 34C223.604 34 224.32 33.4086 224.934 32.8247C225.472 32.3136 226.199 32 227 32C228.657 32 230 33.3431 230 35C230 36.6569 228.657 38 227 38C226.199 38 225.472 37.6864 224.934 37.1753C224.32 36.5914 223.604 36 222.756 36L215.244 36C214.396 36 213.68 36.5914 213.066 37.1753C212.528 37.6864 211.801 38 211 38C209.343 38 208 36.6569 208 35C208 33.3431 209.343 32 211 32C211.801 32 212.528 32.3136 213.066 32.8247C213.68 33.4086 214.396 34 215.244 34L222.756 34Z" fill="white"/>
<path fill-rule="evenodd" clip-rule="evenodd" d="M87.2436 116C86.396 116 85.6805 116.591 85.066 117.175C84.528 117.686 83.8006 118 83 118C81.3431 118 80 116.657 80 115C80 113.343 81.3431 112 83 112C83.8006 112 84.528 112.314 85.066 112.825C85.6805 113.409 86.396 114 87.2436 114L94.7564 114C95.604 114 96.3195 113.409 96.934 112.825C97.472 112.314 98.1994 112 99 112C100.657 112 102 113.343 102 115C102 116.657 100.657 118 99 118C98.1994 118 97.472 117.686 96.934 117.175C96.3195 116.591 95.604 116 94.7564 116L87.2436 116Z" fill="white"/>
<path fill-rule="evenodd" clip-rule="evenodd" d="M247.244 116C246.396 116 245.68 116.591 245.066 117.175C244.528 117.686 243.801 118 243 118C241.343 118 240 116.657 240 115C240 113.343 241.343 112 243 112C243.801 112 244.528 112.314 245.066 112.825C245.68 113.409 246.396 114 247.244 114L254.756 114C255.604 114 256.32 113.409 256.934 112.825C257.472 112.314 258.199 112 259 112C260.657 112 262 113.343 262 115C262 116.657 260.657 118 259 118C258.199 118 257.472 117.686 256.934 117.175C256.32 116.591 255.604 116 254.756 116L247.244 116Z" fill="white"/>
<path fill-rule="evenodd" clip-rule="evenodd" d="M51 128C51.8006 128 52.528 128.314 53.066 128.825C53.6805 129.409 54.396 130 55.2436 130L62.8336 130C63.6349 130 64.312 129.445 64.8787 128.879C65.4453 128.312 66 127.635 66 126.834L66 119.244C66 118.396 65.4086 117.68 64.8247 117.066C64.3136 116.528 64 115.801 64 115C64 113.343 65.3431 112 67 112C68.6569 112 70 113.343 70 115C70 115.801 69.6864 116.528 69.1753 117.066C68.5914 117.68 68 118.396 68 119.244L68 126.756C68 127.604 68.5914 128.32 69.1753 128.934C69.6864 129.472 70 130.199 70 131C70 132.657 68.6569 134 67 134C66.1994 134 65.472 133.686 64.934 133.175C64.3195 132.591 63.604 132 62.7564 132L55.2436 132C54.396 132 53.6805 132.591 53.066 133.175C52.528 133.686 51.8006 134 51 134C49.3431 134 48 132.657 48 131C48 129.343 49.3431 128 51 128Z" fill="white"/>
<path fill-rule="evenodd" clip-rule="evenodd" d="M211 128C211.801 128 212.528 128.314 213.066 128.825C213.68 129.409 214.396 130 215.244 130L222.834 130C223.635 130 224.312 129.445 224.879 128.879C225.445 128.312 226 127.635 226 126.834L226 119.244C226 118.396 225.409 117.68 224.825 117.066C224.314 116.528 224 115.801 224 115C224 113.343 225.343 112 227 112C228.657 112 230 113.343 230 115C230 115.801 229.686 116.528 229.175 117.066C228.591 117.68 228 118.396 228 119.244L228 126.756C228 127.604 228.591 128.32 229.175 128.934C229.686 129.472 230 130.199 230 131C230 132.657 228.657 134 227 134C226.199 134 225.472 133.686 224.934 133.175C224.32 132.591 223.604 132 222.756 132L215.244 132C214.396 132 213.68 132.591 213.066 133.175C212.528 133.686 211.801 134 211 134C209.343 134 208 132.657 208 131C208 129.343 209.343 128 211 128Z" fill="white"/>
<path fill-rule="evenodd" clip-rule="evenodd" d="M99 22C98.1994 22 97.472 21.6864 96.934 21.1753C96.3195 20.5914 95.604 20 94.7564 20L87.1664 20C86.3651 20 85.688 20.5547 85.1213 21.1213C84.5547 21.688 84 22.3651 84 23.1664L84 30.7564C84 31.604 84.5914 32.3195 85.1753 32.934C85.6864 33.472 86 34.1994 86 35C86 36.6569 84.6569 38 83 38C81.3431 38 80 36.6569 80 35C80 34.1994 80.3136 33.472 80.8247 32.934C81.4086 32.3195 82 31.604 82 30.7564L82 23.2436C82 22.396 81.4086 21.6805 80.8247 21.066C80.3136 20.528 80 19.8006 80 19C80 17.3431 81.3431 16 83 16C83.8006 16 84.528 16.3136 85.066 16.8247C85.6805 17.4086 86.396 18 87.2436 18L94.7564 18C95.604 18 96.3195 17.4086 96.934 16.8247C97.472 16.3136 98.1994 16 99 16C100.657 16 102 17.3431 102 19C102 20.6569 100.657 22 99 22Z" fill="white"/>
<path fill-rule="evenodd" clip-rule="evenodd" d="M259 22C258.199 22 257.472 21.6864 256.934 21.1753C256.32 20.5914 255.604 20 254.756 20L247.166 20C246.365 20 245.688 20.5547 245.121 21.1213C244.555 21.688 244 22.3651 244 23.1664L244 30.7564C244 31.604 244.591 32.3195 245.175 32.934C245.686 33.472 246 34.1994 246 35C246 36.6569 244.657 38 243 38C241.343 38 240 36.6569 240 35C240 34.1994 240.314 33.472 240.825 32.934C241.409 32.3195 242 31.604 242 30.7564L242 23.2436C242 22.396 241.409 21.6805 240.825 21.066C240.314 20.528 240 19.8006 240 19C240 17.3431 241.343 16 243 16C243.801 16 244.528 16.3136 245.066 16.8247C245.68 17.4086 246.396 18 247.244 18L254.756 18C255.604 18 256.32 17.4086 256.934 16.8247C257.472 16.3136 258.199 16 259 16C260.657 16 262 17.3431 262 19C262 20.6569 260.657 22 259 22Z" fill="white"/>
<path fill-rule="evenodd" clip-rule="evenodd" d="M48 19C48 18.1994 48.3136 17.472 48.8247 16.934C49.4086 16.3195 50 15.604 50 14.7564L50 7.1664C50 6.36506 49.4453 5.68795 48.8787 5.12132C48.312 4.55469 47.6349 4 46.8336 4L39.2436 4C38.396 4 37.6805 4.59144 37.066 5.17526C36.528 5.68637 35.8006 6 35 6C33.3431 6 32 4.65686 32 3C32 1.34315 33.3431 1.80588e-06 35 1.66103e-06C35.8006 1.59104e-06 36.528 0.313633 37.066 0.824739C37.6805 1.40857 38.396 2 39.2436 2L46.7564 2C47.604 2 48.3195 1.40857 48.934 0.824738C49.472 0.313631 50.1994 3.32262e-07 51 2.62268e-07C52.6569 1.17422e-07 54 1.34315 54 3C54 3.80063 53.6864 4.52801 53.1753 5.06598C52.5914 5.68049 52 6.39601 52 7.24365L52 14.7564C52 15.604 52.5914 16.3195 53.1753 16.934C53.6864 17.472 54 18.1994 54 19C54 20.6569 52.6569 22 51 22C49.3431 22 48 20.6569 48 19Z" fill="white"/>
<path fill-rule="evenodd" clip-rule="evenodd" d="M208 19C208 18.1994 208.314 17.472 208.825 16.934C209.409 16.3195 210 15.604 210 14.7564L210 7.1664C210 6.36506 209.445 5.68795 208.879 5.12132C208.312 4.55469 207.635 4 206.834 4L199.244 4C198.396 4 197.68 4.59144 197.066 5.17526C196.528 5.68637 195.801 6 195 6C193.343 6 192 4.65686 192 3C192 1.34315 193.343 1.80588e-06 195 1.66103e-06C195.801 1.59104e-06 196.528 0.313633 197.066 0.824739C197.68 1.40857 198.396 2 199.244 2L206.756 2C207.604 2 208.32 1.40857 208.934 0.824738C209.472 0.313631 210.199 3.32262e-07 211 2.62268e-07C212.657 1.17422e-07 214 1.34315 214 3C214 3.80063 213.686 4.52801 213.175 5.06598C212.591 5.68049 212 6.39601 212 7.24365L212 14.7564C212 15.604 212.591 16.3195 213.175 16.934C213.686 17.472 214 18.1994 214 19C214 20.6569 212.657 22 211 22C209.343 22 208 20.6569 208 19Z" fill="white"/>
<path fill-rule="evenodd" clip-rule="evenodd" d="M102 131C102 131.801 101.686 132.528 101.175 133.066C100.591 133.68 100 134.396 100 135.244L100 142.834C100 143.635 100.555 144.312 101.121 144.879C101.688 145.445 102.365 146 103.166 146L110.756 146C111.604 146 112.32 145.409 112.934 144.825C113.472 144.314 114.199 144 115 144C116.657 144 118 145.343 118 147C118 148.657 116.657 150 115 150C114.199 150 113.472 149.686 112.934 149.175C112.32 148.591 111.604 148 110.756 148L103.244 148C102.396 148 101.68 148.591 101.066 149.175C100.528 149.686 99.8006 150 99 150C97.3431 150 96 148.657 96 147C96 146.199 96.3136 145.472 96.8247 144.934C97.4086 144.32 98 143.604 98 142.756L98 135.244C98 134.396 97.4086 133.68 96.8247 133.066C96.3136 132.528 96 131.801 96 131C96 129.343 97.3431 128 99 128C100.657 128 102 129.343 102 131Z" fill="white"/>
<path fill-rule="evenodd" clip-rule="evenodd" d="M262 131C262 131.801 261.686 132.528 261.175 133.066C260.591 133.68 260 134.396 260 135.244L260 142.834C260 143.635 260.555 144.312 261.121 144.879C261.688 145.445 262.365 146 263.166 146L270.756 146C271.604 146 272.32 145.409 272.934 144.825C273.472 144.314 274.199 144 275 144C276.657 144 278 145.343 278 147C278 148.657 276.657 150 275 150C274.199 150 273.472 149.686 272.934 149.175C272.32 148.591 271.604 148 270.756 148L263.244 148C262.396 148 261.68 148.591 261.066 149.175C260.528 149.686 259.801 150 259 150C257.343 150 256 148.657 256 147C256 146.199 256.314 145.472 256.825 144.934C257.409 144.32 258 143.604 258 142.756L258 135.244C258 134.396 257.409 133.68 256.825 133.066C256.314 132.528 256 131.801 256 131C256 129.343 257.343 128 259 128C260.657 128 262 129.343 262 131Z" fill="white"/>
</g>
</svg>
