<svg width="73" height="72" viewBox="0 0 73 72" fill="none" xmlns="http://www.w3.org/2000/svg">
<g clip-path="url(#clip0_22_2035)">
<path fill-rule="evenodd" clip-rule="evenodd" d="M1.5 12.1081V14.2162H37H72.5V12.1081V10H37H1.5V12.1081ZM7.50498 40.2162V62H9.62438H11.7438V40.2162V18.4324H9.62438H7.50498V40.2162ZM17.3955 31.4324V44.4324H25.3433H33.291V31.4324V18.4324H25.3433H17.3955V31.4324ZM37.8831 22.8243V27.2162H40.0025H42.1219V22.8243V18.4324H40.0025H37.8831V22.8243ZM43.6878 18.8941C43.5899 19.1481 43.555 21.0851 43.6104 23.1982L43.7114 27.0405L45.7425 27.1459L47.7736 27.2514V22.8419V18.4324H45.8199C44.5317 18.4324 43.805 18.5898 43.6878 18.8941ZM49.5398 22.8243V27.2162H51.4826H53.4254V22.8243V18.4324H51.4826H49.5398V22.8243ZM55.1915 22.8419V27.2514L57.2226 27.1459L59.2537 27.0405L59.353 22.7365L59.4523 18.4324H57.3219H55.1915V22.8419ZM64.0224 40.2162V62H65.9652H67.908V40.2162V18.4324H65.9652H64.0224V40.2162ZM29.0522 31.4324V40.2162H25.3433H21.6343V31.4324V22.6486H25.3433H29.0522V31.4324ZM31.1716 51.6351V53.5676H32.9184C34.4698 53.5676 34.7171 53.6744 35.1261 54.5211C35.3797 55.0454 36.024 55.7175 36.5585 56.0144C37.432 56.4996 37.6277 56.4996 38.5012 56.0144C39.0357 55.7175 39.68 55.0454 39.9336 54.5211C40.3427 53.6744 40.5899 53.5676 42.1413 53.5676H43.8881V51.6351V49.7027H37.5299H31.1716V51.6351ZM46.7139 51.6351V53.5676H48.6186C50.3515 53.5676 50.5426 53.6459 50.7429 54.4396C50.8651 54.9231 51.4487 55.5615 52.0538 55.8728C53.4621 56.5969 54.9485 56.0534 55.5575 54.5914C55.9535 53.6399 56.1181 53.5676 57.8835 53.5676H59.7836V51.6351V49.7027H53.2488H46.7139V51.6351Z" fill="#0074FF"/>
</g>
<defs>
<clipPath id="clip0_22_2035">
<rect width="72" height="72" fill="white" transform="translate(0.5)"/>
</clipPath>
</defs>
</svg>
