<svg width="55" height="68" viewBox="0 0 55 68" fill="none" xmlns="http://www.w3.org/2000/svg">
<path fill-rule="evenodd" clip-rule="evenodd" d="M31.8272 56.3693C32.0485 55.1323 33.0227 54.1798 34.2394 53.8651C46.028 50.8167 54.7351 40.1089 54.7351 27.3675C54.7351 12.2529 42.4822 0 27.3675 0C12.2529 0 0 12.2529 0 27.3675C0 40.1089 8.70711 50.8167 20.4957 53.8651C21.7124 54.1798 22.6866 55.1323 22.9079 56.3693L24.4144 64.7905C25.004 68.0861 29.7311 68.0861 30.3207 64.7905L31.8272 56.3693Z" fill="#0074FF"/>
<path d="M14.8377 37.9387C15.9169 37.9387 16.7965 38.8129 16.7965 39.8975C16.7965 40.9767 15.9223 41.8563 14.8377 41.8563C13.7584 41.8563 12.8788 40.9821 12.8788 39.8975C12.8788 38.8129 13.753 37.9387 14.8377 37.9387ZM12.8788 33.6325C12.8788 34.7118 13.753 35.5913 14.8377 35.5913C15.9169 35.5913 16.7965 34.7172 16.7965 33.6325C16.7965 32.5533 15.9223 31.6737 14.8377 31.6737C13.753 31.6737 12.8788 32.5479 12.8788 33.6325ZM12.8788 27.3676C12.8788 28.4468 13.753 29.3264 14.8377 29.3264C15.9169 29.3264 16.7965 28.4522 16.7965 27.3676C16.7965 26.2884 15.9223 25.4088 14.8377 25.4088C13.753 25.4088 12.8788 26.283 12.8788 27.3676ZM12.8788 21.1027C12.8788 22.1819 13.753 23.0615 14.8377 23.0615C15.9169 23.0615 16.7965 22.1873 16.7965 21.1027C16.7965 20.0234 15.9223 19.1438 14.8377 19.1438C13.753 19.1438 12.8788 20.018 12.8788 21.1027ZM19.1438 39.8975C19.1438 40.9767 20.018 41.8563 21.1026 41.8563C22.1818 41.8563 23.0614 40.9821 23.0614 39.8975C23.0614 38.8183 22.1872 37.9387 21.1026 37.9387C20.018 37.9387 19.1438 38.8129 19.1438 39.8975ZM25.4087 39.8975C25.4087 40.9767 26.2829 41.8563 27.3675 41.8563C28.4468 41.8563 29.3263 40.9821 29.3263 39.8975C29.3263 38.8183 28.4522 37.9387 27.3675 37.9387C26.2829 37.9387 25.4087 38.8129 25.4087 39.8975ZM31.6737 39.8975C31.6737 40.9767 32.5479 41.8563 33.6325 41.8563C34.7117 41.8563 35.5913 40.9821 35.5913 39.8975C35.5913 38.8183 34.7171 37.9387 33.6325 37.9387C32.5479 37.9387 31.6737 38.8129 31.6737 39.8975ZM19.1438 14.8377C19.1438 15.9169 20.018 16.7965 21.1026 16.7965C22.1818 16.7965 23.0614 15.9223 23.0614 14.8377C23.0614 13.7585 22.1872 12.8789 21.1026 12.8789C20.018 12.8789 19.1438 13.7531 19.1438 14.8377ZM25.4087 14.8377C25.4087 15.9169 26.2829 16.7965 27.3675 16.7965C28.4468 16.7965 29.3263 15.9223 29.3263 14.8377C29.3263 13.7585 28.4522 12.8789 27.3675 12.8789C26.2829 12.8789 25.4087 13.7531 25.4087 14.8377ZM31.6737 14.8377C31.6737 15.9169 32.5479 16.7965 33.6325 16.7965C34.7117 16.7965 35.5913 15.9223 35.5913 14.8377C35.5913 13.7585 34.7171 12.8789 33.6325 12.8789C32.5479 12.8789 31.6737 13.7531 31.6737 14.8377ZM37.9386 33.6325C37.9386 34.7118 38.8128 35.5913 39.8974 35.5913C40.9767 35.5913 41.8562 34.7172 41.8562 33.6325C41.8562 32.5533 40.9821 31.6737 39.8974 31.6737C38.8128 31.6737 37.9386 32.5479 37.9386 33.6325ZM37.9386 27.3676C37.9386 28.4468 38.8128 29.3264 39.8974 29.3264C40.9767 29.3264 41.8562 28.4522 41.8562 27.3676C41.8562 26.2884 40.9821 25.4088 39.8974 25.4088C38.8128 25.4088 37.9386 26.283 37.9386 27.3676ZM37.9386 21.1027C37.9386 22.1819 38.8128 23.0615 39.8974 23.0615C40.9767 23.0615 41.8562 22.1873 41.8562 21.1027C41.8562 20.0234 40.9821 19.1438 39.8974 19.1438C38.8128 19.1438 37.9386 20.018 37.9386 21.1027ZM39.8974 12.8789C38.8182 12.8789 37.9386 13.7531 37.9386 14.8377C37.9386 15.9169 38.8128 16.7965 39.8974 16.7965C40.9767 16.7965 41.8562 15.9223 41.8562 14.8377C41.8508 13.7531 40.9767 12.8789 39.8974 12.8789Z" fill="white"/>
<path d="M21.1895 35.3465C19.7837 35.6958 18.5173 34.6924 18.5173 33.4064C18.5173 32.719 18.8775 32.1148 19.4293 31.7489C19.9057 31.4385 20.231 30.9617 20.231 30.4074V29.9584C20.231 29.4096 19.9057 28.9329 19.4293 28.6169C18.8775 28.2566 18.5173 27.6468 18.5173 26.9595C18.5173 25.6734 19.7837 24.6701 21.1895 25.0193C21.9099 25.1967 22.4908 25.7621 22.6651 26.4495C22.8974 27.3364 22.5024 28.1624 21.8227 28.6114C21.3696 28.9107 21.0792 29.3874 21.0792 29.9085V30.4462C21.0792 30.9728 21.3696 31.444 21.8227 31.7434C22.5024 32.1924 22.8916 33.0183 22.6651 33.9053C22.4908 34.6037 21.9041 35.1691 21.1895 35.3465ZM27.3705 31.3941C26.0169 31.3941 24.9597 32.6137 25.3431 33.9662C25.5232 34.6037 26.0576 35.1303 26.7257 35.3244C27.7016 35.6015 28.6253 35.219 29.1132 34.5372C29.4269 34.0937 29.9323 33.811 30.49 33.811H30.9954C31.5531 33.811 32.0585 34.0937 32.3722 34.5372C32.8601 35.219 33.7838 35.6015 34.7597 35.3244C35.422 35.1359 35.9564 34.6093 36.1423 33.9662C36.5257 32.6137 35.4684 31.3941 34.1149 31.3941C33.4004 31.3941 32.773 31.7323 32.3896 32.2478C32.0585 32.6913 31.5647 32.9962 30.9896 32.9962H30.49C29.9207 32.9962 29.4211 32.6913 29.09 32.2478C28.7124 31.7323 28.0792 31.3941 27.3705 31.3941ZM24.1638 20.1245H23.8269C23.2169 20.1245 22.6825 19.803 22.3165 19.3318C21.8169 18.6888 20.9223 18.3396 19.9754 18.6112C19.3132 18.7997 18.7787 19.3263 18.5928 19.9693C18.2094 21.3219 19.2667 22.5414 20.6202 22.5414C21.3348 22.5414 21.9621 22.2033 22.3455 21.6877C22.6767 21.2443 23.1704 20.9394 23.7456 20.9394H24.1638C24.7738 20.9394 25.3082 21.2554 25.6684 21.7265C25.7962 21.8873 25.9472 22.0314 26.1157 22.1534C26.6037 22.4971 26.9406 23.0071 26.9406 23.5891V23.9162C26.9406 24.4982 26.6037 25.0082 26.1099 25.3574C25.436 25.8342 25.07 26.6878 25.3547 27.5914C25.5522 28.2233 26.1041 28.7333 26.7779 28.9107C28.1954 29.2766 29.4734 28.2677 29.4734 26.9761C29.4734 26.2943 29.119 25.6956 28.5788 25.3297C28.114 25.0137 27.7945 24.5426 27.7945 23.9938V23.5946C27.7945 23.0126 28.1315 22.5026 28.6253 22.1534C29.2991 21.6767 29.6651 20.823 29.3804 19.9194C29.1887 19.3041 28.6601 18.7997 28.0153 18.6167C27.0684 18.3451 26.1738 18.6943 25.6742 19.3374C25.3082 19.803 24.7796 20.1245 24.1638 20.1245ZM32.0991 19.9139C31.8087 20.8452 32.2037 21.7265 32.924 22.1922C33.3888 22.4915 33.685 22.9738 33.685 23.506V23.9882C33.685 24.5204 33.3888 25.0027 32.924 25.302C32.2095 25.7676 31.8087 26.649 32.0991 27.5803C32.2966 28.2123 32.8485 28.7222 33.5224 28.8996C34.9398 29.2655 36.2178 28.2566 36.2178 26.965C36.2178 26.2832 35.8635 25.6845 35.3232 25.3186C34.8585 25.0027 34.539 24.5315 34.539 23.9827V23.506C34.539 22.9627 34.8585 22.486 35.3232 22.17C35.8635 21.8041 36.2178 21.2055 36.2178 20.5236C36.2178 19.232 34.9398 18.2231 33.5224 18.589C32.8543 18.7719 32.3025 19.2819 32.0991 19.9139Z" fill="white"/>
</svg>
