<svg width="221" height="41" viewBox="0 0 221 41" fill="none" xmlns="http://www.w3.org/2000/svg">
<g clip-path="url(#clip0_26_1402)">
<path d="M59.9631 0.309082V5.57361L68.1595 0.309082H73.6843L64.2846 6.06386L74.3655 12.5729H68.8407L59.9631 6.5692V12.5653H56.6028V0.309082H59.9631Z" fill="white"/>
<path d="M89.5625 0.3093C90.6599 0.3093 91.5908 0.656246 92.3628 1.35768C93.1272 2.05912 93.5131 2.89631 93.5131 3.8919V8.9905C93.5131 9.97854 93.1272 10.8233 92.3552 11.5247C91.5832 12.2262 90.6523 12.5731 89.5625 12.5731H79.9357C78.8383 12.5731 77.9074 12.2262 77.1355 11.5247C76.3711 10.8233 75.9851 9.98608 75.9851 8.9905V3.88436C75.9851 2.89631 76.3711 2.05157 77.143 1.35014C77.915 0.648704 78.8459 0.301758 79.9357 0.301758H89.5625V0.3093ZM79.7995 3.45444C79.4968 3.71842 79.3378 4.05029 79.3378 4.46511V8.4022C79.3378 8.7944 79.4968 9.1338 79.8071 9.42041C80.1174 9.69193 80.4882 9.8277 80.9196 9.83524H88.5711C89.0176 9.82015 89.3885 9.67685 89.6912 9.41287C89.9939 9.12626 90.1453 8.78686 90.1453 8.4022V4.47266C90.1453 4.05783 89.9863 3.71842 89.676 3.45444C89.3733 3.16029 89.0025 3.02453 88.5635 3.03962H80.912C80.4882 3.03207 80.1174 3.17538 79.7995 3.45444Z" fill="white"/>
<path d="M98.4854 0.309082V4.90235H108.423V0.309082H111.783V12.5653H108.423V7.62512H98.4854V12.5653H95.1251V0.309082H98.4854Z" fill="white"/>
<path d="M116.755 0.309082V9.84256H126.73V0.309082H130.09V9.84256H131.771V15.3032H128.41V12.5729H113.395V0.309082H116.755Z" fill="white"/>
<path d="M148.572 0.309082V3.0394H136.743V5.04565H146.99V7.73072H136.743V9.84256H148.572V12.5729H133.39V0.309082H148.572Z" fill="white"/>
<path d="M166.88 0.309082V12.5653H163.519V3.0394H153.544V12.5729H150.184V0.309082H166.88Z" fill="white"/>
<path d="M184.597 0.309082V3.0394H178.232V12.5729H174.872V3.0394H168.499V0.309082H184.597Z" fill="white"/>
<path d="M59.9631 18.6069V23.2002H69.9002V18.6069H73.2605V30.8632H69.9002V25.923H59.9631V30.8632H56.6028V18.6069H59.9631Z" fill="white"/>
<path d="M86.0281 18.6069L93.8461 30.8632H90.2285L88.5332 28.1781H80.2082L78.4902 30.8632H74.8801L82.6905 18.6069H86.0281ZM81.858 25.5836H86.8682L84.3707 21.6465L81.858 25.5836Z" fill="white"/>
<path d="M107.628 18.6069C108.65 18.6069 109.527 18.9388 110.246 19.595C110.981 20.2512 111.344 21.0431 111.321 21.9633C111.321 22.4384 111.215 22.891 110.996 23.3209C110.784 23.7432 110.496 24.1128 110.118 24.4221C110.716 24.7237 111.192 25.1386 111.556 25.6741C111.919 26.2096 112.093 26.7979 112.093 27.439C112.093 28.3893 111.722 29.1963 110.988 29.8751C110.262 30.5389 109.369 30.8707 108.309 30.8707H95.4506V18.6069H107.628ZM98.8184 23.5999H106.538C106.894 23.5999 107.204 23.4868 107.461 23.253C107.734 23.0192 107.855 22.7401 107.84 22.4083C107.855 22.0689 107.726 21.7822 107.454 21.556C107.204 21.3222 106.894 21.209 106.538 21.209H98.8184V23.5999ZM98.8184 28.2686H107.378C107.741 28.2686 108.052 28.1555 108.301 27.9217C108.551 27.6879 108.68 27.4088 108.68 27.0694C108.68 26.7375 108.551 26.4509 108.301 26.2171C108.052 25.9833 107.741 25.8702 107.378 25.8777H98.8184V28.2686Z" fill="white"/>
<path d="M113.713 30.8632V18.6069H117.073V27.2052L127.714 18.6069H131.082V30.8632H127.714V22.2574L117.073 30.8632H113.713Z" fill="white"/>
<path d="M147.263 18.6069V21.3373H136.054V30.8707H132.694V18.6069H147.263Z" fill="white"/>
<path d="M156.019 18.6069L163.83 30.8632H160.212L158.517 28.1781H150.192L148.474 30.8632H144.864L152.674 18.6069H156.019ZM151.849 25.5836H156.859L154.362 21.6465L151.849 25.5836Z" fill="white"/>
<path d="M168.81 18.6069V28.1329H178.784V18.6069H182.145V28.1329H183.825V33.5935H180.465V30.8632H165.449V18.6069H168.81Z" fill="white"/>
<path d="M185.437 30.8632V18.6069H188.797V27.2052L199.438 18.6069H202.806V30.8632H199.438V22.2574L188.797 30.8632H185.437Z" fill="white"/>
<path d="M221 18.6072V30.8634H217.64V26.4134H212.024L208.323 30.8634H204.418L208.422 26.3682C207.332 26.24 206.424 25.8251 205.689 25.1086C204.963 24.377 204.592 23.5097 204.592 22.5141C204.592 21.4355 205.016 20.5154 205.856 19.746C206.704 18.9843 207.718 18.5996 208.906 18.5996H221V18.6072ZM217.64 21.3375H209.247C208.868 21.3224 208.558 21.428 208.3 21.6693C208.073 21.8805 207.952 22.1671 207.93 22.5292C207.945 22.8686 208.073 23.1552 208.3 23.389C208.55 23.6152 208.868 23.7284 209.247 23.7284L217.64 23.7208V21.3375Z" fill="white"/>
<path d="M60.1523 36.769V40.2385H59.6679V37.199H57.6472V40.2385H57.1553V36.769H60.1523Z" fill="white"/>
<path d="M66.6383 37.093C66.8956 37.3042 67.0242 37.6059 67.0242 37.983C67.0242 38.3601 66.8956 38.6543 66.6383 38.873C66.381 39.0842 66.0252 39.1973 65.5711 39.1973H64.7084V40.2457H64.2089V36.7762H65.5636C66.0252 36.7687 66.381 36.8818 66.6383 37.093ZM66.2826 38.5562C66.4491 38.4205 66.5323 38.2319 66.5323 37.9755C66.5323 37.7266 66.4491 37.5305 66.2826 37.3947C66.1161 37.2589 65.8739 37.1911 65.5636 37.1911H64.7159V38.7448H65.5636C65.8739 38.7599 66.1161 38.692 66.2826 38.5562Z" fill="white"/>
<path d="M71.3684 40.0498C71.0884 39.899 70.8689 39.6803 70.7024 39.4163C70.5359 39.1523 70.4602 38.8431 70.4602 38.5112C70.4602 38.1794 70.5435 37.8777 70.7024 37.6061C70.8613 37.3346 71.0808 37.1234 71.3684 36.9726C71.6484 36.8217 71.9663 36.7388 72.322 36.7388C72.6701 36.7388 72.988 36.8142 73.268 36.9726C73.548 37.1234 73.7675 37.3346 73.9265 37.6061C74.0854 37.8777 74.1686 38.1794 74.1686 38.5188C74.1686 38.8582 74.0854 39.1599 73.9265 39.4314C73.7675 39.7029 73.548 39.9141 73.268 40.0649C72.988 40.2158 72.6701 40.2987 72.322 40.2987C71.9663 40.2837 71.6484 40.2007 71.3684 40.0498ZM73.0031 39.6652C73.2075 39.5521 73.3664 39.3937 73.4875 39.19C73.6086 38.9864 73.6616 38.7601 73.6616 38.5112C73.6616 38.2623 73.601 38.036 73.4875 37.8324C73.3664 37.6288 73.2075 37.4704 73.0031 37.3572C72.7988 37.2441 72.5717 37.1838 72.3144 37.1838C72.0571 37.1838 71.8301 37.2441 71.6181 37.3572C71.4138 37.4704 71.2473 37.6288 71.1338 37.8324C71.0127 38.036 70.9597 38.2623 70.9597 38.5112C70.9597 38.7601 71.0203 38.9864 71.1338 39.19C71.2549 39.3937 71.4138 39.5521 71.6181 39.6652C71.8225 39.7783 72.0571 39.8387 72.3144 39.8387C72.5717 39.8387 72.7988 39.7783 73.0031 39.6652Z" fill="white"/>
<path d="M77.9528 36.769H78.4447V39.4466L80.5033 36.769H80.9574V40.2385H80.473V37.5685L78.4069 40.2385H77.9528V36.769Z" fill="white"/>
<path d="M87.2087 38.7374C87.3298 38.8807 87.3903 39.0617 87.3903 39.2653C87.3903 39.469 87.3222 39.65 87.1936 39.8008C87.0649 39.9517 86.8908 40.0724 86.6714 40.1553C86.4519 40.2383 86.2173 40.276 85.9599 40.276C85.7253 40.276 85.4983 40.2383 85.2712 40.1704C85.0442 40.1025 84.8323 39.9969 84.6431 39.8612L84.8171 39.4916C84.9685 39.6123 85.1426 39.7028 85.3318 39.7556C85.521 39.8159 85.7102 39.8461 85.907 39.8461C86.187 39.8461 86.4216 39.7858 86.6108 39.6726C86.8 39.5519 86.8908 39.3936 86.8908 39.1899C86.8908 39.0164 86.8227 38.8807 86.6789 38.7826C86.5351 38.6921 86.3383 38.6393 86.081 38.6393H85.3015V38.2396H86.0432C86.2627 38.2396 86.4367 38.1943 86.5654 38.1038C86.6865 38.0133 86.7546 37.8851 86.7546 37.7267C86.7546 37.5457 86.6714 37.4024 86.5124 37.2968C86.3535 37.1912 86.1416 37.1384 85.8994 37.1384C85.7405 37.1384 85.574 37.161 85.4075 37.2063C85.241 37.2515 85.082 37.3194 84.9307 37.4175L84.7717 37.0102C84.9458 36.9121 85.135 36.8367 85.3318 36.7839C85.5286 36.7311 85.7253 36.7085 85.9221 36.7085C86.1643 36.7085 86.3913 36.7462 86.5957 36.8216C86.8 36.8971 86.9665 37.0102 87.0876 37.1535C87.2087 37.2968 87.2692 37.4703 87.2692 37.6664C87.2692 37.8398 87.2238 37.9982 87.1254 38.1265C87.0271 38.2622 86.8908 38.3603 86.7168 38.4206C86.9135 38.4885 87.08 38.5941 87.2087 38.7374Z" fill="white"/>
<path d="M93.9066 38.7376C94.0277 38.8809 94.0883 39.0694 94.0883 39.2882C94.0883 39.5899 93.9747 39.8237 93.7553 39.9896C93.5358 40.1555 93.2104 40.2385 92.7941 40.2385H91.2048V36.769H92.7033C93.0817 36.769 93.3844 36.8445 93.5963 37.0029C93.8082 37.1537 93.9142 37.38 93.9142 37.6666C93.9142 37.8551 93.8688 38.0135 93.7704 38.1493C93.6796 38.285 93.5434 38.3831 93.3693 38.4434C93.6039 38.4962 93.7855 38.5943 93.9066 38.7376ZM91.6967 38.3001H92.6654C92.9076 38.3001 93.0893 38.2549 93.2179 38.1568C93.3466 38.0588 93.4071 37.923 93.4071 37.7345C93.4071 37.5459 93.339 37.4101 93.2104 37.3121C93.0817 37.214 92.9001 37.1688 92.6579 37.1688H91.6891V38.3001H91.6967ZM93.5888 39.2505C93.5888 39.0544 93.5207 38.9035 93.3844 38.813C93.2482 38.7225 93.0514 38.6697 92.7865 38.6697H91.6967V39.8463H92.7865C93.3163 39.8463 93.5888 39.6502 93.5888 39.2505Z" fill="white"/>
<path d="M98.5157 40.0498C98.2356 39.899 98.0162 39.6803 97.8497 39.4163C97.6907 39.1448 97.6075 38.8431 97.6075 38.5112C97.6075 38.1794 97.6907 37.8777 97.8497 37.6061C98.0086 37.3346 98.2281 37.1234 98.5157 36.9726C98.8033 36.8217 99.1136 36.7388 99.4693 36.7388C99.8174 36.7388 100.135 36.8142 100.415 36.9726C100.695 37.1234 100.915 37.3346 101.074 37.6061C101.233 37.8777 101.316 38.1794 101.316 38.5188C101.316 38.8582 101.233 39.1599 101.074 39.4314C100.915 39.7029 100.695 39.9141 100.415 40.0649C100.135 40.2158 99.8174 40.2987 99.4693 40.2987C99.1136 40.2837 98.8033 40.2007 98.5157 40.0498ZM100.158 39.6652C100.362 39.5521 100.521 39.3937 100.642 39.19C100.763 38.9864 100.816 38.7601 100.816 38.5112C100.816 38.2623 100.756 38.036 100.642 37.8324C100.521 37.6288 100.362 37.4704 100.158 37.3572C99.9536 37.2441 99.7266 37.1838 99.4693 37.1838C99.2119 37.1838 98.9849 37.2441 98.773 37.3572C98.5686 37.4704 98.4021 37.6288 98.2886 37.8324C98.1675 38.036 98.1146 38.2623 98.1146 38.5112C98.1146 38.7601 98.1751 38.9864 98.2886 39.19C98.4097 39.3937 98.5686 39.5521 98.773 39.6652C98.9773 39.7783 99.2119 39.8387 99.4693 39.8387C99.7266 39.8387 99.9536 39.7783 100.158 39.6652Z" fill="white"/>
<path d="M108.317 39.8086V41.0003H107.855V40.2385H104.994L104.987 41.0003H104.525L104.532 39.8086H104.699C104.918 39.7935 105.07 39.62 105.161 39.2882C105.251 38.9563 105.304 38.4887 105.327 37.8853L105.365 36.769H107.809V39.8086H108.317ZM105.645 39.1449C105.584 39.4617 105.486 39.6879 105.35 39.8086H107.318V37.199H105.789L105.766 37.9306C105.743 38.4208 105.705 38.8281 105.645 39.1449Z" fill="white"/>
<path d="M112.6 40.0498C112.32 39.8989 112.101 39.6878 111.942 39.4162C111.783 39.1447 111.7 38.843 111.7 38.5036C111.7 38.1642 111.783 37.8625 111.942 37.591C112.101 37.3195 112.32 37.1083 112.6 36.9574C112.88 36.8066 113.198 36.7236 113.546 36.7236C113.819 36.7236 114.068 36.7689 114.295 36.8594C114.522 36.9499 114.712 37.0857 114.871 37.2667L114.545 37.5759C114.28 37.3044 113.955 37.1686 113.569 37.1686C113.312 37.1686 113.077 37.229 112.865 37.3421C112.653 37.4552 112.494 37.6136 112.373 37.8173C112.252 38.0209 112.199 38.2472 112.199 38.4961C112.199 38.745 112.26 38.9712 112.373 39.1749C112.487 39.3785 112.653 39.5369 112.865 39.65C113.077 39.7632 113.304 39.8235 113.569 39.8235C113.955 39.8235 114.28 39.6878 114.545 39.4087L114.871 39.7179C114.712 39.8989 114.515 40.0347 114.288 40.1252C114.061 40.2157 113.811 40.261 113.539 40.261C113.19 40.2836 112.88 40.2006 112.6 40.0498Z" fill="white"/>
<path d="M120.887 37.2063H119.692V40.2458H119.207V37.2063H118.019V36.7764H120.887V37.2063Z" fill="white"/>
<path d="M127.184 38.7376C127.305 38.8809 127.366 39.0694 127.366 39.2882C127.366 39.5899 127.252 39.8237 127.033 39.9896C126.813 40.1555 126.488 40.2385 126.072 40.2385H124.482V36.769H125.981C126.359 36.769 126.662 36.8445 126.874 37.0029C127.086 37.1537 127.192 37.38 127.192 37.6666C127.192 37.8551 127.146 38.0135 127.048 38.1493C126.957 38.285 126.821 38.3831 126.647 38.4434C126.881 38.4962 127.063 38.5943 127.184 38.7376ZM124.974 38.3001H125.943C126.185 38.3001 126.367 38.2549 126.495 38.1568C126.624 38.0588 126.685 37.923 126.685 37.7345C126.685 37.5459 126.617 37.4101 126.488 37.3121C126.359 37.214 126.178 37.1688 125.935 37.1688H124.967V38.3001H124.974ZM126.866 39.2505C126.866 39.0544 126.798 38.9035 126.662 38.813C126.526 38.7225 126.329 38.6697 126.064 38.6697H124.974V39.8463H126.064C126.594 39.8463 126.866 39.6502 126.866 39.2505Z" fill="white"/>
<path d="M133.708 39.8086V40.2385H131.18V36.769H133.64V37.199H131.68V38.2624H133.428V38.6848H131.68V39.8011H133.708V39.8086Z" fill="white"/>
<path d="M140.466 36.769V40.2385H139.967V38.6923H137.969V40.2385H137.469V36.769H137.969V38.2624H139.967V36.769H140.466Z" fill="white"/>
<path d="M147.528 36.769V40.2385H147.028V38.6923H145.03V40.2385H144.531V36.769H145.03V38.2624H147.028V36.769H147.528Z" fill="white"/>
<path d="M153.855 39.3711H152.008L151.622 40.2385H151.107L152.681 36.769H153.173L154.755 40.2385H154.233L153.855 39.3711ZM153.68 38.9789L152.931 37.2819L152.182 38.9789H153.68Z" fill="white"/>
<path d="M160.734 36.7688V40.2382H160.25V39.2276H159.289C159.228 39.2276 159.183 39.2276 159.152 39.22L158.456 40.2382H157.926L158.698 39.1371C158.448 39.0541 158.259 38.9183 158.123 38.7222C157.987 38.5261 157.926 38.2923 157.926 38.0133C157.926 37.6211 158.055 37.3118 158.305 37.0931C158.554 36.8744 158.903 36.7612 159.334 36.7612H160.734V36.7688ZM158.653 38.6091C158.804 38.7449 159.024 38.8127 159.319 38.8127H160.242V37.1987H159.349C159.054 37.1987 158.819 37.2666 158.66 37.4099C158.501 37.5456 158.418 37.7493 158.418 38.0133C158.433 38.2697 158.501 38.4733 158.653 38.6091Z" fill="white"/>
<path d="M170.338 38.715H169.612V40.2385H169.127V36.769H169.612V38.2775H170.346L171.443 36.769H171.973L170.732 38.451L172.034 40.2385H171.466L170.338 38.715Z" fill="white"/>
<path d="M176.135 40.0498C175.855 39.899 175.636 39.6803 175.469 39.4163C175.311 39.1448 175.227 38.8431 175.227 38.5112C175.227 38.1794 175.311 37.8777 175.469 37.6061C175.628 37.3346 175.848 37.1234 176.135 36.9726C176.416 36.8217 176.733 36.7388 177.089 36.7388C177.437 36.7388 177.755 36.8142 178.035 36.9726C178.315 37.1234 178.535 37.3346 178.694 37.6061C178.852 37.8777 178.936 38.1794 178.936 38.5188C178.936 38.8582 178.86 39.1599 178.694 39.4314C178.535 39.7029 178.315 39.9141 178.035 40.0649C177.755 40.2158 177.437 40.2987 177.089 40.2987C176.733 40.2837 176.416 40.2007 176.135 40.0498ZM177.77 39.6652C177.975 39.5521 178.134 39.3937 178.255 39.19C178.376 38.9864 178.429 38.7601 178.429 38.5112C178.429 38.2623 178.368 38.036 178.255 37.8324C178.134 37.6288 177.975 37.4704 177.77 37.3572C177.566 37.2441 177.339 37.1838 177.082 37.1838C176.824 37.1838 176.597 37.2441 176.385 37.3572C176.181 37.4704 176.014 37.6288 175.901 37.8324C175.78 38.036 175.727 38.2623 175.727 38.5112C175.727 38.7601 175.787 38.9864 175.901 39.19C176.022 39.3937 176.181 39.5521 176.385 39.6652C176.59 39.7783 176.824 39.8387 177.082 39.8387C177.339 39.8387 177.566 39.7783 177.77 39.6652Z" fill="white"/>
<path d="M185.944 40.2385L185.936 37.7118L184.68 39.8161H184.453L183.197 37.7269V40.2385H182.72V36.769H183.129L184.582 39.2052L186.012 36.769H186.421L186.428 40.2385H185.944Z" fill="white"/>
<path d="M193.489 36.769V40.2385H193.005V37.199H190.984V40.2385H190.492V36.769H193.489Z" fill="white"/>
<path d="M199.816 39.3711H197.97L197.584 40.2385H197.069L198.643 36.769H199.135L200.717 40.2385H200.195L199.816 39.3711ZM199.642 38.9789L198.893 37.2819L198.144 38.9789H199.642Z" fill="white"/>
<path d="M207.301 36.769V40.2385H206.802V38.6923H204.804V40.2385H204.304V36.769H204.804V38.2624H206.802V36.769H207.301Z" fill="white"/>
<path d="M211.373 36.769H211.865V39.4466L213.924 36.769H214.378V40.2385H213.893V37.5685L211.827 40.2385H211.373V36.769Z" fill="white"/>
<path d="M221 36.7688V40.2382H220.516V39.2276H219.554C219.494 39.2276 219.448 39.2276 219.418 39.22L218.722 40.2382H218.192L218.964 39.1371C218.714 39.0541 218.525 38.9183 218.389 38.7222C218.253 38.5261 218.192 38.2923 218.192 38.0133C218.192 37.6211 218.321 37.3118 218.571 37.0931C218.82 36.8744 219.168 36.7612 219.6 36.7612H221V36.7688ZM218.919 38.6091C219.07 38.7449 219.29 38.8127 219.585 38.8127H220.508V37.1987H219.615C219.32 37.1987 219.085 37.2666 218.926 37.4099C218.767 37.5456 218.684 37.7493 218.684 38.0133C218.692 38.2697 218.767 38.4733 218.919 38.6091Z" fill="white"/>
<path d="M2.74727 35.0265C4.26092 35.0265 5.49454 36.2483 5.49454 37.7643C5.49454 39.2728 4.26848 40.5022 2.74727 40.5022C1.23362 40.5022 0 39.2804 0 37.7643C0 36.2483 1.22605 35.0265 2.74727 35.0265ZM0 29.0077C0 30.5162 1.22605 31.7456 2.74727 31.7456C4.26092 31.7456 5.49454 30.5237 5.49454 29.0077C5.49454 27.4993 4.26848 26.2699 2.74727 26.2699C1.22605 26.2699 0 27.4917 0 29.0077ZM0 20.2511C0 21.7596 1.22605 22.989 2.74727 22.989C4.26092 22.989 5.49454 21.7671 5.49454 20.2511C5.49454 18.7426 4.26848 17.5132 2.74727 17.5132C1.22605 17.5132 0 18.7351 0 20.2511ZM0 11.4945C0 13.0029 1.22605 14.2323 2.74727 14.2323C4.26092 14.2323 5.49454 13.0105 5.49454 11.4945C5.49454 9.98602 4.26848 8.75662 2.74727 8.75662C1.22605 8.75662 0 9.97848 0 11.4945ZM8.78672 37.7643C8.78672 39.2728 10.0128 40.5022 11.534 40.5022C13.0476 40.5022 14.2813 39.2804 14.2813 37.7643C14.2813 36.2559 13.0552 35.0265 11.534 35.0265C10.0128 35.0265 8.78672 36.2483 8.78672 37.7643ZM17.5734 37.7643C17.5734 39.2728 18.7995 40.5022 20.3207 40.5022C21.8344 40.5022 23.068 39.2804 23.068 37.7643C23.068 36.2559 21.8419 35.0265 20.3207 35.0265C18.7995 35.0265 17.5734 36.2483 17.5734 37.7643ZM26.3602 37.7643C26.3602 39.2728 27.5862 40.5022 29.1074 40.5022C30.6211 40.5022 31.8547 39.2804 31.8547 37.7643C31.8547 36.2559 30.6286 35.0265 29.1074 35.0265C27.5862 35.0265 26.3602 36.2483 26.3602 37.7643ZM8.78672 2.73786C8.78672 4.24632 10.0128 5.47572 11.534 5.47572C13.0476 5.47572 14.2813 4.25386 14.2813 2.73786C14.2813 1.2294 13.0552 0 11.534 0C10.0128 0 8.78672 1.22185 8.78672 2.73786ZM17.5734 2.73786C17.5734 4.24632 18.7995 5.47572 20.3207 5.47572C21.8344 5.47572 23.068 4.25386 23.068 2.73786C23.068 1.2294 21.8419 0 20.3207 0C18.7995 0 17.5734 1.22185 17.5734 2.73786ZM26.3602 2.73786C26.3602 4.24632 27.5862 5.47572 29.1074 5.47572C30.6211 5.47572 31.8547 4.25386 31.8547 2.73786C31.8547 1.2294 30.6286 0 29.1074 0C27.5862 0 26.3602 1.22185 26.3602 2.73786ZM35.1469 29.0077C35.1469 30.5162 36.3729 31.7456 37.8941 31.7456C39.4078 31.7456 40.6414 30.5237 40.6414 29.0077C40.6414 27.4993 39.4154 26.2699 37.8941 26.2699C36.3729 26.2699 35.1469 27.4917 35.1469 29.0077ZM35.1469 20.2511C35.1469 21.7596 36.3729 22.989 37.8941 22.989C39.4078 22.989 40.6414 21.7671 40.6414 20.2511C40.6414 18.7426 39.4154 17.5132 37.8941 17.5132C36.3729 17.5132 35.1469 18.7351 35.1469 20.2511ZM35.1469 11.4945C35.1469 13.0029 36.3729 14.2323 37.8941 14.2323C39.4078 14.2323 40.6414 13.0105 40.6414 11.4945C40.6414 9.98602 39.4154 8.75662 37.8941 8.75662C36.3729 8.75662 35.1469 9.97848 35.1469 11.4945ZM37.8941 0C36.3805 0 35.1469 1.22185 35.1469 2.73786C35.1469 4.24632 36.3729 5.47572 37.8941 5.47572C39.4078 5.47572 40.6414 4.25386 40.6414 2.73786C40.6338 1.22185 39.4078 0 37.8941 0Z" fill="#0074FF"/>
<path d="M12.2681 31.6477C10.4366 32.1229 8.78669 30.7577 8.78669 29.0079C8.78669 28.0727 9.25592 27.2505 9.97491 26.7528C10.5955 26.3304 11.0193 25.6817 11.0193 24.9275V24.3166C11.0193 23.5699 10.5955 22.9213 9.97491 22.4913C9.25592 22.0011 8.78669 21.1714 8.78669 20.2362C8.78669 18.4864 10.4366 17.1212 12.2681 17.5964C13.2065 17.8377 13.9634 18.6071 14.1904 19.5423C14.4931 20.7491 13.9785 21.8729 13.093 22.4838C12.5027 22.8911 12.1243 23.5397 12.1243 24.2487V24.9803C12.1243 25.6968 12.5027 26.3379 13.093 26.7452C13.9785 27.3561 14.4856 28.4799 14.1904 29.6867C13.9634 30.637 13.199 31.4064 12.2681 31.6477ZM20.3207 26.27C18.5573 26.27 17.1799 27.9294 17.6794 29.7697C17.914 30.637 18.6103 31.3536 19.4806 31.6175C20.7521 31.9947 21.9554 31.4742 22.5912 30.5465C22.9998 29.9432 23.6583 29.5585 24.3848 29.5585H25.0433C25.7698 29.5585 26.4282 29.9432 26.8369 30.5465C27.4727 31.4742 28.676 31.9947 29.9475 31.6175C30.8103 31.3611 31.5065 30.6446 31.7487 29.7697C32.2482 27.9294 30.8708 26.27 29.1074 26.27C28.1765 26.27 27.3591 26.7301 26.8596 27.4316C26.4282 28.0349 25.7849 28.4498 25.0357 28.4498H24.3848C23.6431 28.4498 22.9923 28.0349 22.5609 27.4316C22.0689 26.7301 21.244 26.27 20.3207 26.27ZM16.143 10.9365H15.7041C14.9094 10.9365 14.2131 10.4991 13.7363 9.85798C13.0854 8.98307 11.9199 8.50791 10.6863 8.87748C9.82354 9.13392 9.12726 9.85044 8.88508 10.7253C8.38558 12.5657 9.76299 14.225 11.5264 14.225C12.4573 14.225 13.2747 13.7649 13.7742 13.0635C14.2055 12.4601 14.8488 12.0453 15.5981 12.0453H16.143C16.9377 12.0453 17.634 12.4752 18.1032 13.1163C18.2697 13.335 18.4665 13.5311 18.6859 13.697C19.3217 14.1646 19.7606 14.8585 19.7606 15.6505V16.0955C19.7606 16.8874 19.3217 17.5813 18.6784 18.0565C17.8005 18.7051 17.3237 19.8666 17.6945 21.096C17.9518 21.9558 18.6708 22.6497 19.5487 22.8911C21.3954 23.3889 23.0604 22.0162 23.0604 20.2588C23.0604 19.3311 22.5987 18.5166 21.8949 18.0188C21.2894 17.5888 20.8732 16.9478 20.8732 16.2011V15.658C20.8732 14.8661 21.3121 14.1722 21.9554 13.697C22.8333 13.0484 23.3101 11.8869 22.9393 10.6575C22.6895 9.82027 22.0008 9.13392 21.1608 8.88502C19.9271 8.51545 18.7616 8.99061 18.1108 9.86552C17.634 10.4991 16.9452 10.9365 16.143 10.9365ZM26.4812 10.6499C26.1028 11.917 26.6175 13.1163 27.5559 13.7498C28.1614 14.1571 28.5474 14.8133 28.5474 15.5373V16.1935C28.5474 16.9176 28.1614 17.5738 27.5559 17.981C26.625 18.6146 26.1028 19.8138 26.4812 21.0809C26.7385 21.9408 27.4575 22.6347 28.3354 22.876C30.1821 23.3738 31.8471 22.0011 31.8471 20.2437C31.8471 19.316 31.3854 18.5015 30.6816 18.0037C30.0761 17.5738 29.6599 16.9327 29.6599 16.186V15.5373C29.6599 14.7982 30.0761 14.1496 30.6816 13.7196C31.3854 13.2219 31.8471 12.4073 31.8471 11.4796C31.8471 9.72222 30.1821 8.34952 28.3354 8.84731C27.4651 9.09621 26.7461 9.7901 26.4812 10.6499Z" fill="#00BDFF"/>
</g>
<defs>
<clipPath id="clip0_26_1402">
<rect width="221" height="41" fill="white"/>
</clipPath>
</defs>
</svg>
