<svg width="24" height="24" viewBox="0 0 24 24" fill="none" xmlns="http://www.w3.org/2000/svg">
<path d="M12 2C14.5591 2 17.1187 2.97582 19.0712 4.92842C22.9763 8.83357 22.9763 15.166 19.0712 19.0711C15.1661 22.9763 8.83385 22.9763 4.92881 19.0711C1.02373 15.166 1.02373 8.83355 4.92881 4.92842C6.88131 2.97582 9.4409 2 12 2ZM12 4.61223C10.1094 4.61223 8.21818 5.3327 6.77563 6.77527C3.89055 9.66042 3.89055 14.3391 6.77563 17.2242C9.6607 20.1094 14.3392 20.1094 17.2244 17.2242C20.1095 14.3391 20.1094 9.66042 17.2244 6.77527C15.7818 5.3327 13.8906 4.61223 12 4.61223ZM13.0229 6.29067V10.9622H15.6119V13.5195H10.4656V6.29067H13.0229Z" fill="#ABB2D0"/>
</svg>
