<svg width="24" height="24" viewBox="0 0 24 24" fill="none" xmlns="http://www.w3.org/2000/svg">
<path fill-rule="evenodd" clip-rule="evenodd" d="M12 3.625C10.1766 3.625 8.42795 4.34933 7.13864 5.63864C5.84933 6.92795 5.125 8.67664 5.125 10.5C5.125 12.8895 6.83337 15.3573 8.77788 17.3481C9.72356 18.3163 10.6729 19.1191 11.3874 19.6805C11.6202 19.8634 11.8273 20.0201 12 20.1477C12.1727 20.0201 12.3798 19.8634 12.6126 19.6805C13.3271 19.1191 14.2764 18.3163 15.2221 17.3481C17.1666 15.3573 18.875 12.8895 18.875 10.5C18.875 8.67664 18.1507 6.92795 16.8614 5.63864C15.572 4.34933 13.8234 3.625 12 3.625ZM12 21.375C11.4453 22.2071 11.4451 22.2069 11.4448 22.2067L11.4422 22.205L11.4363 22.201L11.4161 22.1874C11.399 22.1758 11.3746 22.1591 11.3434 22.1376C11.281 22.0945 11.1914 22.0319 11.0786 21.9509C10.8529 21.7889 10.5336 21.5532 10.1517 21.2531C9.38958 20.6543 8.37019 19.793 7.34712 18.7456C5.35413 16.7052 3.125 13.7355 3.125 10.5C3.125 8.1462 4.06004 5.88881 5.72443 4.22443C7.38881 2.56004 9.6462 1.625 12 1.625C14.3538 1.625 16.6112 2.56004 18.2756 4.22443C19.94 5.88881 20.875 8.1462 20.875 10.5C20.875 13.7355 18.6459 16.7052 16.6529 18.7456C15.6298 19.793 14.6104 20.6543 13.8483 21.2531C13.4664 21.5532 13.1471 21.7889 12.9214 21.9509C12.8086 22.0319 12.719 22.0945 12.6566 22.1376C12.6254 22.1591 12.601 22.1758 12.5839 22.1874L12.5637 22.201L12.5578 22.205L12.5559 22.2063C12.5556 22.2064 12.5547 22.2071 12 21.375ZM12 21.375L12.5547 22.2071C12.2188 22.431 11.7807 22.4307 11.4448 22.2067L12 21.375Z" fill="#BDBDBD"/>
<path d="M12 12.375C13.0355 12.375 13.875 11.5355 13.875 10.5C13.875 9.46447 13.0355 8.625 12 8.625C10.9645 8.625 10.125 9.46447 10.125 10.5C10.125 11.5355 10.9645 12.375 12 12.375Z" fill="#BDBDBD"/>
<path fill-rule="evenodd" clip-rule="evenodd" d="M12 9.375C11.3787 9.375 10.875 9.87868 10.875 10.5C10.875 11.1213 11.3787 11.625 12 11.625C12.6213 11.625 13.125 11.1213 13.125 10.5C13.125 9.87868 12.6213 9.375 12 9.375ZM9.375 10.5C9.375 9.05025 10.5503 7.875 12 7.875C13.4497 7.875 14.625 9.05025 14.625 10.5C14.625 11.9497 13.4497 13.125 12 13.125C10.5503 13.125 9.375 11.9497 9.375 10.5Z" fill="#BDBDBD"/>
</svg>
