<svg width="221" height="41" viewBox="0 0 221 41" fill="none" xmlns="http://www.w3.org/2000/svg">
<g clip-path="url(#clip0_2_2)">
<path d="M59.9631 0.309235V5.57377L68.1595 0.309235H73.6843L64.2846 6.06402L74.3655 12.573H68.8407L59.9631 6.56935V12.5655H56.6028V0.309235H59.9631Z" fill="#131C42"/>
<path d="M89.5625 0.309231C90.6599 0.309231 91.5908 0.656178 92.3628 1.35761C93.1272 2.05905 93.5131 2.89624 93.5131 3.89183V8.99043C93.5131 9.97847 93.1272 10.8232 92.3552 11.5246C91.5832 12.2261 90.6523 12.573 89.5625 12.573H79.9357C78.8383 12.573 77.9074 12.2261 77.1355 11.5246C76.3711 10.8232 75.9851 9.98602 75.9851 8.99043V3.88429C75.9851 2.89624 76.3711 2.05151 77.143 1.35007C77.915 0.648635 78.8459 0.301689 79.9357 0.301689H89.5625V0.309231ZM79.7995 3.45437C79.4968 3.71836 79.3378 4.05022 79.3378 4.46504V8.40213C79.3378 8.79433 79.4968 9.13373 79.8071 9.42034C80.1174 9.69187 80.4882 9.82763 80.9196 9.83517H88.5711C89.0176 9.82009 89.3885 9.67678 89.6912 9.4128C89.9939 9.12619 90.1453 8.78679 90.1453 8.40213V4.47259C90.1453 4.05776 89.9863 3.71836 89.676 3.45437C89.3733 3.16022 89.0025 3.02446 88.5635 3.03955H80.912C80.4882 3.03201 80.1174 3.17531 79.7995 3.45437Z" fill="#131C42"/>
<path d="M98.4854 0.309235V4.9025H108.423V0.309235H111.783V12.5655H108.423V7.62528H98.4854V12.5655H95.1251V0.309235H98.4854Z" fill="#131C42"/>
<path d="M116.755 0.309235V9.84272H126.73V0.309235H130.09V9.84272H131.771V15.3033H128.41V12.573H113.395V0.309235H116.755Z" fill="#131C42"/>
<path d="M148.572 0.309235V3.03955H136.743V5.04581H146.99V7.73087H136.743V9.84272H148.572V12.573H133.39V0.309235H148.572Z" fill="#131C42"/>
<path d="M166.88 0.309235V12.5655H163.519V3.03955H153.544V12.573H150.184V0.309235H166.88Z" fill="#131C42"/>
<path d="M184.597 0.309235V3.03955H178.232V12.573H174.872V3.03955H168.499V0.309235H184.597Z" fill="#131C42"/>
<path d="M59.9631 18.6069V23.2001H69.9002V18.6069H73.2605V30.8631H69.9002V25.9229H59.9631V30.8631H56.6028V18.6069H59.9631Z" fill="#131C42"/>
<path d="M86.0281 18.6069L93.8461 30.8631H90.2285L88.5332 28.1781H80.2082L78.4902 30.8631H74.8801L82.6905 18.6069H86.0281ZM81.858 25.5835H86.8682L84.3707 21.6464L81.858 25.5835Z" fill="#131C42"/>
<path d="M107.628 18.6069C108.65 18.6069 109.527 18.9387 110.246 19.5949C110.981 20.2511 111.344 21.043 111.321 21.9632C111.321 22.4384 111.215 22.8909 110.996 23.3208C110.784 23.7432 110.496 24.1128 110.118 24.422C110.716 24.7237 111.192 25.1385 111.556 25.674C111.919 26.2095 112.093 26.7978 112.093 27.4389C112.093 28.3893 111.722 29.1963 110.988 29.8751C110.262 30.5388 109.369 30.8707 108.309 30.8707H95.4506V18.6069H107.628ZM98.8184 23.5999H106.538C106.894 23.5999 107.204 23.4868 107.461 23.2529C107.734 23.0191 107.855 22.7401 107.84 22.4082C107.855 22.0688 107.726 21.7822 107.454 21.5559C107.204 21.3221 106.894 21.209 106.538 21.209H98.8184V23.5999ZM98.8184 28.2686H107.378C107.741 28.2686 108.052 28.1554 108.301 27.9216C108.551 27.6878 108.68 27.4088 108.68 27.0693C108.68 26.7375 108.551 26.4509 108.301 26.2171C108.052 25.9833 107.741 25.8701 107.378 25.8777H98.8184V28.2686Z" fill="#131C42"/>
<path d="M113.713 30.8631V18.6069H117.073V27.2051L127.714 18.6069H131.082V30.8631H127.714V22.2574L117.073 30.8631H113.713Z" fill="#131C42"/>
<path d="M147.263 18.6069V21.3372H136.054V30.8707H132.694V18.6069H147.263Z" fill="#131C42"/>
<path d="M156.019 18.6069L163.83 30.8631H160.212L158.517 28.1781H150.192L148.474 30.8631H144.864L152.674 18.6069H156.019ZM151.849 25.5835H156.859L154.362 21.6464L151.849 25.5835Z" fill="#131C42"/>
<path d="M168.809 18.6069V28.1328H178.784V18.6069H182.145V28.1328H183.825V33.5934H180.465V30.8631H165.449V18.6069H168.809Z" fill="#131C42"/>
<path d="M185.437 30.8631V18.6069H188.797V27.2051L199.438 18.6069H202.806V30.8631H199.438V22.2574L188.797 30.8631H185.437Z" fill="#131C42"/>
<path d="M221 18.6069V30.8631H217.64V26.4132H212.024L208.323 30.8631H204.418L208.422 26.3679C207.332 26.2397 206.424 25.8249 205.689 25.1083C204.963 24.3767 204.592 23.5094 204.592 22.5138C204.592 21.4352 205.016 20.5151 205.856 19.7458C206.704 18.984 207.718 18.5993 208.906 18.5993H221V18.6069ZM217.64 21.3372H209.247C208.868 21.3221 208.558 21.4277 208.301 21.6691C208.073 21.8802 207.952 22.1668 207.93 22.5289C207.945 22.8683 208.073 23.1549 208.301 23.3887C208.55 23.615 208.868 23.7281 209.247 23.7281L217.64 23.7206V21.3372Z" fill="#131C42"/>
<path d="M60.1523 36.7688V40.2382H59.6679V37.1987H57.6472V40.2382H57.1553V36.7688H60.1523Z" fill="#131C42"/>
<path d="M66.6383 37.0931C66.8956 37.3043 67.0242 37.606 67.0242 37.9831C67.0242 38.3602 66.8956 38.6543 66.6383 38.8731C66.381 39.0843 66.0252 39.1974 65.5711 39.1974H64.7084V40.2458H64.2089V36.7763H65.5636C66.0252 36.7688 66.381 36.8819 66.6383 37.0931ZM66.2826 38.5563C66.4491 38.4205 66.5323 38.232 66.5323 37.9755C66.5323 37.7266 66.4491 37.5305 66.2826 37.3948C66.1161 37.259 65.8739 37.1911 65.5636 37.1911H64.7159V38.7448H65.5636C65.8739 38.7599 66.1161 38.6921 66.2826 38.5563Z" fill="#131C42"/>
<path d="M71.3684 40.0497C71.0884 39.8988 70.8689 39.6801 70.7024 39.4161C70.5359 39.1521 70.4602 38.8429 70.4602 38.511C70.4602 38.1792 70.5435 37.8775 70.7024 37.606C70.8613 37.3344 71.0808 37.1233 71.3684 36.9724C71.6484 36.8216 71.9663 36.7386 72.322 36.7386C72.6701 36.7386 72.988 36.814 73.268 36.9724C73.548 37.1233 73.7675 37.3344 73.9265 37.606C74.0854 37.8775 74.1686 38.1792 74.1686 38.5186C74.1686 38.858 74.0854 39.1597 73.9265 39.4312C73.7675 39.7027 73.548 39.9139 73.268 40.0648C72.988 40.2156 72.6701 40.2986 72.322 40.2986C71.9663 40.2835 71.6484 40.2005 71.3684 40.0497ZM73.0031 39.665C73.2075 39.5519 73.3664 39.3935 73.4875 39.1898C73.6086 38.9862 73.6616 38.7599 73.6616 38.511C73.6616 38.2621 73.601 38.0359 73.4875 37.8322C73.3664 37.6286 73.2075 37.4702 73.0031 37.3571C72.7988 37.2439 72.5717 37.1836 72.3144 37.1836C72.0571 37.1836 71.8301 37.2439 71.6181 37.3571C71.4138 37.4702 71.2473 37.6286 71.1338 37.8322C71.0127 38.0359 70.9597 38.2621 70.9597 38.511C70.9597 38.7599 71.0203 38.9862 71.1338 39.1898C71.2549 39.3935 71.4138 39.5519 71.6181 39.665C71.8225 39.7781 72.0571 39.8385 72.3144 39.8385C72.5717 39.8385 72.7988 39.7781 73.0031 39.665Z" fill="#131C42"/>
<path d="M77.9528 36.7688H78.4447V39.4463L80.5033 36.7688H80.9574V40.2382H80.473V37.5682L78.4069 40.2382H77.9528V36.7688Z" fill="#131C42"/>
<path d="M87.2087 38.7373C87.3298 38.8806 87.3903 39.0616 87.3903 39.2653C87.3903 39.4689 87.3222 39.6499 87.1936 39.8008C87.0649 39.9516 86.8908 40.0723 86.6714 40.1553C86.4519 40.2382 86.2173 40.2759 85.9599 40.2759C85.7253 40.2759 85.4983 40.2382 85.2712 40.1703C85.0442 40.1025 84.8323 39.9969 84.6431 39.8611L84.8171 39.4915C84.9685 39.6122 85.1426 39.7027 85.3318 39.7555C85.521 39.8159 85.7102 39.846 85.907 39.846C86.187 39.846 86.4216 39.7857 86.6108 39.6726C86.8 39.5519 86.8908 39.3935 86.8908 39.1898C86.8908 39.0164 86.8227 38.8806 86.6789 38.7826C86.5351 38.6921 86.3383 38.6393 86.081 38.6393H85.3015V38.2395H86.0432C86.2627 38.2395 86.4367 38.1943 86.5654 38.1038C86.6865 38.0132 86.7546 37.885 86.7546 37.7266C86.7546 37.5456 86.6714 37.4023 86.5124 37.2967C86.3535 37.1911 86.1416 37.1383 85.8994 37.1383C85.7405 37.1383 85.574 37.161 85.4075 37.2062C85.241 37.2515 85.082 37.3194 84.9307 37.4174L84.7717 37.0101C84.9458 36.9121 85.135 36.8366 85.3318 36.7838C85.5286 36.7311 85.7253 36.7084 85.9221 36.7084C86.1643 36.7084 86.3913 36.7461 86.5957 36.8216C86.8 36.897 86.9665 37.0101 87.0876 37.1534C87.2087 37.2967 87.2692 37.4702 87.2692 37.6663C87.2692 37.8398 87.2238 37.9982 87.1254 38.1264C87.0271 38.2621 86.8908 38.3602 86.7168 38.4205C86.9135 38.4884 87.08 38.594 87.2087 38.7373Z" fill="#131C42"/>
<path d="M93.9066 38.7373C94.0277 38.8806 94.0883 39.0692 94.0883 39.2879C94.0883 39.5896 93.9747 39.8234 93.7553 39.9893C93.5358 40.1553 93.2104 40.2382 92.7941 40.2382H91.2048V36.7688H92.7033C93.0817 36.7688 93.3844 36.8442 93.5963 37.0026C93.8082 37.1534 93.9142 37.3797 93.9142 37.6663C93.9142 37.8549 93.8688 38.0132 93.7704 38.149C93.6796 38.2848 93.5434 38.3828 93.3693 38.4432C93.6039 38.496 93.7855 38.594 93.9066 38.7373ZM91.6967 38.2998H92.6654C92.9076 38.2998 93.0893 38.2546 93.2179 38.1565C93.3466 38.0585 93.4071 37.9227 93.4071 37.7342C93.4071 37.5456 93.339 37.4099 93.2104 37.3118C93.0817 37.2138 92.9001 37.1685 92.6579 37.1685H91.6891V38.2998H91.6967ZM93.5888 39.2502C93.5888 39.0541 93.5207 38.9032 93.3844 38.8127C93.2482 38.7222 93.0514 38.6694 92.7865 38.6694H91.6967V39.846H92.7865C93.3163 39.846 93.5888 39.6499 93.5888 39.2502Z" fill="#131C42"/>
<path d="M98.5157 40.0497C98.2356 39.8988 98.0162 39.6801 97.8497 39.4161C97.6907 39.1446 97.6075 38.8429 97.6075 38.511C97.6075 38.1792 97.6907 37.8775 97.8497 37.606C98.0086 37.3344 98.2281 37.1233 98.5157 36.9724C98.8033 36.8216 99.1136 36.7386 99.4693 36.7386C99.8174 36.7386 100.135 36.814 100.415 36.9724C100.695 37.1233 100.915 37.3344 101.074 37.606C101.233 37.8775 101.316 38.1792 101.316 38.5186C101.316 38.858 101.233 39.1597 101.074 39.4312C100.915 39.7027 100.695 39.9139 100.415 40.0648C100.135 40.2156 99.8174 40.2986 99.4693 40.2986C99.1136 40.2835 98.8033 40.2005 98.5157 40.0497ZM100.158 39.665C100.362 39.5519 100.521 39.3935 100.642 39.1898C100.763 38.9862 100.816 38.7599 100.816 38.511C100.816 38.2621 100.756 38.0359 100.642 37.8322C100.521 37.6286 100.362 37.4702 100.158 37.3571C99.9536 37.2439 99.7266 37.1836 99.4693 37.1836C99.2119 37.1836 98.9849 37.2439 98.773 37.3571C98.5686 37.4702 98.4021 37.6286 98.2886 37.8322C98.1675 38.0359 98.1146 38.2621 98.1146 38.511C98.1146 38.7599 98.1751 38.9862 98.2886 39.1898C98.4097 39.3935 98.5686 39.5519 98.773 39.665C98.9773 39.7781 99.2119 39.8385 99.4693 39.8385C99.7266 39.8385 99.9536 39.7781 100.158 39.665Z" fill="#131C42"/>
<path d="M108.317 39.8083V41H107.855V40.2382H104.994L104.987 41H104.525L104.532 39.8083H104.699C104.918 39.7932 105.07 39.6198 105.161 39.2879C105.251 38.956 105.304 38.4884 105.327 37.885L105.365 36.7688H107.809V39.8083H108.317ZM105.645 39.1446C105.584 39.4614 105.486 39.6876 105.35 39.8083H107.318V37.1987H105.789L105.766 37.9303C105.743 38.4205 105.705 38.8278 105.645 39.1446Z" fill="#131C42"/>
<path d="M112.6 40.0497C112.32 39.8988 112.101 39.6876 111.942 39.4161C111.783 39.1446 111.7 38.8429 111.7 38.5035C111.7 38.1641 111.783 37.8624 111.942 37.5909C112.101 37.3194 112.32 37.1082 112.6 36.9573C112.88 36.8065 113.198 36.7235 113.546 36.7235C113.819 36.7235 114.068 36.7688 114.295 36.8593C114.522 36.9498 114.712 37.0855 114.871 37.2666L114.545 37.5758C114.28 37.3043 113.955 37.1685 113.569 37.1685C113.312 37.1685 113.077 37.2288 112.865 37.342C112.653 37.4551 112.494 37.6135 112.373 37.8171C112.252 38.0208 112.199 38.2471 112.199 38.496C112.199 38.7448 112.26 38.9711 112.373 39.1748C112.487 39.3784 112.653 39.5368 112.865 39.6499C113.077 39.7631 113.304 39.8234 113.569 39.8234C113.955 39.8234 114.28 39.6876 114.545 39.4086L114.871 39.7178C114.712 39.8988 114.515 40.0346 114.288 40.1251C114.061 40.2156 113.811 40.2608 113.539 40.2608C113.19 40.2835 112.88 40.2005 112.6 40.0497Z" fill="#131C42"/>
<path d="M120.887 37.2062H119.692V40.2458H119.207V37.2062H118.019V36.7763H120.887V37.2062Z" fill="#131C42"/>
<path d="M127.184 38.7373C127.305 38.8806 127.366 39.0692 127.366 39.2879C127.366 39.5896 127.252 39.8234 127.033 39.9893C126.813 40.1553 126.488 40.2382 126.072 40.2382H124.482V36.7688H125.981C126.359 36.7688 126.662 36.8442 126.874 37.0026C127.086 37.1534 127.192 37.3797 127.192 37.6663C127.192 37.8549 127.146 38.0132 127.048 38.149C126.957 38.2848 126.821 38.3828 126.647 38.4432C126.881 38.496 127.063 38.594 127.184 38.7373ZM124.974 38.2998H125.943C126.185 38.2998 126.367 38.2546 126.495 38.1565C126.624 38.0585 126.685 37.9227 126.685 37.7342C126.685 37.5456 126.617 37.4099 126.488 37.3118C126.359 37.2138 126.178 37.1685 125.935 37.1685H124.967V38.2998H124.974ZM126.866 39.2502C126.866 39.0541 126.798 38.9032 126.662 38.8127C126.526 38.7222 126.329 38.6694 126.064 38.6694H124.974V39.846H126.064C126.594 39.846 126.866 39.6499 126.866 39.2502Z" fill="#131C42"/>
<path d="M133.708 39.8083V40.2382H131.18V36.7688H133.64V37.1987H131.68V38.2621H133.428V38.6845H131.68V39.8008H133.708V39.8083Z" fill="#131C42"/>
<path d="M140.466 36.7688V40.2382H139.967V38.6921H137.969V40.2382H137.469V36.7688H137.969V38.2621H139.967V36.7688H140.466Z" fill="#131C42"/>
<path d="M147.528 36.7688V40.2382H147.028V38.6921H145.03V40.2382H144.531V36.7688H145.03V38.2621H147.028V36.7688H147.528Z" fill="#131C42"/>
<path d="M153.855 39.3709H152.008L151.622 40.2382H151.107L152.681 36.7688H153.173L154.755 40.2382H154.233L153.855 39.3709ZM153.68 38.9787L152.931 37.2816L152.182 38.9787H153.68Z" fill="#131C42"/>
<path d="M160.734 36.7688V40.2382H160.25V39.2276H159.289C159.228 39.2276 159.183 39.2276 159.152 39.22L158.456 40.2382H157.926L158.698 39.137C158.448 39.0541 158.259 38.9183 158.123 38.7222C157.987 38.5261 157.926 38.2923 157.926 38.0132C157.926 37.621 158.055 37.3118 158.305 37.0931C158.554 36.8744 158.903 36.7612 159.334 36.7612H160.734V36.7688ZM158.653 38.6091C158.804 38.7448 159.024 38.8127 159.319 38.8127H160.242V37.1987H159.349C159.054 37.1987 158.819 37.2666 158.66 37.4099C158.501 37.5456 158.418 37.7493 158.418 38.0132C158.433 38.2697 158.501 38.4733 158.653 38.6091Z" fill="#131C42"/>
<path d="M170.338 38.7147H169.612V40.2382H169.127V36.7688H169.612V38.2772H170.346L171.443 36.7688H171.973L170.732 38.4507L172.034 40.2382H171.466L170.338 38.7147Z" fill="#131C42"/>
<path d="M176.135 40.0497C175.855 39.8988 175.636 39.6801 175.469 39.4161C175.311 39.1446 175.227 38.8429 175.227 38.511C175.227 38.1792 175.311 37.8775 175.469 37.606C175.628 37.3344 175.848 37.1233 176.135 36.9724C176.416 36.8216 176.733 36.7386 177.089 36.7386C177.437 36.7386 177.755 36.814 178.035 36.9724C178.315 37.1233 178.535 37.3344 178.694 37.606C178.852 37.8775 178.936 38.1792 178.936 38.5186C178.936 38.858 178.86 39.1597 178.694 39.4312C178.535 39.7027 178.315 39.9139 178.035 40.0648C177.755 40.2156 177.437 40.2986 177.089 40.2986C176.733 40.2835 176.416 40.2005 176.135 40.0497ZM177.77 39.665C177.975 39.5519 178.134 39.3935 178.255 39.1898C178.376 38.9862 178.429 38.7599 178.429 38.511C178.429 38.2621 178.368 38.0359 178.255 37.8322C178.134 37.6286 177.975 37.4702 177.77 37.3571C177.566 37.2439 177.339 37.1836 177.082 37.1836C176.824 37.1836 176.597 37.2439 176.385 37.3571C176.181 37.4702 176.014 37.6286 175.901 37.8322C175.78 38.0359 175.727 38.2621 175.727 38.511C175.727 38.7599 175.787 38.9862 175.901 39.1898C176.022 39.3935 176.181 39.5519 176.385 39.665C176.59 39.7781 176.824 39.8385 177.082 39.8385C177.339 39.8385 177.566 39.7781 177.77 39.665Z" fill="#131C42"/>
<path d="M185.944 40.2382L185.936 37.7115L184.68 39.8159H184.453L183.197 37.7266V40.2382H182.72V36.7688H183.129L184.582 39.2049L186.012 36.7688H186.421L186.428 40.2382H185.944Z" fill="#131C42"/>
<path d="M193.489 36.7688V40.2382H193.005V37.1987H190.984V40.2382H190.492V36.7688H193.489Z" fill="#131C42"/>
<path d="M199.816 39.3709H197.97L197.584 40.2382H197.069L198.643 36.7688H199.135L200.717 40.2382H200.195L199.816 39.3709ZM199.642 38.9787L198.893 37.2816L198.144 38.9787H199.642Z" fill="#131C42"/>
<path d="M207.301 36.7688V40.2382H206.802V38.6921H204.804V40.2382H204.304V36.7688H204.804V38.2621H206.802V36.7688H207.301Z" fill="#131C42"/>
<path d="M211.373 36.7688H211.865V39.4463L213.924 36.7688H214.378V40.2382H213.893V37.5682L211.827 40.2382H211.373V36.7688Z" fill="#131C42"/>
<path d="M221 36.7688V40.2382H220.516V39.2276H219.554C219.494 39.2276 219.448 39.2276 219.418 39.22L218.722 40.2382H218.192L218.964 39.137C218.714 39.0541 218.525 38.9183 218.389 38.7222C218.253 38.5261 218.192 38.2923 218.192 38.0132C218.192 37.621 218.321 37.3118 218.571 37.0931C218.82 36.8744 219.168 36.7612 219.6 36.7612H221V36.7688ZM218.919 38.6091C219.07 38.7448 219.29 38.8127 219.585 38.8127H220.508V37.1987H219.615C219.32 37.1987 219.085 37.2666 218.926 37.4099C218.767 37.5456 218.684 37.7493 218.684 38.0132C218.692 38.2697 218.767 38.4733 218.919 38.6091Z" fill="#131C42"/>
<path d="M2.74727 35.0265C4.26092 35.0265 5.49454 36.2483 5.49454 37.7643C5.49454 39.2728 4.26848 40.5022 2.74727 40.5022C1.23362 40.5022 0 39.2804 0 37.7643C0 36.2483 1.22605 35.0265 2.74727 35.0265ZM0 29.0077C0 30.5162 1.22605 31.7456 2.74727 31.7456C4.26092 31.7456 5.49454 30.5237 5.49454 29.0077C5.49454 27.4993 4.26848 26.2699 2.74727 26.2699C1.22605 26.2699 0 27.4917 0 29.0077ZM0 20.2511C0 21.7596 1.22605 22.989 2.74727 22.989C4.26092 22.989 5.49454 21.7671 5.49454 20.2511C5.49454 18.7426 4.26848 17.5132 2.74727 17.5132C1.22605 17.5132 0 18.7351 0 20.2511ZM0 11.4945C0 13.0029 1.22605 14.2323 2.74727 14.2323C4.26092 14.2323 5.49454 13.0105 5.49454 11.4945C5.49454 9.98602 4.26848 8.75662 2.74727 8.75662C1.22605 8.75662 0 9.97848 0 11.4945ZM8.78672 37.7643C8.78672 39.2728 10.0128 40.5022 11.534 40.5022C13.0476 40.5022 14.2813 39.2804 14.2813 37.7643C14.2813 36.2559 13.0552 35.0265 11.534 35.0265C10.0128 35.0265 8.78672 36.2483 8.78672 37.7643ZM17.5734 37.7643C17.5734 39.2728 18.7995 40.5022 20.3207 40.5022C21.8344 40.5022 23.068 39.2804 23.068 37.7643C23.068 36.2559 21.8419 35.0265 20.3207 35.0265C18.7995 35.0265 17.5734 36.2483 17.5734 37.7643ZM26.3602 37.7643C26.3602 39.2728 27.5862 40.5022 29.1074 40.5022C30.6211 40.5022 31.8547 39.2804 31.8547 37.7643C31.8547 36.2559 30.6286 35.0265 29.1074 35.0265C27.5862 35.0265 26.3602 36.2483 26.3602 37.7643ZM8.78672 2.73786C8.78672 4.24632 10.0128 5.47572 11.534 5.47572C13.0476 5.47572 14.2813 4.25386 14.2813 2.73786C14.2813 1.2294 13.0552 0 11.534 0C10.0128 0 8.78672 1.22185 8.78672 2.73786ZM17.5734 2.73786C17.5734 4.24632 18.7995 5.47572 20.3207 5.47572C21.8344 5.47572 23.068 4.25386 23.068 2.73786C23.068 1.2294 21.8419 0 20.3207 0C18.7995 0 17.5734 1.22185 17.5734 2.73786ZM26.3602 2.73786C26.3602 4.24632 27.5862 5.47572 29.1074 5.47572C30.6211 5.47572 31.8547 4.25386 31.8547 2.73786C31.8547 1.2294 30.6286 0 29.1074 0C27.5862 0 26.3602 1.22185 26.3602 2.73786ZM35.1469 29.0077C35.1469 30.5162 36.3729 31.7456 37.8941 31.7456C39.4078 31.7456 40.6414 30.5237 40.6414 29.0077C40.6414 27.4993 39.4154 26.2699 37.8941 26.2699C36.3729 26.2699 35.1469 27.4917 35.1469 29.0077ZM35.1469 20.2511C35.1469 21.7596 36.3729 22.989 37.8941 22.989C39.4078 22.989 40.6414 21.7671 40.6414 20.2511C40.6414 18.7426 39.4154 17.5132 37.8941 17.5132C36.3729 17.5132 35.1469 18.7351 35.1469 20.2511ZM35.1469 11.4945C35.1469 13.0029 36.3729 14.2323 37.8941 14.2323C39.4078 14.2323 40.6414 13.0105 40.6414 11.4945C40.6414 9.98602 39.4154 8.75662 37.8941 8.75662C36.3729 8.75662 35.1469 9.97848 35.1469 11.4945ZM37.8941 0C36.3805 0 35.1469 1.22185 35.1469 2.73786C35.1469 4.24632 36.3729 5.47572 37.8941 5.47572C39.4078 5.47572 40.6414 4.25386 40.6414 2.73786C40.6338 1.22185 39.4078 0 37.8941 0Z" fill="#0074FF"/>
<path d="M12.2681 31.6475C10.4366 32.1227 8.78669 30.7575 8.78669 29.0077C8.78669 28.0725 9.25592 27.2504 9.97491 26.7526C10.5955 26.3302 11.0193 25.6816 11.0193 24.9273V24.3164C11.0193 23.5697 10.5955 22.9211 9.97491 22.4912C9.25592 22.0009 8.78669 21.1713 8.78669 20.236C8.78669 18.4862 10.4366 17.121 12.2681 17.5962C13.2065 17.8376 13.9634 18.6069 14.1904 19.5421C14.4931 20.7489 13.9785 21.8727 13.093 22.4836C12.5027 22.8909 12.1243 23.5395 12.1243 24.2485V24.9801C12.1243 25.6966 12.5027 26.3377 13.093 26.745C13.9785 27.356 14.4856 28.4798 14.1904 29.6865C13.9634 30.6369 13.199 31.4062 12.2681 31.6475ZM20.3207 26.2699C18.5573 26.2699 17.1799 27.9292 17.6794 29.7695C17.914 30.6369 18.6103 31.3534 19.4806 31.6174C20.7521 31.9945 21.9554 31.4741 22.5912 30.5464C22.9998 29.943 23.6583 29.5583 24.3848 29.5583H25.0433C25.7698 29.5583 26.4282 29.943 26.8369 30.5464C27.4727 31.4741 28.676 31.9945 29.9475 31.6174C30.8103 31.3609 31.5065 30.6444 31.7487 29.7695C32.2482 27.9292 30.8708 26.2699 29.1074 26.2699C28.1765 26.2699 27.3591 26.7299 26.8596 27.4314C26.4282 28.0348 25.7849 28.4496 25.0357 28.4496H24.3848C23.6431 28.4496 22.9923 28.0348 22.5609 27.4314C22.0689 26.7299 21.244 26.2699 20.3207 26.2699ZM16.143 10.9363H15.7041C14.9094 10.9363 14.2131 10.4989 13.7363 9.8578C13.0854 8.98289 11.9199 8.50772 10.6863 8.8773C9.82354 9.13374 9.12726 9.85025 8.88508 10.7252C8.38558 12.5655 9.76299 14.2248 11.5264 14.2248C12.4573 14.2248 13.2747 13.7647 13.7742 13.0633C14.2055 12.4599 14.8488 12.0451 15.5981 12.0451H16.143C16.9377 12.0451 17.634 12.475 18.1032 13.1161C18.2697 13.3348 18.4665 13.5309 18.6859 13.6968C19.3217 14.1645 19.7606 14.8583 19.7606 15.6503V16.0953C19.7606 16.8872 19.3217 17.5811 18.6784 18.0563C17.8005 18.7049 17.3237 19.8664 17.6945 21.0958C17.9518 21.9557 18.6708 22.6496 19.5487 22.8909C21.3954 23.3887 23.0604 22.016 23.0604 20.2586C23.0604 19.3309 22.5987 18.5164 21.8949 18.0186C21.2894 17.5887 20.8732 16.9476 20.8732 16.2009V15.6578C20.8732 14.8659 21.3121 14.172 21.9554 13.6968C22.8333 13.0482 23.3101 11.8867 22.9393 10.6573C22.6895 9.82009 22.0008 9.13373 21.1608 8.88484C19.9271 8.51527 18.7616 8.99043 18.1108 9.86534C17.634 10.4989 16.9452 10.9363 16.143 10.9363ZM26.4812 10.6497C26.1028 11.9168 26.6175 13.1161 27.5559 13.7496C28.1614 14.1569 28.5474 14.8131 28.5474 15.5372V16.1933C28.5474 16.9174 28.1614 17.5736 27.5559 17.9809C26.625 18.6144 26.1028 19.8136 26.4812 21.0808C26.7385 21.9406 27.4575 22.6345 28.3354 22.8758C30.1821 23.3736 31.8471 22.0009 31.8471 20.2436C31.8471 19.3159 31.3854 18.5013 30.6816 18.0035C30.0761 17.5736 29.6599 16.9325 29.6599 16.1858V15.5372C29.6599 14.798 30.0761 14.1494 30.6816 13.7195C31.3854 13.2217 31.8471 12.4071 31.8471 11.4794C31.8471 9.72204 30.1821 8.34933 28.3354 8.84713C27.4651 9.09602 26.7461 9.78992 26.4812 10.6497Z" fill="#00BDFF"/>
</g>
<defs>
<clipPath id="clip0_2_2">
<rect width="221" height="41" fill="white"/>
</clipPath>
</defs>
</svg>
