<svg width="24" height="24" viewBox="0 0 24 24" fill="none" xmlns="http://www.w3.org/2000/svg">
<g clip-path="url(#clip0_2_526)">
<path fill-rule="evenodd" clip-rule="evenodd" d="M23.45 5.94808C23.616 5.40208 23.45 5.00008 22.655 5.00008H20.03C19.362 5.00008 19.054 5.34708 18.887 5.73008C18.887 5.73008 17.552 8.92608 15.661 11.0021C15.049 11.6041 14.771 11.7951 14.437 11.7951C14.27 11.7951 14.019 11.6041 14.019 11.0571V5.94808C14.019 5.29208 13.835 5.00008 13.279 5.00008H9.151C8.734 5.00008 8.483 5.30408 8.483 5.59308C8.483 6.21408 9.429 6.35808 9.526 8.10608V11.9041C9.526 12.7371 9.373 12.8881 9.039 12.8881C8.149 12.8881 5.984 9.67708 4.699 6.00308C4.45 5.28808 4.198 5.00008 3.527 5.00008H0.9C0.15 5.00008 0 5.34708 0 5.73008C0 6.41208 0.89 9.80008 4.145 14.2811C6.315 17.3411 9.37 19.0001 12.153 19.0001C13.822 19.0001 14.028 18.6321 14.028 17.9971V15.6841C14.028 14.9471 14.186 14.8001 14.715 14.8001C15.105 14.8001 15.772 14.9921 17.33 16.4671C19.11 18.2161 19.403 19.0001 20.405 19.0001H23.03C23.78 19.0001 24.156 18.6321 23.94 17.9041C23.702 17.1801 22.852 16.1291 21.725 14.8821C21.113 14.1721 20.195 13.4071 19.916 13.0241C19.527 12.5331 19.638 12.3141 19.916 11.8771C19.916 11.8771 23.116 7.45108 23.449 5.94808H23.45Z" fill="#E0E0E0"/>
</g>
<defs>
<clipPath id="clip0_2_526">
<rect width="24" height="24" fill="white"/>
</clipPath>
</defs>
</svg>
